<?xml version="1.0" encoding="UTF-8"?>
<svg id="Layer_0" data-name="Layer 0"
  xmlns="http://www.w3.org/2000/svg"
  xmlns:xlink="http://www.w3.org/1999/xlink" viewBox="0 0 249.59 12.28">
  <defs>
    <style>
      .cls-1 {
        fill: url(#linear-gradient);
      }
    </style>
    <linearGradient id="linear-gradient" x1="0" y1="6.14" x2="249.59" y2="6.14" gradientUnits="userSpaceOnUse">
      <stop offset="0" stop-color="#e517ff"/>
      <stop offset=".35" stop-color="#02daf5"/>
      <stop offset=".69" stop-color="#1a996f"/>
      <stop offset="1" stop-color="#1c91df"/>
    </linearGradient>
  </defs>
  <g id="Layer_0-1" data-name="Layer 0">
    <path class="cls-1" d="m8.48,5.75c0,.93-.15,1.74-.45,2.42s-.72,1.24-1.25,1.65l1.65,1.3-1.31,1.16-2.12-1.7c-.24.04-.49.06-.75.06-.82,0-1.56-.2-2.21-.59s-1.15-.96-1.5-1.7S0,6.76,0,5.8v-.49c0-.98.18-1.84.53-2.59s.85-1.32,1.5-1.72,1.38-.6,2.21-.6,1.57.2,2.21.6,1.14.97,1.5,1.72.53,1.61.53,2.58v.44Zm-2.08-.45c0-1.04-.19-1.84-.56-2.38s-.91-.81-1.6-.81-1.22.27-1.59.8-.56,1.32-.57,2.35v.49c0,1.02.19,1.8.56,2.37s.91.84,1.61.84,1.22-.27,1.59-.81.56-1.33.56-2.36v-.49Z"/>
    <path class="cls-1" d="m14.28,9.75c-.49.59-1.16.89-2.02.89-.79,0-1.4-.23-1.81-.68s-.63-1.12-.64-2V3.1h1.98v4.78c0,.77.35,1.16,1.05,1.16s1.13-.23,1.38-.7V3.1h1.98v7.4h-1.86l-.05-.75Z"/>
    <path class="cls-1" d="m21.09,10.64c-1.08,0-1.97-.33-2.65-1s-1.02-1.55-1.02-2.66v-.19c0-.74.14-1.41.43-1.99s.69-1.04,1.22-1.35,1.13-.48,1.8-.48c1.01,0,1.81.32,2.39.96s.87,1.54.87,2.71v.81h-4.71c.06.48.26.87.58,1.16s.73.44,1.22.44c.76,0,1.36-.28,1.78-.83l.97,1.09c-.3.42-.7.75-1.2.98s-1.07.35-1.68.35Zm-.23-6.08c-.39,0-.71.13-.95.4s-.4.65-.47,1.14h2.75v-.16c0-.44-.13-.78-.36-1.02s-.55-.36-.97-.36Z"/>
    <path class="cls-1" d="m29.26,8.46c0-.24-.12-.43-.36-.57s-.62-.26-1.15-.37c-1.76-.37-2.64-1.12-2.64-2.24,0-.66.27-1.2.82-1.64s1.26-.66,2.14-.66c.94,0,1.69.22,2.25.66s.84,1.02.84,1.72h-1.98c0-.28-.09-.52-.27-.7s-.47-.28-.85-.28c-.33,0-.59.08-.77.23s-.27.34-.27.57c0,.22.1.4.31.53s.56.25,1.05.35.91.21,1.24.33c1.04.38,1.57,1.05,1.57,1.99,0,.67-.29,1.22-.87,1.64s-1.33.63-2.24.63c-.62,0-1.17-.11-1.65-.33s-.86-.52-1.13-.91-.41-.8-.41-1.25h1.87c.02.35.15.62.39.81s.56.28.97.28c.38,0,.66-.07.86-.22s.29-.33.29-.56Z"/>
    <path class="cls-1" d="m34.82,1.29v1.82h1.26v1.45h-1.26v3.69c0,.27.05.47.16.59s.31.18.6.18c.22,0,.41-.02.58-.05v1.5c-.39.12-.79.18-1.2.18-1.39,0-2.09-.7-2.12-2.1v-3.99h-1.08v-1.45h1.08v-1.82h1.98Z"/>
    <path class="cls-1" d="m41.02,7.03h-3.85v-1.59h3.85v1.59Z"/>
    <path class="cls-1" d="m44.46,3.1l.06.83c.52-.64,1.23-.96,2.13-.96.95,0,1.61.38,1.96,1.13.52-.75,1.26-1.13,2.22-1.13.8,0,1.4.23,1.79.7s.59,1.17.59,2.11v4.72h-1.98v-4.72c0-.42-.08-.73-.25-.92s-.45-.29-.87-.29c-.59,0-1,.28-1.23.85v5.08s-1.97,0-1.97,0v-4.71c0-.43-.08-.74-.25-.93s-.46-.29-.86-.29c-.56,0-.97.23-1.22.7v5.23h-1.98V3.1h1.85Z"/>
    <path class="cls-1" d="m59.01,10.5c-.09-.18-.16-.4-.2-.66-.48.53-1.1.8-1.87.8-.72,0-1.33-.21-1.8-.63s-.71-.95-.71-1.59c0-.78.29-1.39.87-1.8s1.42-.63,2.52-.64h.91v-.42c0-.34-.09-.62-.26-.82s-.45-.31-.83-.31c-.33,0-.59.08-.78.24s-.28.38-.28.66h-1.98c0-.43.13-.82.4-1.19s.64-.65,1.12-.86,1.03-.31,1.63-.31c.91,0,1.63.23,2.17.69s.8,1.1.8,1.93v3.21c0,.7.1,1.23.29,1.59v.12h-2Zm-1.63-1.37c.29,0,.56-.06.81-.19s.43-.3.55-.52v-1.27h-.74c-.99,0-1.52.34-1.58,1.03v.12c0,.25.08.45.25.61s.41.24.71.24Z"/>
    <path class="cls-1" d="m64.6,1.29v1.82h1.26v1.45h-1.26v3.69c0,.27.05.47.16.59s.31.18.6.18c.22,0,.41-.02.58-.05v1.5c-.39.12-.79.18-1.2.18-1.39,0-2.09-.7-2.12-2.1v-3.99h-1.08v-1.45h1.08v-1.82h1.98Z"/>
    <path class="cls-1" d="m70.37,10.64c-1.08,0-1.97-.33-2.65-1s-1.02-1.55-1.02-2.66v-.19c0-.74.14-1.41.43-1.99s.69-1.04,1.22-1.35,1.13-.48,1.8-.48c1.01,0,1.81.32,2.39.96s.87,1.54.87,2.71v.81h-4.71c.06.48.26.87.58,1.16s.73.44,1.22.44c.76,0,1.36-.28,1.78-.83l.97,1.09c-.3.42-.7.75-1.2.98s-1.07.35-1.68.35Zm-.23-6.08c-.39,0-.71.13-.95.4s-.4.65-.47,1.14h2.75v-.16c0-.44-.13-.78-.36-1.02s-.55-.36-.97-.36Z"/>
    <path class="cls-1" d="m78.54,8.46c0-.24-.12-.43-.36-.57s-.62-.26-1.15-.37c-1.76-.37-2.64-1.12-2.64-2.24,0-.66.27-1.2.82-1.64s1.26-.66,2.14-.66c.94,0,1.69.22,2.25.66s.84,1.02.84,1.72h-1.98c0-.28-.09-.52-.27-.7s-.47-.28-.85-.28c-.33,0-.59.08-.77.23s-.27.34-.27.57c0,.22.1.4.31.53s.56.25,1.05.35.91.21,1.24.33c1.04.38,1.57,1.05,1.57,1.99,0,.67-.29,1.22-.87,1.64s-1.33.63-2.24.63c-.62,0-1.17-.11-1.65-.33s-.86-.52-1.13-.91-.41-.8-.41-1.25h1.87c.02.35.15.62.39.81s.56.28.97.28c.38,0,.66-.07.86-.22s.29-.33.29-.56Z"/>
    <path class="cls-1" d="m90.97,8.45h-3.6l-.68,2.05h-2.18l3.71-9.95h1.9l3.73,9.95h-2.18l-.69-2.05Zm-3.04-1.66h2.49l-1.25-3.73-1.24,3.73Z"/>
    <path class="cls-1" d="m100.84,7.81l.97-4.71h1.91l-1.89,7.4h-1.65l-1.4-4.66-1.4,4.66h-1.65l-1.89-7.4h1.91l.96,4.7,1.35-4.7h1.43l1.35,4.71Z"/>
    <path class="cls-1" d="m108.99,10.5c-.09-.18-.16-.4-.2-.66-.48.53-1.1.8-1.87.8-.72,0-1.33-.21-1.8-.63s-.71-.95-.71-1.59c0-.78.29-1.39.87-1.8s1.42-.63,2.52-.64h.91v-.42c0-.34-.09-.62-.26-.82s-.45-.31-.83-.31c-.33,0-.59.08-.78.24s-.28.38-.28.66h-1.98c0-.43.13-.82.4-1.19s.64-.65,1.12-.86,1.03-.31,1.63-.31c.91,0,1.63.23,2.17.69s.8,1.1.8,1.93v3.21c0,.7.1,1.23.29,1.59v.12h-2Zm-1.63-1.37c.29,0,.56-.06.81-.19s.43-.3.55-.52v-1.27h-.74c-.99,0-1.52.34-1.58,1.03v.12c0,.25.08.45.25.61s.41.24.71.24Z"/>
    <path class="cls-1" d="m112.19,1.19c0-.3.1-.54.3-.73s.47-.29.81-.29.61.1.81.29.3.44.3.73-.1.55-.3.74-.47.29-.8.29-.6-.1-.8-.29-.3-.44-.3-.74Zm2.1,9.31h-1.98V3.1h1.98v7.4Z"/>
    <path class="cls-1" d="m118.28,1.29v1.82h1.26v1.45h-1.26v3.69c0,.27.05.47.16.59s.31.18.6.18c.22,0,.41-.02.58-.05v1.5c-.39.12-.79.18-1.2.18-1.39,0-2.09-.7-2.12-2.1v-3.99h-1.08v-1.45h1.08v-1.82h1.98Z"/>
    <path class="cls-1" d="m120.74,3.93c0-.31.11-.57.32-.77s.48-.29.8-.29.59.1.8.29.32.45.32.77-.1.56-.31.76-.48.29-.81.29-.59-.1-.8-.29-.31-.45-.31-.76Zm0,5.6c0-.31.11-.57.32-.77s.48-.29.8-.29.59.1.8.29.32.45.32.77-.1.56-.31.76-.48.29-.81.29-.59-.1-.8-.29-.31-.45-.31-.76Z"/>
    <path class="cls-1" d="m132.23.55h2.05v6.89c0,.63-.14,1.19-.42,1.68s-.68.86-1.19,1.12-1.09.4-1.73.4c-1.05,0-1.87-.27-2.46-.8s-.88-1.29-.88-2.27h2.06c0,.49.1.85.31,1.08s.53.35.97.35c.39,0,.7-.13.94-.4s.35-.65.35-1.15V.55Z"/>
    <path class="cls-1" d="m135.6,6.73c0-.73.14-1.39.42-1.96s.69-1.02,1.22-1.33,1.15-.47,1.85-.47c1,0,1.81.31,2.44.92s.98,1.44,1.06,2.49v.51c.01,1.13-.3,2.04-.94,2.73s-1.48,1.03-2.55,1.03-1.92-.34-2.55-1.03-.95-1.61-.95-2.79v-.09Zm1.98.14c0,.7.13,1.24.4,1.61.26.37.64.56,1.13.56s.85-.18,1.12-.55c.27-.37.4-.96.4-1.76,0-.69-.13-1.22-.4-1.6s-.65-.57-1.13-.57-.86.19-1.12.56-.4.96-.4,1.75Z"/>
    <path class="cls-1" d="m143.81,1.19c0-.3.1-.54.3-.73s.47-.29.81-.29.61.1.81.29.3.44.3.73-.1.55-.3.74-.47.29-.8.29-.6-.1-.8-.29-.3-.44-.3-.74Zm2.1,9.31h-1.98V3.1h1.98v7.4Z"/>
    <path class="cls-1" d="m149.35,3.1l.06.85c.53-.66,1.24-.99,2.13-.99.78,0,1.37.23,1.75.69s.58,1.15.59,2.06v4.78h-1.98v-4.73c0-.42-.09-.72-.27-.91s-.49-.28-.91-.28c-.56,0-.97.24-1.25.71v5.22h-1.98V3.1h1.86Z"/>
    <path class="cls-1" d="m161.23,1.29v1.82h1.26v1.45h-1.26v3.69c0,.27.05.47.16.59s.31.18.6.18c.22,0,.41-.02.58-.05v1.5c-.39.12-.79.18-1.2.18-1.39,0-2.09-.7-2.12-2.1v-3.99h-1.08v-1.45h1.08v-1.82h1.98Z"/>
    <path class="cls-1" d="m165.52,3.91c.52-.63,1.18-.94,1.98-.94,1.6,0,2.42.93,2.44,2.8v4.74h-1.98v-4.68c0-.42-.09-.74-.27-.94s-.49-.3-.91-.3c-.58,0-1,.22-1.26.67v5.26h-1.98V0h1.98v3.91Z"/>
    <path class="cls-1" d="m174.83,10.64c-1.08,0-1.97-.33-2.65-1s-1.02-1.55-1.02-2.66v-.19c0-.74.14-1.41.43-1.99s.69-1.04,1.22-1.35,1.13-.48,1.8-.48c1.01,0,1.81.32,2.39.96s.87,1.54.87,2.71v.81h-4.71c.06.48.26.87.58,1.16s.73.44,1.22.44c.76,0,1.36-.28,1.78-.83l.97,1.09c-.3.42-.7.75-1.2.98s-1.07.35-1.68.35Zm-.23-6.08c-.39,0-.71.13-.95.4s-.4.65-.47,1.14h2.75v-.16c0-.44-.13-.78-.36-1.02s-.55-.36-.97-.36Z"/>
    <path class="cls-1" d="m188.23,8.45h-3.6l-.68,2.05h-2.18l3.71-9.95h1.9l3.73,9.95h-2.18l-.69-2.05Zm-3.04-1.66h2.49l-1.25-3.73-1.24,3.73Z"/>
    <path class="cls-1" d="m191.59,6.75c0-1.15.26-2.07.78-2.75s1.22-1.03,2.12-1.03c.72,0,1.31.27,1.78.81V0h1.98v10.5h-1.78l-.1-.79c-.49.62-1.13.92-1.9.92-.87,0-1.57-.34-2.1-1.03s-.79-1.64-.79-2.86Zm1.98.15c0,.69.12,1.23.36,1.6.24.37.59.55,1.05.55.61,0,1.04-.26,1.29-.77v-2.92c-.25-.52-.67-.77-1.28-.77-.95,0-1.43.77-1.43,2.32Z"/>
    <path class="cls-1" d="m202.56,8.09l1.37-4.98h2.06l-2.5,7.4h-1.89l-2.5-7.4h2.06l1.37,4.98Z"/>
    <path class="cls-1" d="m210.18,10.64c-1.08,0-1.97-.33-2.65-1s-1.02-1.55-1.02-2.66v-.19c0-.74.14-1.41.43-1.99s.69-1.04,1.22-1.35,1.13-.48,1.8-.48c1.01,0,1.81.32,2.39.96s.87,1.54.87,2.71v.81h-4.71c.06.48.26.87.58,1.16s.73.44,1.22.44c.76,0,1.36-.28,1.78-.83l.97,1.09c-.3.42-.7.75-1.2.98s-1.07.35-1.68.35Zm-.23-6.08c-.39,0-.71.13-.95.4s-.4.65-.47,1.14h2.75v-.16c0-.44-.13-.78-.36-1.02s-.55-.36-.97-.36Z"/>
    <path class="cls-1" d="m216.16,3.1l.06.85c.53-.66,1.24-.99,2.13-.99.78,0,1.37.23,1.75.69s.58,1.15.59,2.06v4.78h-1.98v-4.73c0-.42-.09-.72-.27-.91s-.49-.28-.91-.28c-.56,0-.97.24-1.25.71v5.22h-1.98V3.1h1.86Z"/>
    <path class="cls-1" d="m224.55,1.29v1.82h1.26v1.45h-1.26v3.69c0,.27.05.47.16.59s.31.18.6.18c.22,0,.41-.02.58-.05v1.5c-.39.12-.79.18-1.2.18-1.39,0-2.09-.7-2.12-2.1v-3.99h-1.08v-1.45h1.08v-1.82h1.98Z"/>
    <path class="cls-1" d="m231.34,9.75c-.49.59-1.16.89-2.02.89-.79,0-1.4-.23-1.81-.68s-.63-1.12-.64-2V3.1h1.98v4.78c0,.77.35,1.16,1.05,1.16s1.13-.23,1.38-.7V3.1h1.98v7.4h-1.86l-.05-.75Z"/>
    <path class="cls-1" d="m238.9,4.96c-.27-.04-.51-.05-.71-.05-.75,0-1.24.25-1.47.76v4.84h-1.98V3.1h1.87l.05.88c.4-.68.95-1.02,1.65-1.02.22,0,.42.03.62.09l-.03,1.9Z"/>
    <path class="cls-1" d="m243.13,10.64c-1.08,0-1.97-.33-2.65-1s-1.02-1.55-1.02-2.66v-.19c0-.74.14-1.41.43-1.99s.69-1.04,1.22-1.35,1.13-.48,1.8-.48c1.01,0,1.81.32,2.39.96s.87,1.54.87,2.71v.81h-4.71c.06.48.26.87.58,1.16s.73.44,1.22.44c.76,0,1.36-.28,1.78-.83l.97,1.09c-.3.42-.7.75-1.2.98s-1.07.35-1.68.35Zm-.23-6.08c-.39,0-.71.13-.95.4s-.4.65-.47,1.14h2.75v-.16c0-.44-.13-.78-.36-1.02s-.55-.36-.97-.36Z"/>
    <path class="cls-1" d="m248.48,8.52c.33,0,.6.1.8.29s.3.45.3.75-.1.55-.3.75-.47.29-.8.29-.59-.1-.8-.29-.3-.44-.3-.75.1-.55.3-.75.47-.3.8-.3Zm.82-1.08h-1.64l-.23-6.9h2.11l-.23,6.9Z"/>
  </g>
</svg>