<svg version="1.1" id="Layer_1" xmlns="http://www.w3.org/2000/svg" x="0" y="0" viewBox="0 0 256 256" style="enable-background:new 0 0 256 256" xml:space="preserve"><style>.st5{fill:#1a1a1a}</style><linearGradient id="SVGID_1_" gradientUnits="userSpaceOnUse" x1="17.587" y1="238.412" x2="238.412" y2="17.587"><stop offset="0" style="stop-color:#3a66be"/><stop offset="1" style="stop-color:#203c99"/></linearGradient><path d="M60 0h136c33.1 0 60 26.9 60 60v136c0 33.1-26.9 60-60 60H60c-33.1 0-60-26.9-60-60V60C0 26.9 26.9 0 60 0z" style="fill:url(#SVGID_1_)"/><path d="m166.7 211.1 33.4-13.6.6-11.8 5.8-12 1.3-13.3 6.5-20 7.3-16.7-.6-4-1.1-3.6.7-4.2-1.3-4.9.7-3.4-6.5-8-29.1 10.2 1.3 3.8-2.7 4.6 2.5 7.8-4 7.8 5.6 16.9 12 6.4c-.6.2-15.3-1.3-15.3-1.3l3.4 7.1-4 11.1-4.7 2.4-4 1.3-7.8 9.1-5.8 14.3 4.9 14.2.9-.2zm-123-100.4 29.7 3.4 3.8 18.9-6.4 15.2 3.6 2.6 6.2 17.2 7.2 8 5 3 8.8 8.4 10.2 7.6-3.6 7.8.6 5.8-1.2 3.2-2.2 6.2-21.4-6 .6-3.6-3-4 1-3.8-29.3-21.4-2.2-5.4-6.4-2-.2-45.9-2.6-6.6 1.8-8.6z" style="fill:#7d6a4c"/><path d="M194.5 144.6c-.5-.1-1.1-.2-1.6-.2h-.5c-.7.1-.8.4-1 .8-.1.2-.1.4-.2.7v.2c1.5.5 2.9 1.1 4.4 1.6h.1c-.1-1.3.4-2.7-1.2-3.1zm-1.1 15c.1.1.1.2.2.3.1.1.1.2.2.4.7.8 1.3 1.5 1.8 2.3v.1c0-.6.4-2.1-.1-2.6-.4-.7-1.4-.5-2.1-.5zm12.7-15.6c-.4-.1-.5.4-.1.5.3 0 .4-.4.1-.5zm0-27.4c.1 1.5-.1 2.4 1.7 2.4 1.7 0 2.8.1 2.9-1.8 0-.7.2-1.9-.4-2.4-.4-.4-1.5-.2-2.1-.3-1.8-.1-2.2.2-2.1 2.1zm-5.6 12.1c.3-.4.1-1.4.1-1.8-.1-.5 0-1.8-.3-2.2-.5-.7-3-.5-3.6 0-.7.5-.9 3.6 0 4 .6.3 3.3.5 3.8 0zm-95.4 75.2c.1 0 .1-.2.1-.2.1-.2.1-.4.1-.5 0-.2-.1-.5-.1-.8v-.6c-.1-.1-.1-.1-.1-.2v-.6c0-.5-.1-.9-.1-1.3h-.8c-.8 0-2.2-.4-2.9 0-.5.3-.6.8-.6 1.4v1.2c0 .9 0 1.5 1 1.8.5.2 2.1.3 2.9 0 .1-.1.2-.2.5-.2zm2.9-3.7c-.1-.1-.3-.1-.4-.1-.6.2-1.1.3-1.8.3 0 .2.1.4.1.6v.6c0 .1 0 .2-.1.2V202.8c0 .2.1.4.1.6 0 .2.1.3.1.5h.4c0-.5.1-.8.3-1.2.4-.9 1-1.7 1.4-2.5h-.1zm-1.8 5V205.5h-.3c0 .7 0 1.5-.1 2.2v.8c.2.4.5.5.9.6.4-.1.7-.1 1.1-.1-.1-1.3-.5-2.7-.8-3.7l-.8-.1zm.3 4.7c-.2.1-.4.2-.5.3-.3.5-.2 1.6-.1 2.2v.2c.5-.2.8-.5 1.1-.8.5-.5.7-1.2.7-1.9-.3.1-.7.1-1 .1l-.2-.1zm61.1-5.6c1 0 2.1.2 2.7-.3.3-.2.4-1.1.4-2 0-.9-.1-1.8-.4-2-.4-.4-3.4-.4-3.7-.2-.4.3-.5.8-.5 1.4v.9c0 .3 0 .6-.1.9v.1l.3.9v.2h.9c.2 0 .3 0 .4.1zm41.6-59.8c-.9-.1-2.6-.3-3 .5-.3.5-.2 3 .2 3.5.5.6 1.9.5 3 .4h.5c-.1-.2-.2-.3-.2-.5v-.3c0-.4.1-.9.3-1.3l.1-.2h-.1c-.5-.9.7-1.8-.8-2.1zm-153-25.7c.7.4 3.5.4 3.8-.5.3-.8-.7-3.7.7-3.9-.3-.2-.7-.2-1-.2-1.1.8-3-.5-3.8.5-.6.7-.5 3.6.3 4.1zm139.1 76.3c-.2-.2-.4-.3-.8-.4-.9-.1-2.5-.3-3 .5-.4.5-.6 3-.1 3.6.3.3.7.4 1.2.4s1.1-.1 1.6 0h.3c.3 0 .5-.1.8-.1.1-.1.2-.1.3-.1l-.1-.9c-.2-1-.2-2-.2-3zm-13-5.5c-.1 0-.2.1-.2.1s.1 0 .2-.1c-1.4.1-1.1 1.5-1.1 2.5 0 1.5-.1 2 1.4 2 .9 0 2.3.3 2.9-.6.5-.8 0-2 .2-3 0-.2.1-.2.1-.4-.2-.2-.4-.6-.6-.6h-.4c-.8.4-1.6.1-2.5.1zm-103.2.1c-.7-.1-2.6-.3-3.1.4s-.2 2.6-.2 3.6c.1 0 .2.1.3.1.1-.1.2-.2.2-.3 0 .1 0 .2-.1.2l-.1.1c.2.1.4.3.6.4.9-.2 1.7-.1 2.6-.1 1.3.1 1-1.3 1-2.3-.1-1.1.1-1.9-1.2-2.1zm109.7-81h1.1c.2-.2.4-.4.7-.4.1-.2.1-.3.1-.5-.1-.1-.1-.2-.1-.3 0-.6-.1-1.2-.3-1.7-1.2.7-1.9.2-1.5 2.1.1.3.1.6 0 .8zm.8 5.1c1 .1.8-2.1.8-2.7 0-.3.1-.6.1-.8-.3-.1-.6-.3-.7-.7h-1.2c-.5 1.3-1.8 2.4-2.6 3.6v.6c1.1.1 2.5-.1 3.6 0zm10.8 30.9c-.5-.4-3.3-.5-3.8-.1-.9.7-.1 2.3-.6 3.3.4.2.7.5 1.1.7.2.1.3.2.5.3.1 0 .1.1.2.1l.1-.1c.2-.2.5-.1.6 0 .7-.4 1.7.3 2.2-.5.2-.4.2-3.2-.3-3.7zM49.7 164.8c-.8-.7-2.5.1-3.5-.4-.3 1.1-.6 2.3-.7 3.4 0 .4 0 .8.1 1.2h.1c1.2 0 4.6.6 4.4-1.2-.1-.9.4-2.4-.4-3zm150.7-1c.7-.6.3-2.6.3-3.3 0-1.2-2.9-1.1-3.7-.8-1.2.6-.4 2.4-.9 3.5.1.3.3.6.6.8.8 0 2.9.4 3.7-.2zm9.4-59.9c.7 0 1-.8 1-1.6 0 .3.1.6.2.8v.1c0 .1 0 .1 0 0 .4.8 1.1.7 1.6.7 1 0 2.4.3 2.7-.7.1-.4.2-2.8.1-3.3 0 0-.3-.3-.5-.4-.4-.2-1.1 0-1.5 0-.6 0-1.9-.1-2.3.5-.2.3-.4.8-.4 1.3-.1-.5-.2-.9-.3-1.1-.7-1.2-2.2-.1-2.9-.9-.2.1-.3.1-.5.2-.1.4-.5.8-1 .8 0 .5-.1 1.3-.1 2 0 .6.1 1.1.3 1.3.7.6 2.9.3 3.6.3zM87.2 209.2c1 0 2.2.3 2.8-.5.5-.5.4-3.1.1-3.6-.3-.6-3-.6-3.6-.3-1 .5-.5 2-.8 3.1.1.6.9 1 1.4 1.3h.1zm84.8-24.4c-.7 0-.8.6-.8 1.3 0 .5.1.9.1 1.2v.7c0 .7.3 1 1.3 1.1.5 0 2.2.3 2.7-.1l.1-.1c.4-.5.4-1.4.5-1.9 0-.7-.3-1.4-.3-2-.5-.1-.7-.1-1-.1l-2.6-.1zm-107.7-5.1c-.7 0-2.7-.4-3.3.2-.5.4-.4 2.2-.3 3v.3c.4.4.8.7 1.3 1 .2 0 .4 0 .5.1 1.1-.4 2.4.5 2.6-1.3.1-.9.5-3.3-.8-3.3zm136.2-23.5c-.1-.3-.1-.6-.1-1-1-.4-2.1-.7-3.2-.8h-.8c-.3.9-.5 2.8 0 3.7.3.7.8.8 1.6.8.6 0 2.1.3 2.6-.3s.1-1.5.1-2.3c-.1.1-.2 0-.2-.1zm-14.9 46.2c0-.7.3-1.6 0-2-.4-.7-2.2-.7-3.1-.6h-.1c-.4.4-.6 0-.8-.1-.5.8-.6 2.8-.4 3.8.1.4.3.6.4.7.3.2.6.1 1 .1.2-.1.4-.2.7-.2.5-.1.9-.1 1.4-.1.4-.2.9-.4 1.3-.6-.1.1-.2.1-.3.1.1 0 .2 0 .3-.1-.3-.4-.4-.7-.4-1zm-15.3-12.6h-.1.1c-1.1-.3-2.1-.1-3.2-.1-.4.9-.8 1.7-1.2 2.6.2.7.1 1.4.8 1.7.5.3 2.2.2 2.7.1 1.8-.4.8-2.4 1.3-3.8-.1-.1-.1-.3-.2-.4 0 0-.1 0-.2-.1zM70.2 141.7c-.1-.8 0-2.1-.8-2.1s-2.5-.3-3.1.1c-.7.4-.5 1.4-.5 2.2 0 .7-.3 1.5.3 2 .5.5 1.5.4 2.3.6.4-.5.8-.9 1.2-1.4l.1-.1c.2-.5.4-.9.5-1.3zm34.6 68.2c-.8-.4-2.2-.3-3-.2-.9.2-.9.4-1 1.3-.1.6-.3 2.4.2 2.8.5.5 2.4.3 3 .3.3-.8.9-1 1.4-1.4v-.2c-.2-.7.3-2.1-.6-2.6zm90.8-51.7c.3-.8.3-3-.5-3.5-.5-.3-3.1-.3-3.5 0-.5.5-.3 1.1-.3 1.8v.1c0 .4 0 .8-.1 1.2.4.4.8.8 1.3 1.1.1 0 .3.1.4.2 1.1-.5 2.3.4 2.7-.9zm-141.8 6.4c-2 .2-3-.4-3.1 2-.1.6-.3 1.7.2 2.2.2.2.5.2.8.2h.1c.4 0 .7-.1 1 .2l.1.1c.5-.4 1.6-1.3 1.8-.4v.4c.7-1.1 1.1-4.9-.9-4.7zm137.4-56.8c.1.7.5.9 1.2 1 .7.1 2.6.2 3.1-.4.4-.5.2-2.3.2-2.9 0-.8-.3-1.3-1.2-1.4-.7.2-1.3.4-2 .7-.4.2-.9.4-1.3.6.2.7.3 1.3.3 2 0 .3-.1.4-.3.4zm-109.7 87c-1 .4-.6 1.3-.8 2.2V197.6c.2.1.4.3.5.5l.1.1c.5.4.9.7 1.4 1 .1-.1.2-.1.2-.1.1 0 .2 0 .3-.1.2 0 .4.1.6.2.5 0 .9 0 1.2-.4.5-.5.1-2.6.1-3.2.1-1.3-2.8-1.1-3.6-.8zm12.7 14.9c-.6-.1-2.2-.1-2.7.1-1 .5-.7 2.1-.7 3.1v.3c1.4.6 2.9.8 4.4 1.2v-.3c0-.5.1-.9.1-1.4-.1-1.2.4-2.7-1.1-3zm87-14.5c.3 1.4.3 2.9 1 4.2.8-.4 1.6-.2 2.4-.2.8 0 .9-.4 1-1 .1-.5.2-2.3 0-2.8-.5-1.1-3.5-.8-4.4-.2zm-8.7-11.1c.6-.1 1.2-.2 1.8-.1.4.1.7.2 1 .5-.2-1.3-.5-2.6-.6-4 0-.5.6-2.8-.1-3-.2-.1-.5.2-.9.7-1 1.2-2.5 3.7-2.9 4.1.5 1.1.2 2 1.7 1.8zm47.4-64.2c-.2-.2-.5-.3-.7-.4H218l-.1.1c-.5.3-1 .6-1.5.7-.1.7 0 1.6 0 2.1 0 .6-.1 1.3.5 1.6.4.3 1.3.2 2.1.2.3 0 .7-.1 1-.2v.7c-.3 0-.8-.1-1.2-.1-.7-.1-1.5-.1-1.9.2-.8.5-.4 1.5-.4 2.2.1 1.4-.1 1.7.5 1.9l1.2.4c.6-1.5 1.8-2.8 1.8-4.6.2-.3.2-.5.2-.8.2-1.1.5-2.2.8-3.3-.5-.3-.8-.5-1.1-.7zm-30.4 9.6c-.7 0-1.4.1-2.1-.1-.3 1.2-.7 2.4-.9 3.6.4.3.7.6.9.9 1 .1 2.6.3 3.1-.5.2-.4.1-1.2.1-1.6 0-1 .3-2.3-1.1-2.3zm-13.9 76.1v.1c.1 0 .1 0 0-.1v-.1.1c-.2-1-1-.8-1.8-.8-.6 0-2-.3-2.5.3-.6.6-.5 2.4-.1 3.5.2.4.4.7.6.8v.1c1.3-.6 2.7-1.2 4-1.7-.3-.3-.4-.6-.4-.9.2-.5.3-.9.2-1.3zm14-30.9c-.9.1-1.9.1-2.8-.2-.1 1.7-.4 3.4 0 5 .1-1.2 3.1.2 3.7-.9.3-.6.2-2.1.2-2.7 0-.9-.1-1.3-1.1-1.2zm1-59.9c.1-.5-4.2-1-4.6.6.5 1.3 1.1 2.5 2 3.5.3-.1.6-.2 1-.3.2-.1.4 0 .5.2.4 0 .8 0 1-.3.6-.7-.1-2.8.1-3.7zm11.6 34.8c-1.5.4-.3 1.5-.9 2.4.1.1.2.2.2.3.4.1.8.2 1.2.4.6.3.9.8 1 1.3.7 0 1.5.2 1.9-.3.3-.4.3-3.4-.1-3.8-.5-.6-2.6-.5-3.3-.3zM73 170.5c-.7.1-1.5.1-2.2.1-.1.9-.1 2.1 0 2.5.2 1 .9.9 1.8.9 1.3.1 2.7.3 2.8-1.4-.4-.8-1.1-1.5-1.5-2.4-.3.2-.6.3-.9.3zm-5.3-11.1c-.8 1.2-1.5 2.4-2.2 3.6.3 1 1 1 1.8 1s2.2.3 2.7-.5c.3-.5.3-2.9 0-3.4-.3-.9-1.4-.2-2.3-.7zm15 18.2c.2.1.2.2.3.3.1.2-.2.4-.5.5-.5.2-1.1-.2-1.5-.3h-.1.1c0 1.2 2.7 1.4 3.6 1 .7-.3.8-1.1.7-1.8-.4-.1-.8-.4-.7-1v-.4c-1.5-1.1-2.6-2.6-3.8-3.9.1 2.1-.2 4.3 1.9 5.6zm106.9 1.9c-.9.3-1.9.1-2.8.1v1.1c0 1.1 0 2.2.2 3.3 1.3 0 3.3.6 3.6-1 .1-.4.1-1 .1-1.6.1-.9-.2-1.9-1.1-1.9zm.2 14.6c1.1-.4.8-1.2.8-2.3 0-.8.4-2.1-.8-2.1-.7 0-1.5.1-2.2-.2.1.9.2 1.8.4 2.9-.3-.3-.7-.7-1.1-1-.3-.2-.5-.5-.7-.7v.3c-.1.9-.3 2.5.3 3 .5.3 2.9.3 3.3.1zm-.5-24.4c-.6-.3-1.4.2-1.9-.5-.5 1.7-.6 3.3-.6 5 1.6-.8 3.7.7 3.8-1.7 0-.3.1-1.1.1-1.7 0-.4 0-.6-.1-.8-.3-.4-.8-.3-1.3-.3zm-128.1-15c-.8.5-.5 1.7-.5 2.5 0 2.1.9 1.8 2.7 1.8h.1c.6-1.3 1-2.7 1.3-4.2-.7-.3-2.9-.6-3.6-.1zM214.4 135h-.7c.2 0 .3 0 .5-.1h-.5c-.3 0-.4-.2-.4-.4v-.1c-1.2-.1-2.4-.1-2.4 1.2v.9c0 .7.1 1.6.4 2 .2.2.4.4.7.5.1-.1.2-.1.3-.1h1.4c-.1-.3-.4-.2-.7-.3.3 0 .6 0 .8.3h.3c.6-1.3 1.2-2.4 1.7-3.6-.6-.2-1.1-.3-1.4-.3.1 0 0 0 0 0zm-113.2 54.6h-.1c-.3 1-.8 4.3.6 4.5.8.1 2.3.3 3.1 0 1-.4.3-1 .8-1.7-1.2-1.5-2.9-2-4.4-2.8zm100.6-84.3c.1-.3.4-.5.6-.8-.3 0-.6 0-.9.1-.2.3-.2.6-.2.9.2-.2.2-.3.5-.2zm-.2-1.6.1.1h3.8c.4-.7.2-2.1.2-2.9h-1.1v-.9c-.5.2-.9.3-1.3.5 0 .1-.1.1-.2.1-.6.6-1.3 1.1-2.1 1.4v1.2h.1c.2.2.3.4.5.5zm1.2 5.1c1 0 2.6.4 2.9-.9.2-.7-.2-1.6-.2-2.3 0-.4.1-.8 0-1-.4 0-.8 0-1.2-.1-.2.1-.3.2-.4.3.2-.1.2-.2.2-.3h-1.6c-.2.3-.5.5-.6.8-.4-.1-.3 0-.6.3 0 1.7-.5 3.1 1.5 3.2zM177 194h1c-.5-1.5-1.1-2.9-1.6-4.4-.1.3-.2.8-.3 1.3-.1.8-.1 1.8.1 2.3.2.4.5.6.8.8zm.8.8h-1c-.2 0-.4.1-.6.3-.5.6-.2 2.2-.1 2.9 0 .3.1.5.1.6.2.1.3.3.3.5.3.2.7.2 1.4.2.8 0 1.9.2 2.5-.3l.3-.3c-.8-1.3-1.6-2.6-2.4-3.8-.1-.2-.3-.2-.5-.1zm-107.5-79c-1.6-.3-3.2-.5-4.7-.7-1.5-.2-3.3-.4-4.8-.6-.3 1 0 2.2 0 3.3 0 1.4.8 1.1 2.1 1 .9 0 1.9.3 2.2-.7.4-1-.3-1.9.4-2.9.8 1.8-.7 3.6 1.9 3.6.6 0 2 .3 2.5-.1s.4-2.3.4-2.9c.1 0 .1-.1 0 0 0-.1 0-.1 0 0zM48.5 164c1.9.2 1.7-1.4 1.6-3 0-1.8-1.5-1.4-3-1.4-.5 1.4-.6 2.9-.8 4.4.7 0 1.4-.1 2.2 0zm19.6 20.6c-1.9 0-2 .1-2.4 1.6v.3c1.3.9 2.5 1.9 4 2.8l.1-.1c.5-.5.6-1.5.6-2.5 0-.6-.1-1.1-.2-1.4-.4-.9-1.2-.7-2.1-.7zm6-50.7c.1-.6.1-1.1.1-1.7-.2-.9-.3-1.8-.5-2.7h-2c-.7 0-.8.3-1 .9-.1.4-.1 2.4 0 2.8.4 1.1 2.2.8 3.4.7zm95.5 70.9h-2.1c-.1.1-.2.1-.3.2h-.7c.3 1 .6 2.9 1.2 4 .3.1.6.1.8.2.6-.2 1.6.4 1.9-.8v-.1c.1-.5.1-1 .2-1.4.1-1.1-.1-2.2-1-2.1zm20.1-20.1H187c.2 1.5.4 3.1.6 4.6 1.1-.5 2.6.4 3-1 .2-.9.4-3.6-.9-3.6zm.8-18.7v-.5c0-.3-.1-.5-.5-.5h-.2c-1 .4-1.9 1.1-2.2 2.3 0 0 0 .1-.1.2-.1.5-.2 1-.2 1.6.8-.1 2.4.2 3.1-.5-.1-.7-.1-1.3-.1-1.9.1-.2.2-.5.2-.7zm13.1-11.4c.4.6 1.9 2.2 1 2.4-.3 0-1.1-.6-1.3-.7-.7-.3-1.3-.6-2-.7v.4c0 .1 0 .3-.1.4-.1.9-.1 2.1.5 2.5.6.4 3 .4 3.5-.1.7-.5.6-2.6.4-3.4-.2-1.1-1-.8-2-.8zm-156.1 0c-.1.5-.4 1-.7 1.5l.2 2.7V159.1c1.7 0 3 .4 3-1.6 0-.8.3-2.2-.4-2.7-.5-.6-1.4-.1-2.1-.2zm29.3 20c-.1-.1-.1-.1-.2-.1-1 .5-1.5 3.7-.5 4.5.4.3 1.3.2 1.8.2 1.1 0 2.3.2 2.5-1.2-1.4-.9-2.5-2.3-3.8-3.4.1-.1.2 0 .2 0zm31 20s-.1 0 0 0c-.6.3-1.2 0-1.6.5-.4.5-.2 1.8-.3 2.4-.1 1.8.6 1.5 1.6 1.7.1 0 .2 0 .3.1.2.1.5.2.7.2h.2c.6-1 .9-1.7.8-2.3-.1-1-.6-1.7-1.7-2.6zm111.6-84.4c-.1.1-.1.1-.3.2h-.1c-.4.1-1.3-.1-1.6.2-.3.3-.3.9-.4 1.3l-.2.7c0 .1 0 .2-.1.3.9.3 2.3.9 2.8.5.3-.2.4-1.5.4-1.8 0-.3.1-.6.1-.9-.2-.3-.2-.7-.3-1.1h-.1c.2.2.1.5-.2.6zM99.7 194c.7-.9.8-3.2-.4-3.5-.2.1-.3.2-.5.2-.3 0-.5 0-.8.1h-.8c-.4.5-.8 1.1-1.2 1.6.2.4.1 1-.3 1.3-.1.2-.2.4-.4.5v.1c1.3.2 3.9.5 4.4-.3zm90.1-69.6c-.1 0-.1.1-.2.1-.2 0-.4.1-.7.1-.1.3-.4.5-.7.5 0 .1 0 .1-.1.2v.1c0 1.2-.3 2.4-.6 3.6 1.1 0 2.6.3 3-.8.3-.9.5-3.7-.7-3.8zm.8-2.3c0-.6.3-1.9-.1-2.4-.2-.3-.7-.3-1.1-.3 0 0-.1.1-.2.1-.2.1-.4.1-.6.2.7 1.3 1.2 2.6.4 3.9v.1c.2 0 .4 0 .6-.1H189.9c.5-.1.7-.3.7-1.5zm25.1-11.8c0-.9-1-1-1.9-1-.5 0-1 .1-1.3.1-1.2.1-1.5 1.2-1.3 2.3 0 .4.2.8.4 1.1 1.3-1.3 2.8-.6 4.4-.3-.1-.2-.1-.3-.2-.5-.1-.5-.1-1.1-.1-1.7zm-31.3 78.8h.6c-1-1.2-1.4-3.1-1.9-4.6-.2 0-.4.1-.6.3-.2.2-.5.1-.6 0-.7.1-.8 1-.8 1.9 0 .7.2 1.4.2 1.7.2 1.1 1.9.8 3.1.7zm4.1-50c.6-.4 1.3.1 1.9-.5.5-.6.2-2.4.3-3.1.1-1.4-1.8-.9-2.9-.8v.3c0 .2-.1.4-.2.6.2 1.2.5 2.3.9 3.5zm12.2 26.7c0-.1-.1-.2 0-.2.1-1.5-2.7-1-3.6-.9.9 1.4 1.1 2.9 1.8 4.4h-.2c.6 0 1.5.2 1.9-.4.4-.6.1-2.1.1-2.9zM72.1 124.4c-1.7-.2-1.3 1.8-1.3 3 0 2.1 1.5 1 3 1.7-.3-1.7-.7-3.5-1-5.2-.1.4-.3.6-.7.5zm98 64.5c.6-.5.4-1.4.4-2.1h.1c0-1 0-1.6-.4-1.9-.1 0-.1-.2-.2-.2h-1.2c-.5 1.4-1 2.8-1.4 4.2.6.2 2.1.5 2.7 0zm-79.9 21.8c0 .2 0 .4 0 0-.1-.3 0-.2 0 0-.1-1.2-1.8-1-3-.9-.1.2-.3.3-.6.2-.1 0-.1-.1-.2-.1 0 .5-.1 1 0 1.4v.2c.1.4.2.7.6 1 .8.5 2.5.6 3.4.8 0-.1-.1-.2-.1-.2-.3-.9-.1-1.7-.1-2.4zM71 168.6c.6 0 1.1 0 1.7-.1.3-.1.5-.2.8-.3-.1-1-.3-1.9-.5-2.8-.2-.2-.4-.4-.5-.6-.1-.1-.1-.2-.2-.3-.6.1-1.2.2-1.5.7-.3.6-.1 2-.1 2.7.1.3.2.5.3.7zm118.8 31.1c-.8.1-2.7-.4-3.3.2-.3.3-.4 1.3-.4 2.2 0 .4.1.8.1 1l3.9-1.8c.1-.4.2-.7.5-1 0-.1-.1-.2-.1-.3-.1-.1-.3-.3-.7-.3zm26.9-91.2c.3.3.8.3 1.3.3 0-.1.1-.1.2-.2.2-.1.4-.1.5-.2h.2c-.4-.5-.5-1.1-.5-1.7-.2-.7 0-1.4.6-2.1 0-.1.1-.3.1-.4-.4 0-.8-.1-1.3-.1-.2 0-.4 0-.6.1-1 .3-.9.8-.9 1.8 0 .9-.2 2 .4 2.5zM71.2 118.6c.3 0 .5 0 .7-.1h.2c-.1-.6-.3-1.1-.4-1.5-.2-.4-.3-.7-.5-.9-.1-.1-.2-.1-.4-.2.1.6-.1 1.1-.1 1.6 0 .3.3.7.5 1.1zm-.4 3.3v.1-.1.6-.4c0 1.8.1 1.8 2 1.8v-.3c-.1-.9-.3-2.6-.6-4.2H72c-.2.1-.5.1-.7.1-.2.2-.4.4-.5.7-.2.4 0 1.1 0 1.7zm-5.1 25.6c0 .1 0 .1 0 0 0 .7.2 1.1.7 1.3 0-.3.1-.5.2-.7v-.2c.3-1.1.7-2.1 1.3-2.9-.9.2-1.7 0-1.7 1.4v-.3.3c0 .5 0 1 .2 1.5-.1-.1-.1-.1-.1-.2-.2-.5-.3-1.4-.1-1.8.3-.9 1-.7 1.7-.9.1-.1.2-.3.3-.4-.7 0-1.9-.1-2.2.1-.1.1-.3.2-.3.4-.2.6 0 1.9 0 2.4zm6.5 42.2c-.5 0-1-.1-1.4.3 0 0 0 .1-.1.1 1.3 1.2 2.7 2.1 4.1 3.1.1 0 .2.1.3.1 0-.5.1-1.1.1-1.6 0-.6 0-1.1-.3-1.5-.5-.7-1.9-.5-2.7-.5zm-.8-50.4c.6-1.6 1.5-3 2.6-4.2 0-.1 0-.2.1-.3v-.3c-.8 0-1.6-.1-2.4.1-1.5.4-1.1 3.5-.4 4.5 0 .2 0 .2.1.2zm23.7 55.6c-1.2 1.5-2.5 2.8-3.8 4.2 1 0 3.2.5 3.9-.4.5-.6.2-2.7.2-3.7-.2 0-.3 0-.3-.1zm96.4-29.6c0 .5-.2.9-.2 1.3-.1.6 0 1.2.1 1.8.2.4.5.6.9.6h3c-1.2-1.3-2.3-2.8-3.8-3.7zm-10.3 18.4c.1.2.2.3.3.3.1.1.3.1.4.1l.2-.2c.1-.1.3-.2.4-.2-.3-.2-.5-.5-.7-.9-.1-.2-.2-.5-.2-.8 0 .3 0 .5.2.7.2.4.4.7.7.9.1 0 .2-.1.4-.1-.6-2.6-.8-5.2-.7-7.8-.1 0-.2.1-.3.1-.2 1.1-.4 2.3-.6 3.5l-.3 1.5v.9c0-.3 0-.4.1-.4.7.5-.3 1.7.1 2.4zm-1.3 21.2h-.1c0-.1 0-.1.1 0l-.1-.1c-.9-.1-2.8-.5-3.5.5-.2.3-.2.8-.2 1.3 0 .4.1.8.1 1.1 1.5-.7 2.9-1.3 4.4-2-.2-.4-.3-.7-.7-.8zm10.7-63.5c0-1.7-.5-1.6-2-2.1.4 1.4.8 2.8.8 4.3 0 .6 0 1.3.2 1.7.1.3.3.5.7.6v-.3c0-.1.1-.2.1-.3-.2-.4-.5-.8-.3-1.4.1-.4.5-.6.6-1.1.1-.4-.1-.9-.1-1.4zm-118.4 18c-1.2.4-1.5 1.1-1.5 2.3 0 1.5.3 2.1 1.5 2.3-.1-.5.1-1 .4-1.4-.1-1.1-.3-2.2-.4-3.2zm145.2-55.7H218.3c.3 0 .7.1 1 .2l.2-.4c-.5-1.1-2.8-3.3-3.2-3.7.1.2.1.4.1.7 0 .6-.2 1.2-.2 1.7h-.1c.1 1.3.6 1.5 1.3 1.5zM59 180.1c-.7 0-1.3-.1-1.9-.1.3.4.6.7.9 1.2.2.3.3.5.4.8.6.4 1.1.8 1.7 1.2 0 0 .1.3.1.5 0-.3 0-.7.1-1.1-.1-1.3-.1-2.6-1.3-2.5zm-4.3-10.7c-.6 1.5-1.4 3-1.8 4.6.5 0 1.5.1 1.9-.2.5-.4.3-1.3.3-2.1 0-.6.2-1.8-.4-2.3zm17.6-15h-.2c-.4.2-.9.1-1.2.6-.3.5 0 1.5-.1 2.1 0 1.4-.1 1.6 1.3 2.1-.3-.7-.8-1.1-.8-1.9 0 .7.5 1.2.8 1.8.1-1.5 0-3.1.2-4.7zm-26.4 15.2c.1.6 1.9 1.6 3.2 2 .1-.1.2-.1.2-.2.2-.2.4-.5.6-.8.1-.1.1-.2.2-.3-.5-1.2-3.2-.7-4.2-.7zm166.2-30.1s-.1.1-.1 0c-.5.2-.7.5-.7 1.5v.9c0 .9.1 1.7.2 2.6.7-1.6 1.3-3.2 2-5h-1.4zM53.9 174.6c-.4 0-.8 0-1.1-.4-.2.3-.2.6-.1.9.1.4.3.8.5 1.2.3.3.6.6.8 1 .1.1.2.3.4.4l.6.6c.2-1.3.6-3.8-1.1-3.7zm49.2 40.2h-.4c-.9 0-1.8.1-2.2 1.1 0 .1-.1.1-.1.2.5.3 2.1 1.1 2.7.9.7-.3.8-1.7.9-2.3h-.1c-.2 0-.5.1-.8.1zM86.5 179c.6.3 1.8.2 2.7.1l-.2-.2c-.2 0-.3 0-.4-.1h.4c-.1-.2-.3-.4-.4-.7l-2.4-1.2c-.1.1-.2.2-.3.2.4 1 1.2 1.6 2.4 1.6-1.1 0-2-.6-2.4-1.5-.1 0-.1 0-.2.1 0 .7.1 1.4.8 1.7zm4.7 9.8c.2.3.5.5.7.8-1 .3-.8.9-.8 1.8 0 .5-.3 1.3-.2 1.9.1.4.2.7.6.8.1-.4.1-.6.1-.7.1-.8.2-2.2.3-3v-.7c.1-.1.1-.3.1-.4v-.2c.1-.7.2-1.5.2-2.2 0-.5 0-.9-.1-1.4-.4-.1-.6-.4-.7-.7-.3.2-.4.4-.5.7 0 .1-.1.2-.1.3v1.3c0 .6.1 1.2.4 1.7zm107.5-85h.1-.1c1.1-.1 1.5-.3 1.7-.8v-.8c-.5.1-1.1.2-1.6.3-.4.2-.8.3-1.2.5-.5.2-1 .4-1.4.6 0 0 0 .1-.1.1.8.2 1.6.2 2.6.1-.1.1-.1 0 0 0zm.1 66.7c.6 1.3 1 2.6 1 4.2.9-.7.9-2.2.7-3.2-.1-1-.7-1-1.7-1zM46.5 113v.2c.2.8 1.5.7 2.2.7.9 0 1.4-.8 2.2-.9 0 .5.3.8.8.8 1.2.2 2.3-.2 3.4-.2-.1-.1-.3-.1-.4-.1-1.3-.3-2.5-.4-3.8-.5-1.5-.4-3-.4-4.5-.8.1.3.1.5.1.8zm143.1 41.6h-2.4l3.3 2.6v-.5c0-.2 0-.3.1-.3.1-1 0-1.9-1-1.8zM78.9 195.1c-.5.1-1.1-.1-1.6-.1h-.1c.1.1.2.2.2.4 0 0 0 .1.1.1.6.6 1.1 1.1 1.7 1.6.2 0 .4.1.6.1v-.4c0-.2.1-.3.3-.4 0-.8-.2-1.4-1.2-1.3zm134.3-96.3c.6-.1 1.2 0 1.8 0h.3c-.5-.7-1.1-1.2-1.6-1.4-.8-.3-1.6-.1-2.6.5.5.8 1.3.9 2.1.9zM68 159c1.3 0 2.2.2 2.2-1.3v-2c-.1 0-.1.1-.2.1-.8 1-1.4 2.1-2 3.2zm128.3 12.3c-.1.7-.3 1.5 0 2 .2.4.7.5 1.1.6.3.1.6.1.8.2-.4-1.3-1-2.4-1.8-3.4 0 .2 0 .4-.1.6zm-.1 24.7v2.6l.5-.5c.1-.1.2-.2.3-.2 0-.1 0-.3-.1-.5 0-1 .3-2.4.3-2.9-.6.2-.9.8-1 1.5zm20.1-65.5c0 .2-.1.3-.1.5v-.1.1c0 .2 0 .1 0 0v1.7c.6-1 1.1-2.2 1.5-3.2-.6 0-1 0-1.2.2-.1.1-.2.3-.2.8zM99.1 214.8c-.6-.1-1.1 0-1.7 0h-.6c1.1.5 2.2.9 3.4 1.2v-.4c.1-.6-.3-.9-1.1-.8zm100-65.2h-.7c.7.7 1.4 1.2 2.2 1.8.3-1.5.1-1.8-1.5-1.8zM63.8 185.2h-.1c-.1 0-.2-.1-.3-.1.1.1.2.2.2.3.5.4.9 1 1.5 1.3v.2c0-.3 0-.6-.1-.8 0-.7-.3-.9-1.2-.9zm43.5 9c-.2-.3-.5-.6-.8-.9-.2-.1-.5-.3-.6-.5l-.1-.1c.1 1.4.2 1.4 1.5 1.5zm-19.3 10c2 0 2.1-.4 2.2-2.3v-.4c0-1.5-.5-1.6-2.2-1.6-1.6 0-2.2.1-2.3 1.8v.5c0 .6 0 1 .2 1.3.2.3.4.5.8.6.4.1.8.1 1.3.1zm-20-79.7h-.3c-1.6 0-1.9.4-1.9 2.2v.1h-.1c0 1.8.3 2.2 2.2 2.2 2 0 2.2-.3 2.3-2.2.2-2-.3-2.3-2.2-2.3zm-2.2 53c0 1-.1 1.4.9 1.6.7.1 1.8.1 2.4 0 1.3-.2 1-1.2 1-2.3 0-1.4 0-2-1.5-2.1-.7 0-2.1-.3-2.6.2-.6.5-.2 1.9-.2 2.6zm-2.9-7.8c-1.9 0-2.1.2-2.1 2.1 0 1.4-.1 2.1 1.4 2.2.7.1 2 .3 2.6-.1.5-.4.4-1.5.5-2.1v-.3c0-1.6-.7-1.8-2.4-1.8zm35.9 30.1c-.6 0-2.2-.3-2.6.2-.7.6-.3 2.1-.3 2.8-.1 1.7 1.2 1.5 2.5 1.4 1.2 0 1.8 0 1.9-1.3.1-1.6.4-3.1-1.5-3.1zM55.7 127c.1 2 1 1.9 2.8 1.8 1.4 0 1.6-.5 1.6-1.5v-.9c0-2-.3-2-2.2-2-1.9 0-2.2.4-2.2 2v.6zm2.2 32c1.8.1 2.2-.2 2.2-2v-.3c0-1.7-.2-2.1-2.1-2.1-1.9 0-2.1.3-2.2 2.1v.6c0 1.5.4 1.6 2.1 1.7zm37.4 43c0-1.4.1-2.2-1.5-2.3-.7 0-1.9-.2-2.5.2-.3.3-.4.7-.4 1.2v1.4c0 1.4.4 1.6 1.7 1.7h.5c1.9 0 2.2-.3 2.2-2.2zm-29.6-64.8c0 1.9 1 1.7 2.7 1.7 1.7 0 1.7-.3 1.7-1.9 0-2 0-2.6-2.2-2.5-2.1.1-2.2.6-2.2 2.7zm-5.6 24.5c-.2-1.8-.4-2.1-2.2-2.1-1.9 0-2.2.3-2.2 2.2 0 1.7.3 2.1 1.9 2.2h.4c2 0 2.3-.3 2.1-2.3zm2.8-32.7c2 0 2.3-.3 2.3-2.3 0-2-.4-2.3-2.4-2.3-1.9 0-2 .5-2 2.3-.1 2.1 0 2.3 2.1 2.3zm35.3 70.2c1.9 0 2.1-.3 2.1-2.2 0-1.7 0-2.2-1.8-2.3h-.8c-1.5 0-2 .2-2 2.1h.1c0 2.1.4 2.4 2.4 2.4zm-35.3-79.7c-2 0-2.1.6-2.2 2.5v.2c0 1.8.8 1.7 2.6 1.8 1.8 0 1.9-.6 1.9-2v-.6c-.1-2-.5-1.9-2.3-1.9zm42.3 75.6c-.4-.6-1.3-.3-1.8-.3-1.9.1-2.8-.3-2.8 1.9 0 2 .4 2.4 2.4 2.4h.3c1.5 0 1.9-.1 1.9-1.8 0-.3.1-1 .1-1.5 0-.2 0-.5-.1-.7zm-14.9 1.3v.6c0-2-.3-2.3-2.2-2.3-1.9 0-2.2.3-2.2 2.2 0 1.6.1 2.2 1.8 2.3h.6c1.6 0 2.1-.2 2.1-2.2-.1-.3-.1-.5-.1-.6zM73 179.7c-2 0-2.2.3-2.2 2.2 0 2.1.5 2.2 2.6 2.2 1.7 0 1.8-.6 1.8-2.2 0-1.9-.3-2.2-2.2-2.2zm5.1 5h-.8c-1.2 0-1.5.3-1.5 1.8-.1 2-.1 2.7 2.1 2.8.5 0 1.7.2 2.1-.3.4-.5.1-1.9.2-2.5.2-2-.4-1.8-2.1-1.8zm-20.7-35.8h1.2c1.2 0 1.5-.2 1.5-1.8 0-2-.4-2.6-2.5-2.6-1.9 0-1.9.6-1.9 2.3 0 1.8.2 2.1 1.7 2.1zm10.7 30.9c-2 0-2.3.2-2.3 2.2v.3c0 1.7.5 1.9 2.4 1.8 1.9 0 2-.5 2.1-2.3v-.3c-.1-1.6-.4-2-2.2-1.7zm1.5-9.8c-.3-.2-.8-.2-1.6-.2-1.7 0-2.3 0-2.2 1.8 0 1.9.2 2.5 2.2 2.5s2.3-.3 2.2-2.3v-.3c0-.4-.1-.7-.1-1-.3-.1-.4-.3-.5-.5zm-3.9-49.3c-.1.5-.2 2.2.1 2.7.5.8 2.3.6 3.2.5 1.5-.2 1.2-1.4 1.2-2.6-.1-1.8-.6-1.8-2.3-1.7-1.3 0-2-.6-2.2 1.1zm16.6 63.4c1.6.1 2.8.3 2.9-1.5.1-2 .1-2.7-1.9-2.9-1.6-.1-2.4-.3-2.5 1.4-.1 1.6-.3 2.9 1.5 3zm-13.7-19.5h-.7c-2.1 0-2.3 1.1-2.1 3.1.2 1.6 1.3 1.4 2.7 1.3.6 0 1.2.1 1.6-.4.4-.6.2-1.9.2-2.5-.1-1.3-.7-1.5-1.7-1.5zM87 179.7c-1.4 0-1.1.8-1.1 1.9 0 .9-.4 2.1.7 2.5.6.2 2.5.2 3.1 0 .9-.4.6-1.3.5-2.1 0-.3.1-.6.1-1v-.5c-.2-.3-.4-.5-.6-.7-.8-.4-2.1-.1-2.7-.1zm10.2 30.1c-1.7.2-1.5 1.5-1.4 3 .1 1.7 1.2 1.5 2.7 1.5 1.9-.1 1.9-.7 1.7-2.5-.2-2.1-1-2.2-3-2zM68 129.5c-1.8 0-2.1.3-2.2 2.1v.7c0 1.4.4 1.7 2.2 1.7 2 0 2.2-.3 2.2-2.2-.1-2-.3-2.3-2.2-2.3zm-10 14.4c1.9 0 2.2-.3 2.2-2.2 0-2-.1-2.2-2.1-2.2s-2.2.3-2.3 2.2c0 1.9.3 2.2 2.2 2.2zm30.2 40.9c-.6 0-1.5-.2-2 .4-.4.4-.4 1.7-.4 2.2-.2 2.1 1.1 1.7 2.9 1.6 1.6-.1 1.5-.2 1.5-1.8.1-1.9 0-2.4-2-2.4zM52.4 164c.3 0 .7.1 1 .1.9 0 1.6-.1 1.7-1.3.2-1.6.4-3.1-1.5-3.1h-.3c-.3 0-.9-.1-1.4-.1-.5 0-.8.1-1 .2-.4.4-.2 1.4-.2 1.9 0 1.8.1 2.2 1.7 2.3zm1.6-19.5c-.8 0-2.2-.3-2.9.1-.8.5-.4 1.5-.4 2.3 0 1.8 0 2 1.8 2.1 1 0 2 .2 2.4-.8.5-1 .7-3.7-.9-3.7zm50.9 60.5c-.3-.3-.7-.4-1-.4-.2 0-.5.1-.8.1-.7.1-1.8-.3-2.2.6-.2.5 0 1.8 0 2.4-.1 1.4.7 1.5 1.9 1.4.8 0 1.6 0 2.1-.3 0-.5-.1-1 0-1.4V205zm-31.8-30.3c-2.1 0-2.2.5-2.3 2.5-.1 1.8.5 1.9 2.1 1.9 1.7 0 2.2-.1 2.3-1.9 0-2 0-2.5-2.1-2.5zM58 179.1c1.9 0 2-.5 2.1-2.3.2-1.9-.2-2.1-2.1-2.1-2.2 0-2.3.6-2.3 2.7 0 1.8.5 1.7 2.3 1.7zm7.2-43.5c0-.6-.2-1.1-1.1-1.1-1.1 0-2.9-.7-3.3.7-.1.2 0 .4 0 .7 0 .5.1 1.1.1 1.5 0 .1-.1.2-.1.3 0 .4 0 .7.3 1 .5.5 2.8.4 3.4.2.6-.2.7-.6.7-1.1 0-.3-.1-.6-.1-1s.1-.8.1-1.2zm-7.4-11.7h.5c1.7 0 1.8-.2 1.8-2.2 0-2.1-.5-2.2-2.6-2.3-1.7 0-1.8.6-1.8 2.2 0 1.9.3 2.2 2.1 2.3zm2.1 40.9c-.5-.4-1.8-.1-2.4-.1-1.7.1-1.9.2-1.8 1.9 0 .5-.2 1.9.3 2.3.4.4 1.4.2 1.9.2h.6c1.6-.1 1.8-.6 1.7-2.4 0-.6.1-1.6-.3-1.9zM55.7 132c.1.5.2 1.5.6 1.9.5.4 1.3 0 1.9.1.1 0 .2.1.3.1h.1c.1-.1.2-.2.4-.2h.8v-.1c.2-.6.5-1.2.5-1.6.1-.6.1-1.4-.3-2-.6-1-2-.8-3-.6-1.3.1-1.4 1-1.3 2.4zm.7 6.9c.8.3 3.2.4 3.6-.5.2-.3.3-.9.3-1.6 0-.9-.1-1.9-.5-2.2H59c-.1 0-.2 0-.3-.1-1-.1-2.5-.3-2.9.6-.2.3-.2.8-.2 1.3-.1 1.1.2 2.3.8 2.5zM78 179.7c-1 0-1.9-.2-2.2.9-.2.7-.2 2.7.4 3.2.5.5 2.3.4 3 .3 1.2-.2 1.1-1.1 1-2.2.1-2.6-.1-2.2-2.2-2.2zm5 14.4c1.9 0 2.3-.2 2.3-2.1 0-1.8-.2-2.2-2-2.3-1.9 0-2.4 0-2.4 2-.1 2 0 2.4 2.1 2.4zm-22-54.4c-.6.5-.7 2.4-.7 3.1.1 1.3.2 1.3 1.5 1.3v-.1h1.9c1 0 1.1-.9 1.1-1.6 0-.6.4-2.2-.1-2.6-.3-.5-3.2-.6-3.7-.1zm-.9 11.7c0-1 .3-1.9-1-1.9-1.9.1-3.2-.5-3.3 1.8-.1 1.9-.1 2.6 2 2.6.5 0 1.7.2 2.1-.2.5-.4.2-1.7.2-2.3zm28.3 42.9c1.7-.1 1.8-.7 1.8-2.1v-.6c0-1.8-.4-1.9-2.2-1.9-2.1 0-2 .4-2.1 2.2 0 .4-.1.8-.2 1.2 0 .4 0 .7.3.9.6.5 1.9.3 2.4.3zm-25.3-19.7c-1.4 0-2.4-.2-2.3 1.5 0 .4.2.8.2 1.2 0 .3-.2.8-.1 1 .3 1 2.1.8 3 .7 1.7-.1 1.3-.9 1.4-2.3 0-1.9-.3-2.1-2.2-2.1zm-11.2-35.7c1 .1 2.9.4 3.2-.8.2-.7 0-1.7.1-2.4 0-.6.1-1.1-.7-1.1-.9 0-1.7.2-2.2 0-1.4-.3-1.6.5-1.5 1.7 0 1.3-.5 2.5 1.1 2.6zm46.9 65.9c-.6 0-2-.3-2.5.1-.8.6-.3 1.7-.3 2.6 0 .3-.1.5-.1.6v-.4c-.1 1.9 1.1 1.6 2.9 1.5 1.7-.1 1.4-.6 1.4-2.1.1-1.5.1-2.2-1.4-2.3zm-45-75.3c-.7.1-1.6-.2-2.3 0-1.1.2-.9 1.4-.9 2.3.1 1.7-.1 2 1.7 2 1.2 0 2.4.6 2.7-.8.4-1.1.5-3.7-1.2-3.5zm-3.2-12.6c0 .4 0 .8.1 1 .1.9.6 1.1 1.4 1.1h.4c2.2 0 2.6 0 2.6-2.3 0-.9 0-1.6-.9-1.9-.7-.3-2.5-.7-3.1 0-.4.2-.5 1.3-.5 2.1zm4.3 10.6h.2c0-1 .3-2.3-.8-2.6-.8-.3-3.2-.5-3.5.3-.2.5-.1 1.5-.1 2 0 .3-.1 1 0 1.3.3.7.9.8 1.6.7v-.1c2 0 2.6.7 2.6-1.6zm-3.6 31.4c.5.3 2.9.4 3.4 0 .7-.6.3-2.7.3-3.5 0-1-1.6-.7-2.3-.7-.6 0-1.6-.3-2 .3-.4.6-.1 3.5.6 3.9zm-5.2-40.3c.2.2.5.3 1 .3.7.1 2.1.3 2.6-.1.6-.5.4-1.6.4-2.4 0-.7.2-1.5-.5-1.9-.7-.4-2.7-.1-3.5-.1-.2.2-.2.5-.2.8.1.6-.1 1.3-.2 1.9.2.4.3.9.4 1.5zm39.1 67.5c0-1.4-.6-1.6-2.2-1.6-1.7 0-2.3.2-2.3 1.7v.4c.1 1.9.3 2.4 2.2 2.5.5 0 1.6.2 2-.3.2-.2.2-.7.2-1.1v-1.2c.1-.1.1-.3.1-.4zm-20.1-38.8c0-1.7.2-2.7-1.7-2.7-1.5-.1-2.5-.4-2.6 1.2-.2 2-.4 2.8 1.7 3.1 1.8.1 2.6.4 2.6-1.6zM53 149.6c-2.3 0-2.1.5-2.2 2.5 0 .2-.1.4-.1.6 0 1.3.6 1.4 2.3 1.4 1.6 0 2.1-.3 2.1-1.7v-.3c-.1-1.9-.2-2.5-2.2-2.5h.1zm3.8 24.4c1 0 2.4.3 2.8-.7.3-.6.5-1.8.4-2.4-.4-1.5-1.8-1.4-3-1.4-1.7 0-1.6 2.1-1.6 3.3.1 1.4.4 1.2 1.4 1.2zm-5.7-29.8c.6.4 2.9.1 3.5-.4.8-.7 1-4.4-.5-4.3-.7 0-2.5.1-3.1.5-.6.4-.4 1.8-.4 2.5.1.8-.1 1.3.5 1.7zm13.3-14.6c-.7-.3-3-.3-3.5.4-.3.5-.2 2-.2 2.6 0 .7.1 1.3 1 1.3.7 0 2.3.2 2.9-.1.7-.4.5-1.5.6-2.3 0-.8.1-1.6-.8-1.9zm.8 21.9c0-1.3-.2-1.9-1.8-2-1.4 0-2.8-.3-2.8 1.4.3 1.8.3 2.9 2.2 3l-.1-.1H64c.4 0 .7-.1.9-.3.3-.3.4-.7.4-1.5-.1-.1-.1-.3-.1-.5zm28.5 53.3h-.2c-1.6.1-2.4 0-2.5 1.8-.1 1.5-.4 2.7 1.4 2.7 1.4 0 2.7.1 2.9-1.4.2-1.9.2-3.1-1.6-3.1zM70.8 187c.2 1.8.7 2 2.4 2.1 1.6.1 2.1-.4 2-2-.2-1.9-.4-2.4-2.4-2.4-1.8 0-2.1.4-2 2.3zm-23.1-63.3c.3.3 1.4.3 1.8.1.9-.4 1-4.3 0-4.3-1.1 0-2.2-.3-3.2.2.3.6.7 1.2 1 1.8.5.6-.2 1.7.4 2.2zm1 15.8c-1.7 0-1.4 1-1.4 2.5s.1 2.2 1.8 1.9c1.4-.2 1-1.6 1-2.7 0-1.3-.1-1.7-1.4-1.7zm.5 5c-.1 0-.3 0-.4-.1h-.1.1c-.7-.1-1.2 0-1.4.8-.3.7-.4 3 .3 3.5.9.7 2.3.1 2.5-.9.1-.9.3-3-1-3.3zm-.6 9.5c2 0 1.5-1.8 1.5-3.4 0-1-1.8-1.6-2.5-.9-.4.4-.4 1.3-.4 2 .4.6.5 1.4.4 2.2.2 0 .5.1 1 .1zm1.5-18.6c0-.9-1.1-1.1-1.9-.8-.8.4-.6 1.1-1 1.8v.8c.1 1.3.2 1.7 1.6 1.7 1.9-.1 1.3-2 1.3-3.5zm-2.2-6.2c.3.2 1.5.2 1.8 0 .4-.2.6-1.2.6-2.2 0-1-.2-1.9-.7-2 .1 0 .1 0 0 0v-.1c-.1 0-.2-.1-.4-.1h-.1.1c-1.5-.2-1.7 1.3-1.7 2.7 0 .8-.2 1.3.4 1.7zm1.1.3c-.9 0-1.4 0-1.6 1-.1.9-.4 3 .6 3.4.9.4 1.8-.2 2-1 .3-1.1.6-3.4-1-3.4zm11.9 39.2c.5.6 3.2.6 3.7.3 1.1-.6.6-3.6.3-4.6-.7 1.3-1.3 2.6-2 3.9l-.2-.1v-.2c.1-2.5.3-5.1.4-7.6.1-.3.2-.5.2-.8 0 0-.1 0-.1.1-.1.1-.3.1-.4.2.1 0-.2-.1-.2-.2-.4 0-1.3-.1-2.1-.1v.1c0 .1.1.1-.1.2-.4.7-.3 2.8.1 3.6.4.7 1.4.6 2.1.6-.1 1-.8.4-1.4.6-.8.3-.2.1-.3.7 0 .6-.7 2.5 0 3.3zm132.8-50.1c.2 0 .3.1.4.3h.5c.9-.2 1-.4 1-1.3 0-.6.2-1.7 0-2.3-.3-.9-.8-.6-1.6-.6-1.4 0-2.7-.6-2.8 1.2 0 .9-.3 2.2.3 2.9.8-.2 1.5-.2 2.2-.2zm1.6 1c-.2-.2-1.3 0-1.9-.2h-1.8c-.6.5-.5 1.2-.4 1.8.3 1.3-.6 2.4 1.2 2.6 1.3.1 2.9.5 3.1-1 .3-.6.5-2.8-.2-3.2zm14.3 19.9c-.4 0-.7.1-1 .1-.3 0-.7-.1-1.1-.1-.4 0-.8 0-1 .3-.5.5-.2 2-.2 2.6-.1.4-.2.5-.3.5-.2 0-.4-1-.4-1.3 0-1.4 0-1.9-1.5-2H203c-.8 0-1.6.2-1.8 1-.2.8-.2 2.9.6 3.4 1.4.9 3.7-.7 5.3.1.7 0 2.4.3 3.1-.1.7-.4.6-.9.6-1.6 0-.6.4-1.9 0-2.4-.3-.4-.7-.5-1.2-.5zm-3.4-27.1v-.4c0 .1.1.3.1.4 0 .8-.1 1.2.6 1.4.2.1.6.1.9.1.6 0 1.3-.1 1.7-.2.6-.1.9-.6 1.1-1.1h-.1c.1-.3 0-.4 0-.7.3-.6 0-1.1-.1-1.6-.1-.8-.5-1.1-1.2-1.1-.5 0-1.1.1-1.7.2-1.4.2-1.4.9-1.6 2 .3.4.3.7.3 1zm-2.7 51.6c1.8 0 2.2-.3 2.2-2.1 0-2-.3-2.3-2.2-2.3-1.9 0-2.2.4-2.2 2v.6c0 1.7.5 1.8 2.2 1.8zm-4.7-49.6c-1.5 0-2.5-.3-2.6 1.4 0 .4-.1.8-.1 1.1 0 1.1.2 1.9 1.7 1.9 1.6 0 2.7 0 2.8-1.8v-1c.1-1-.2-1.6-1.8-1.6zm3.9 34.6c.6 0 2.1.2 2.6-.2.8-.5.4-1.5.5-2.2v-.7.1c0-1-.3-1.5-1.6-1.5-1.1 0-2.5-.3-2.9 1-.4 1.5-.3 3.3 1.4 3.5zm-10.4-35.2c1 .1 3 .5 3-.9 0 .1.2.1.2 0 0-.2.2-.3.1-.5 0-.6.3-2.4-.4-2.7-.4-.5-2.2-.6-3.3-.2h.2c-.2 0-.3.1-.4.1l-.1.1c-.1.2-.2.4-.4.5v.1c-.3.8-.2 2-.3 2.8-.3 1.1.7.7 1.4.7zm16 5.6c-.7 0-1.5-.1-1.9.6-.3.6-.3 1.9-.2 2.5.1 1.7 1.5 1.4 3 1.4 1.8-.1 1.5-1.3 1.5-2.8 0-1.9-.7-1.6-2.4-1.7zm-8.6 20.2c-.4-.1-1.2-.2-1.9-.2-.6 0-1.1.1-1.3.4-.5.6-.4 2.6-.2 3.3.3.8.9.9 1.6.9H198.8c.3 0 .6.1.9.1.3 0 .6-.1.8-.3.4-.4.1-1.6.2-2.1v-.6.1h.1v-.2c0-.2 0-.2 0 0 0-.8-.1-1.2-1.1-1.4zm4.3-20.7c1.5 0 1.6-.5 1.6-1.6v-.8c0-2-.3-2.1-2.2-2.1-1.9 0-2.2.3-2.2 2.2v.8c0 .5.1 1 .4 1.2.6.5 1.8.3 2.4.3zm-9 10.6c-.6-.3-2-.1-2.5-.1-.9.1-1.1.2-1.2 1.1 0 .5-.1 1-.1 1.5s0 .9.1 1.1c.2.6.6.6 1.1.7v-.1c.3 0 .3-.1.5-.1h.1v.1c1 0 2.5.4 2.8-.9v-.2c.1-.3.1-.8.1-1.2-.1-.7-.3-1.6-.9-1.9zm1.6 9.3c.6.5 3.6.6 4-.3.2-.5.2-1.2.2-1.7 0 .5 0 1.1-.3 1.6.2-.6.3-2.9.1-3.5-.3-.3-3.3-.5-3.8-.3-.9.3-1.3 3.8-.2 4.2zm6.8-4.3c-2.1 0-2.2.6-2.2 2.6 0 1.8.7 1.8 2.5 1.8 1.9 0 1.9-.3 1.9-2.2.1-1.9-.2-2.2-2.2-2.2zm2.2-24.4c-.4-.6-1.2-.4-1.9-.7-2 0-2.4-.2-2.5 1.9v.9c0 1.1.3 1.6 1.7 1.6 1.5.1 2.6.4 2.7-1.3 0-.3.1-.9.1-1.4.1-.4 0-.8-.1-1zm-13.5 28.8c.3 0 .7.2 1.2-.1.2 0 .5.1.7.1.7 0 1.2-.1 1.5-.9.2-.6.3-2.7-.1-3.2-.3-.3-.9-.4-1.5-.4-.7 0-1.3.1-1.7.2-1.1.3-1 1.3-1 2.3-.1 1.8-.2 2 .9 2zm22.5-34.4h-.5c-1.7.1-2.7-.4-2.8 1.6-.1 2-.1 2.7 2 2.7.6 0 1.8.3 2.2-.2.4-.5.3-2 .3-2.6-.1-1.2-.3-1.5-1.2-1.5zm-18.1 15.2c-.5.5-.2 1.6-.1 2.2.1.9-.3 1.9.9 2 1.3.1 3.1.6 3.4-1 .2-.7.4-2.8-.4-3.3-.6-.5-3.4-.3-3.8.1zm14.2 11.2c-.1-1.6-.8-1.4-2.2-1.4-1.9 0-2.2.3-2.2 2.2v.2c0 1.3 0 1.9 1.5 2 .7.1 2.1.2 2.6-.3.4-.3.4-.9.4-1.5 0-.4-.1-.9-.1-1.2zm-7.1-1.4c-2 0-2.3.3-2.3 2.2-.1 2 .3 2.2 2.3 2.2 1.9 0 2.1-.4 2.1-2.3s-.1-2.1-2.1-2.1zm-8.1-4.8c-.3-.5-1.6-.3-2.1-.3-1.5 0-2.1 0-2.2 1.6-.1 1.7-.3 2.8 1.6 2.8.6 0 2.1.3 2.6-.1s.3-2 0-2.4c-.3-.4.4-1.1.1-1.6zm-1.7 14.8c-1.6 0-2.5 0-2.6 1.8 0 2.1.1 2.6 2.2 2.6 2 0 2.2-.3 2.2-2.3 0-1.6-.1-2.1-1.8-2.1zm4.7-10c-1.8.1-2.2-.2-2.2 1.7s.1 2.8 2.2 2.7c2.1-.1 2.2-.5 2.2-2.6 0-1.8-.4-1.8-2.2-1.8zm0-25.1c-.6 0-1.7-.2-2.1.3-.4.5-.2 1.9-.1 2.4.1 1.3.2 1.6 1.5 1.7.6 0 1.6.2 2.2-.1 1-.5.7-2 .7-3-.1-1.5-.8-1.3-2.2-1.3zm16 25.1c-1.9.2-3.1-.6-3.1 1.7-.1 2-.1 2.8 2.1 2.8h1.2c.5-.1.9-.3 1-1 .1-.4.1-.9.2-1.4 0-1.2-.3-2.2-1.4-2.1zm-15.2-20.1c-2.4-.1-2.9.3-2.9 2.7 0 1.7.6 1.8 2.1 1.8h.4c1 0 1.7-.1 1.8-1.5 0-.5.1-1 .1-1.4 0-.9-.3-1.5-1.5-1.6zm7.5 29.4c.6.4 2.8.4 3.4.1.5-.3.6-.7.6-1.2V136.4c0-1.9-.1-1.9-2.2-1.9-1.4 0-1.9.1-2.1 1.4-.1.4-.2 1-.2 1.5-.1.6 0 1.1.5 1.4zm-5.3-15.1c.5.5 2.7.3 3.3.2 1.2-.3.9-1.3.9-2.3-.1-.6.3-1.4-.2-1.9s-1.1-.1-1.7-.1c-1.1-.1-2.2-.4-2.4.9-.2.5-.4 2.8.1 3.2zm9-15.2c.4-.5.2-2 .2-2.5 0-.9-.1-1.7-1.3-1.6-1.1.1-2.4-.4-2.9.8-.3.7-.5 3 .2 3.5.6.3 3.4.3 3.8-.2zm-1 15.9c-.7.1-2-.3-2.7.2-.7.5-.5 1.7-.4 2.4.2 1.9.8 1.9 2.5 1.9 1.1 0 1.6.1 1.8-1.1.1-1.1.6-3.7-1.2-3.4zm-5.1 40.2c-1.2 0-2.8-.5-3.1 1-.1.6-.2 2.3 0 2.9.6 1.2 3.9.9 4.1-.4.3-.6.3-1.6.2-2.3 0-1-.2-1.2-1.2-1.2zm1.2-39.4c-.3-1.2-1.9-.8-2.9-.8-1.5.1-1.5.7-1.3 1.8-.1-.4-.1-.8.1.5.2 1-.5 1.8.8 2.1.5.1 2.4.2 2.9-.1.7-.3.6-2.7.4-3.5zm5.9 3.2c.5.7 2.9.8 3.6.4 1-.5.6-2.7.5-3.6 0-1-3.4-1.1-4.1-.4-.5.5-.4 3.1 0 3.6zm3.7-8.3c-1.1.2-2.3 0-3.3.1h-.5c-.2.7.1 2 .2 2.6.2 1.3.9 1.1 2.1 1.1.9-.1 1.7.3 2.1-.7.1-.4.1-1.5.2-1.9 0-.5-.1-.8-.2-1.1-.4 0-.5 0-.6-.1zm-12.8 49.5c-1.5-.2-1 1.6-1.1 2.5-.1 2.2.9 1.7 2.7 1.9.9-1.3 1.4-2.8 1.3-4.4-1 .1-1.9.2-2.9 0zm9.3-55.1c-.5.5-.7 3.2-.3 3.9.1-.1.2-.1.4-.2.6-.1 1.3 0 1.9 0 .4 0 1.3.1 1.7-.2.1-.1.2-.1.3-.2l.1-.1c0-.3-.1-.5-.2-.8-1.3-.8-2.6-1.7-3.9-2.4zm-1.8 35.1c-.2 0-.5 0-.7-.1-.9-.1-1.9-.2-2.4.2-.7.5-.4 1.2-.4 1.9s-.4 1.8.2 2.3c.3.3 1.1.3 1.6.1.2-.1.4-.2.5-.3.4-1.3.8-2.5 1.2-3.8V149.6zm-3.6 6.5c0 .8-.3 3.4.9 2.4.1 0 .1-.1.1-.1.4-1.2.3-2.5 1-3.6-.1-.1-.2-.1-.3-.1-1.3-.4-1.7-.1-1.7 1.4zm-5.6 22.8v-.7c-.1-1-.2-2.1-.2-3.1-.1-.2-.3-.3-.5-.4-.1.9.4 1.8.1 2.7-.5-.1-.7-.5-1-1-.3-.6-.4-1.3-.7-1.8h-.7c-1.1.1-1.5.4-1.6 1.8 0 .7-.3 2.1.3 2.5.7.6 3.3.2 4 0h.2v-.2c.2.1.1.1.1.2zm.7-3.7c0 1.1.1 2.2.2 3.2l.1-.1c.1-.1.2-.2.2-.4.7-1.1 1.3-2.2 1.8-3.4h-1.2c-.6.1-.9.3-1.1.7zm-7.8 8.9c1.9 0 2-.4 2-2.2 0-2-.1-2.1-2.1-2.1s-2.3.2-2.3 2.1c0 2 .4 2.2 2.4 2.2zm-5.1 10.6c-.8 0-1.7-.2-2.2.6-.4.6-.2 1.8-.1 2.4.1 1.3.6 1.4 1.7 1.5h.5c1.1 0 2 .3 2.2-1 .1-.6.2-2.1 0-2.7-.4-1-1.2-.8-2.1-.8zm5-15.7c1.9 0 2.2-.4 2.2-2.1v-.5c0-1.7-.6-1.8-2.2-1.8-1.9 0-2.1.3-2.1 2.2-.1 2 .1 2.2 2.1 2.2zm.5-9.4c-2.1 0-2.5 0-2.6 2-.2 1.9 0 2.3 1.7 2.4h.9c1.5 0 1.7-.3 1.7-2.1-.1-1.6.1-2.2-1.7-2.3zm.4 20.1c-.4 0-1-.1-1.6-.1-.5 0-1 .1-1.2.3-.7.6-.3 2-.3 2.8v.4-.3c-.2 1.8 1.9 1.5 3.2 1.4 1.4-.1 1.1-1.2 1.1-2.4 0-1.4.2-2-1.2-2.1zm.1-5h-.8c-1.4.1-2.4-.2-2.4 1.4 0 .7-.2 1.6 0 2.2.2.8.6.7 1.4.7 1.3 0 2.8.5 2.9-1.2.1-1 .4-3.2-1.1-3.1zm5.3-4.9c-1.8 0-3.5-.6-3.5 1.6v.2c0 2 .3 2.5 2.4 2.5.8-1.2 1.5-2.5 2-3.8-.1-.5-.5-.5-.9-.5zm-3.5 6.3c0 1.3-.5 3.3 1.4 2.8.2-1.4 0-2.9.7-4.2h-.5c-1.1 0-1.6.1-1.6 1.4zm.5 3.7c-.9.1-1.1 4.4.5 4.3.3-1.2.2-2.4.2-3.5-.1-.4-.2-.8-.7-.8zm-21.4 5.4c-.4-.6-1.2-.5-1.8-.4h-.1c-1.9 0-2.3 0-2.3 1.9 0 2 0 2.5 2.1 2.5.7 0 1.2 0 1.5-.1.1-.3.3-.6.7-.7.1-.3.1-.6.1-1.1 0-.5.2-1.7-.2-2.1zm-.5 4.7c-.3-.1-.8-.2-1.6-.1-1.9.1-2.2.3-2.2 2.2 0 2 .4 2.2 2.4 2.2 1.9 0 2-.4 2-2.2 0-.8-.1-1.3-.2-1.7-.2-.1-.3-.2-.4-.4zm.6-9.7c-.4-.7-1.3-.5-2-.5-2.1 0-2.4.5-2.3 2.6 0 1.1 0 1.7 1.1 1.8 1.2.2 3.4.4 3.3-1.2 0-.7.3-2.1-.1-2.7zm-5.1 4.9c-.5-.5-1 .1-1.6-.2-.9-.4-2.3-.3-2.6.7-.2.6-.3 2.9.2 3.4s2.7.3 3.3.2c1.1-.3.8-1.3.8-2.3 0-.6.3-1.4-.1-1.8zm9.2 4.7c-.8 0-2.6-.4-3.2.3-.4.5-.3 1.9-.2 2.5.1 1.4.5 1.5 1.8 1.6 1 .1 2.1.3 2.5-.7.4-.9.5-3.8-.9-3.7zM53 119.5c-2 0-2.3.7-2.3 2.3v.4c0 2 1 1.8 2.8 1.7 1.7 0 1.6-.6 1.7-2.2v-.4c0-1.6-.4-1.8-2.2-1.8z" style="fill:#644d31"/><path d="M97.3 184.8c-.2-.2-.4-.4-.6-.5l-.6-.6c-.8-.7-1.6-.6-1.9-.4-.3.1-1 .5-1.1 1.5-.1.9-.2 1.8-.2 2.7 0 1.2-.1 2.4-.4 3.5l-.4 1.8h2.8l.4-.8 1.2-2.4c.4-.8.8-1.6 1.2-2.3.4-.7.3-1.6-.3-2.2l-.1-.3zm81.9-11.3-.5-.2c-.9-.4-1.8.1-2.4.4-.1.1-.2.1-.3.2-1.2.4-1.7 1.2-1.7 2.2.1 2.1.3 4.4.7 7.1l.7 4.8 2.1-4.3c.3-.7.4-1.2.5-1.7v-.2l.6-3.6.3-1.7c0-.1.1-.2.1-.4.2-.5.5-1.3.1-2.1l-.2-.5zm-2.9-20.9c-.6.1-1.3.2-1.9.3-1.7.3-3.4.5-5 .2-.1 0-.2 0-.3-.1-.5-.1-1-.2-1.5-.1h-5.8l5.3 2.9c1.4.8 2.9 1.6 4.9 1.6.5 0 1.1.1 1.7.1.2 0 .5.1.7.1.9.1 1.9.2 2.9.2 1.8 0 3.7-.2 5.8-.5l4.2-.6-3.7-2.1c-1.7-1.2-4.2-2.3-7.3-2zm-98.8-1.3c.4 0 .8-.1 1.1-.4.1-.1.2-.2.3-.2.1-.1.2-.1.3-.2l.1-.1c3.3-2.5 6.8-4.1 10.9-4.8 1.7-.3 3.5-.6 5.2-.9 4.1-.7 8.4-1.5 12.6-2.5.9-.2 2-.4 3.1-.9l11.8-4.9-18 3-3 .4c-3.1.4-6.3.8-9.4 1.1-2.6.3-5.5.6-8.2 1.9l-2.7 1.2c-1 .5-2 .9-3 1.4-1.9.9-2.7 2.2-2.6 4.3V151.3h1.5zm114.6-2.3c-1.2-.9-2.7-1.5-4.4-1.7-1.1-.1-2.2-.3-3.2-.4.3 0 .6-.1.8-.3.5-.3.8-.8 1-1.3l.1-.4-.1-.4c0-.2-.1-.3-.1-.5s-.1-.4-.2-.6v-.4l-8.7-12.2-2.6-2.2.1.1c.5.3 1 .6 1.6.9.5.3 1 .6 1.5.8.2.1.9.5 1.7.3l2-.6-1.1-1.7c-1.4-2.1-5.3-4.9-8.8-7.4-1.8-1.3-3.7-2.7-4.3-3.3l-.4-.4-.1-.1-.2-.2-.3-.1c-1.1-.5-2.2-.9-3.3-1.2h.2c1.2.2 2.2.5 3.1 1 2.2 1 4.5 2.2 6.8 3.6.6.5 1.3.9 2 1.2l6.1 2.6-4.4-5c-4.8-5.4-12-12.5-19.6-16-.1 0-.2-.1-.3-.1h-.1c-2.2-.7-4.5-.6-7.2.3-1.5.5-1.8 1.7-1.5 2.7.6 1.9.6 3.9.6 6v.9c0 1.1.5 1.9 1.4 2.2-.2.1-.5.2-.7.5-.7.7-.7 1.7-.7 2v1.3l-.5-1v4.7c-.1.5-.1 1 0 1.5v.8l.3.3.1.3.3.7-.2-.1c-.4-.3-1-.3-1.5-.1-.3.1-.6.4-.8.7.3-1.6.3-3.2-.6-4.8-.1-.1-.1-.2-.2-.3l.5.1.6-.7c.6-.7.8-1.7 1-2.9 0-.1 0-.2.1-.3.6-2.6.5-5.2-.4-8.6-1.2-5.1-3.7-8.9-7.4-11.8-3.8-2.9-8.8-5.3-12.9-6.2-5.3-1.1-10.7.5-15.6 2l-1.2.4c-.9.3-1.9.6-2.7.9-.8.3-1.5.7-2.2 1.2-2.7 1.7-5.8 3.7-8.5 6.2l-.3.3-.3.3-.1.1c-.7.5-1.3 1.1-1.9 1.6-.3.2-.5.5-.8.7l-.5.5c-2.9 3.1-5.2 6.7-7.3 9.8-1 1.5-2 3.2-2.9 5.1-.4.8-.8 1.6-1.3 2.4-.5 1-1.1 2-1.6 3.1l-2.3 5.5 4.6-3.8c1.9-1.6 3.6-3.3 5.4-5 .1-.1.2-.1.2-.2l.3-.3.2-.2c.7-.7 1.4-1.4 2.2-1.9l1.8-1.2c2.8-1.8 5.4-3.5 8.4-4.6l.4-.1 2.1-.9.3-.1c1.1-.5 2.2-1 3.4-1.2.9-.2 1.7-.3 2.6-.4 1.4-.2 2.7-.5 4.1-.7 2.9-.5 5.5-1 8.1-.9 2.5.1 5.1.4 7.6 1-1.3-.2-2.7-.3-4.1-.3-2.3.1-4.6.2-6.9.2-1.9 0-3.9.3-6.3.8-7.5 1.6-14.8 5.2-22.1 11-3.1 2.4-5.8 5.2-8.5 7.9l-2.4 2.4c-.2.2-.5.5-.6.8-2.3 3.6-4.5 7.1-6.8 10.7-.5.8-.9 1.6-1.1 2.5l-1 4.1 3.3-2.6c.1-.1.3-.2.4-.3.3-.2.5-.4.8-.6 2.6-2.4 5.9-3.6 9.4-4.8h.1c3.9-1.3 8.1-2.2 12.6-2.5 6.7-.5 13.2-1.9 18.7-3.3 4.7-1.2 8.3-2.6 11.3-4.6 1.6-1 3.1-2.2 4.8-3.6-.1 1.2-.4 2.2-1.1 3.1-1.5 2.1-3.8 3.3-6.2 4.6l-.1.1c-4.3 2.3-9.1 4.1-14.6 5.6-2 .5-4.1 1-6.1 1.4-1.7.3-3.5.7-5.3 1.2l-3.9.9c-3.4.7-6.9 1.4-10.2 3.2-2.9 1.6-5 3.7-6.2 6.4-.7 1.6-.9 3.1-.5 4.7l1 3.8 1.8-3.5c.2-.3.3-.7.5-1 .3-.7.6-1.3 1-1.8 1.5-2 3.6-3.3 6.2-3.7 1.6-.3 3.2-.5 4.9-.7.8-.1 1.5-.2 2.3-.3 3-.4 6-.6 9-.8 3.6-.3 7.3-.6 11-1.1 5.3-.8 10.8-2 15.7-5.2.8-.6 1.7-1.1 2.5-1.6 2.5-1.6 5-3.2 7.2-5.4 2.1-2.2 4.2-4.5 5.5-7.4-.7 4.1.3 7.6 3.1 10.4.2.2.3.3.5.4 2.5 2.3 5.5 4.8 9.4 6.4 3 1.3 6.2 2.6 9.5 3.4 1.4.3 2.7.4 4 .3l.5-.1c3.1-.3 6.3-.7 9.4-.6h1.9c2.5 0 4.8.1 7.2.4l5.8.9-4.6-3.6zm-34.4-13.8c1.4 1 2.7 2.1 4.1 3.1.5.3.9.7 1.4 1 1.8 1.3 3.6 2.7 5.9 3.5.9.3 1.8.7 2.6 1 1.2.5 2.5 1 3.8 1.4.3.1.6.2 1 .3.2.1.5.1.7.2h.2c1.5.3 3 .6 4.3.8-3.4-.5-6.9-1-10.3-1.8-2.7-.7-4.4-1.5-5.9-2.7-3.1-2.7-5.6-4.8-7.8-6.8z" style="fill:#885630"/><path d="M164.4 208.8c-.9-2.2-1.8-4.5-2.7-6.6l-.5-1.2s0-.1-.1-.1c-.1-.2-.2-.5-.5-.7l-.3-.2-.9 1.1c-1.1 1.8-2.4 3.4-4.1 5l-.5.7c-1.4 1.2-2.9 1.9-4.5 2.7-1 .5-2 .9-2.9 1.5l-1 .6 1.2.1c.5 0 1 0 1.5.1 4 .3 7.2 1.1 10.1 2.4 1.1.5 1.2 1.4 1.3 2.5v.4h-.1s-.1 0-.5-.1c-3.8-1.5-7.8-2.4-11.7-3.4-1.1-.3-2.2-.5-3.3-.8-.1 0-.2 0-.2-.1l-.3-.1h-.1c-.2 0-.5.2-.6.7-.1.4-.3 1.4.9 1.6.6.1 1.2.4 1.8.6l3.6 1.2c3.2 1 6.5 2 9.3 4 .3.2.6.3 1 .4.4 0 .8-.2 1.2-.4 2.2-1.1 2.8-2.8 2.1-5.1-.6-1.8-.3-3.4.7-4.8.3-.6.4-1.3.1-2zm-41.4 5.4c-1.5.2-2.7.3-3.8.3-1.1 0-2-.1-2.8-.2-.3-.1-.4-.1-.4-.4v-.1h.2l2.7-.6c2.5-.6 5-1.2 7.6-1.2v-.4h.3v-.3l.1-.4h-.4c-1.2-.1-2.1-.7-3.1-1.3-.4-.2-.7-.4-1.1-.6-3.1-1.6-5.3-3.8-6.8-6.7-.5-.9-1.1-1.7-1.8-2.5-.3-.3-.5-.7-.8-1l-.4-.6-.2.7c-.1.4-.2.8-.4 1.2-.3 1.1-.7 2.1-1.1 3-.9 2-.8 3.8 0 5.4.3.6.2 1.3-.4 1.9-.6.6-1.2 1.3-1.7 1.9-.4.4-.8.9-1.2 1.3l-.1.1c-.2.2-.5.6-.4 1.1.1.3.1.5.1.8.1.8.2 1.7 1.1 2.3.1 0 .1.1 0 .4v5.1c0 .3 0 .8.4 1.1.9.6 2 .8 2.9 1h.2c.4-.2.6-.6.7-.9.1-.2.1-.3.2-.4.1-.1.1-.2.2-.3 0 0 0-.1.1-.1.9-.5 1.7-1.1 2.5-1.7 1.1-.8 2.1-1.5 3.2-2 1.3-.5 2.6-1.2 3.8-1.8 2.7-1.3 5.4-2.7 8.4-3.2l2.3-.4-2.3-.4c-2.5-.6-4.9-.6-7.8-.1zm18.8-1.5c0-.3-.1-.6-.3-.7-.2-.2-.5-.2-.7-.2h-.2c-.9.2-1.7.2-2.6.2h-3.4c-.3.1-.5.3-.5.6 0 .7.3 1.1 1 1.3.9.2 1.8.3 2.8.3 1 0 1.9-.1 2.9-.2s.9-.8.9-1.2l.1-.1zm76.1-119.9c.7-.3 1-.7 1-1.4.1-1.9.3-3.7.5-5.6.2-2.5.4-5.1.7-7.8-.2 0-.3.1-.4.1-14.9 4.3-30.7 8.4-45.6 12.7-.8.2-.1 1.4.3 1.9 2.3 4.1 4.8 7.9 7.1 12 .2.4.4.5.6.6.1 0 .5-.3.7-.4 11.5-4 23.3-8.1 35.1-12.1zm-2.2-10.7c1.6 0 2.4.8 2.5 2.5 0 1.6-1.3 3.1-2.8 3.2-1.4 0-2.6-1.2-2.7-2.7-.1-1.5 1.4-3 3-3zM59.4 110.8c2.4.3 4.7.7 7.1 1 3.6.5 7.2 1 10.9 1.5h.2c.4 0 .5-.4.6-.8.9-3.2 1.9-6.4 2.9-9.6.2-.7 0-.9-.6-1.1-6.8-1.8-13.5-3.5-20.3-5.3-6.8-1.8-13.5-3.6-20.3-5.4-.1 0-.3-.1-.4-.1-.2 0-.3.1-.4.2v.2c0 .1 0 .2-.1.3-.5 5-1 10-1.6 15-.1.6.1.9.5 1 .1 0 .2 0 .4.1 6.9 1.1 14 2 21.1 3zM43 97.6c.7-.6 1.5-.6 2.3-.6 1.6 0 2.3.5 2.8 2 .9 2.3.5 4.3-1 5.6-1.1 1-2.8 1-4 0-1.9-1.8-2-5.2-.1-7z" style="fill:#fff"/><path class="st5" d="M215.6 82.1c-1.6 0-3.1 1.5-3 3.1.1 1.4 1.3 2.7 2.7 2.6 1.4 0 2.8-1.6 2.8-3.2 0-1.7-.9-2.6-2.5-2.5zM45.3 97c-.8.1-1.6 0-2.3.6-1.9 1.9-1.9 5.2.1 7 1.1 1 2.8 1 4 0 1.5-1.3 1.9-3.3 1-5.6-.5-1.5-1.2-2-2.8-2z"/><path class="st5" d="M119.3 247.3c-.4-.3-.6-.7-.7-1.2-.3-1.4-.1-2.7.2-4 .4-2.6 1.2-5.1 1.1-7.7-.1-1-.2-2-1.3-2.5-1.1-.6-2 .1-2.7.8-1.5 1.4-2.8 3-4.1 4.6-1.3 1.6-2.6 3.2-3.8 4.8-.2.3-.4.7-.8.5-.3-.2-.2-.6-.2-.9.1-1.2.3-2.3.4-3.4.2-1.5.4-3 .1-4.5-.3-1.8-1.6-2.3-3.1-1.2-.4.3-.7.6-1 1-1.2 1.3-2.2 2.8-3.1 4.3-2.4 3.6-4.5 7.4-7.4 10.8-.5.6-1.1 1.2-1.6 1.9-.5.8-.7 1.6-.2 2.4.4.7 1.2 1 2 .9.9-.1 1.3-.7 1.8-1.3 2.2-3 4.4-6 6.6-8.9.1-.2.2-.5.6-.4-.1.4-.1.8-.1 1.2-.1 1.4-.4 2.9-.1 4.3.4 1.7 1.7 2.3 3.2 1.6.8-.4 1.5-1 2.1-1.6 1.2-1.2 2.4-2.5 3.5-3.8 1.2-1.5 2.4-3 3.6-4.7.4 1.3.2 2.4.2 3.5-.1 2-.5 3.9-.1 5.9.3 1.2 1 2 2 2 1 .1 2-.2 2.9-.7 1.1-1 1.2-2.6 0-3.7zm90.6.4c-.6 0-1.1-.3-1.6-.7-1.5-1.2-2.7-2.6-3.8-4.1-.9-1.3-1-1.3.3-2.1 2.6-1.8 3.6-4.4 3.4-7.4-.2-2.3-1.4-3.6-3.5-4-1.8-.3-3.2.5-4.6 1.5-.3.2-.5.5-1 .2-1.1-.8-2.2-.6-3.1.4-.5.6-.9 1.2-1.1 2-1.3 5.3-2.6 10.5-3.9 15.8-.4 1.8.5 2.7 2.3 2.4 1.7-.3 2.5-1.2 2.8-3.3.3-2.1.6-4.1 1.2-6.2 1.6 2 3 3.8 4.5 5.6 1.5 1.8 3 3.4 5.2 4.3 1.5.7 2.8.3 4-.8.7-.6.8-1.3.6-2.2-.3-.9-.9-1.3-1.7-1.4zm-6.4-12.2c-.2.5-.4 1-.7 1.4-1.4 1.7-3.1 2.8-5.2 3.7.3-1.6.5-3.1 1.2-4.5s1.7-2.3 3.3-2.5c1.2-.1 1.8.7 1.4 1.9zm-111.2-5.7c-.7-.3-1.5-.3-1.8.6-.2.5-.6.5-1 .4-2.7-.4-5.1.4-7 2.3-4 3.9-6 8.5-5.8 14.2.2 3.7 2.3 5.6 6 4.7 7.2-1.7 12.8-8.7 13.1-16.6.2-2-1.6-4.9-3.5-5.6zm-1 8.1c-.4 3.1-1.6 6.2-4.4 8.6-1 .8-2.1 1.3-3.4 1.5-1.6.1-2.8-.9-2.6-2.4.3-3.3 1.2-6.4 3.4-9 1.4-1.7 3.5-2.1 5.6-1.3 1.1.3 1.5.9 1.4 2.6zm90.3-2c.8-.3 1.7-.1 2.6-.1 2.2-.1 4.5-.1 6.6-.8.8-.3 1.5-.6 2-1.4.7-1.1.5-1.9-.9-1.9-2.9-.1-5.7-.4-8.6 0-1.7.2-3.3.7-4 2.6 0 .1-.2.3-.3.3-2 .5-2.6 2.1-3.2 3.7-1.1 3.6-2.1 7.3-3.1 10.9-.3.9.1 1.5.8 1.9.6.4 1.2.3 1.8.2 3.4-.8 6.8-1.7 10.3-1.5.5 0 .9-.1 1.3-.3.8-.4 1.4-1.5 1.2-2.5-.2-1-.9-1.2-1.7-1.4-.6-.1-1.2-.2-1.9-.2-2.2 0-4.3.3-6.5.6.3-2.4.5-2.5 2.8-2.5 1.7 0 3.4-.1 5-.8 1.1-.5 1.7-1.2 1.8-2.4.1-.8-.3-1.3-1.1-1.3h-2c-1.5.1-3.1.3-4.8.4.3-.6.4-1.1.7-1.4.7-.6.2-1.8 1.2-2.1zm-106.7-4.5c-1.3-.7-2.6-1.2-3.6-1.2-2.8.1-4.7 1-6.4 2.5-3.6 3.2-5.7 7.3-6.8 11.9-.4 1.8-.2 3.5.8 5.1.7 1.2 1.7 1.7 3.1 1.4 3.2-.7 6.2-1.6 9.1-3.2.9-.5 1.7-1 2.4-1.8.6-.6.9-1.3.9-2.1s-.4-1.1-1.1-1.1c-.7 0-1.4.3-2 .5-2.2.8-4.3 1.7-6.5 2.3-1.1.3-1.5 0-1.7-1.1-.1-.4-.1-.9 0-1.3.4-1.8 1-3.5 2-5.1.7-1.2 1.4-2.2 2.6-3 1.5-.9 3-1.4 4.6-.4.6.3 1.1.2 1.6-.1.8-.5 1.3-1.2 1.6-2.1 0-.5-.1-.9-.6-1.2zm97.1 1.1c-2.9-2.4-7.1-2.1-9.7.5-1.6 1.7-1.9 3.4-.9 5.5.8 1.6 1.9 2.9 2.9 4.3.8 1 1.6 2 2.3 3 .5.7.3 1.3-.6 1.6-.5.2-1 .1-1.5-.1-1.5-.5-2.8-1.4-3.9-2.4-.4-.4-.8-.8-.9-1.3-.1-.8-.6-1.1-1.3-1.2-.9-.1-1.6-.1-2.1.8-.8 1.5-.6 2.8.9 4.1 2.9 2.6 6.3 3.7 9.8 4 3.1 0 5.1-2.8 4-5.5-.5-1.2-1.2-2.3-2-3.3-1.3-1.7-2.6-3.3-3.7-5-.9-1.3-.5-2.3 1-2.8 1.4-.5 2.6-.1 3.8.8 1.4 1.1 2.5.5 2.8-1.2.2-.6-.3-1.2-.9-1.8zm44.1-136.7c1.5-.5 2.9-1.1 4.4-1.6.8-.3 1.1-.7 1.1-1.5.5-6.3 1-12.7 1.5-19 .1-.9-.1-1.1-1-.8-4.8 1.5-9.5 2.9-14.3 4.4-1.5.5-1.5.5-2.1-1-2.4-5.4-4.3-11.1-6.3-16.6-.4-1.2-.4-2.2.1-3.3.7-2 .3-3.9.2-5.9 0-.1-.1-.2-.1-.3-.5-5.5-1.2-10.9-2.7-16.2-1.2-4.6-3-9.1-5.2-13.3-2.4-4.5-5-9-7.7-13.4-1.2-1.9-2.4-3.5-4.6-4.5-.8-.3-1.5-.4-2.3-.5-.9-.1-1.5.3-2.1 1-1 1.3-1.4 3-.7 4.5 2 4.3 3.8 8.7 5.5 13.1.1.2.2.4.4.7-.4 0-.5-.2-.7-.5-3.1-3.2-6.8-5.8-10.5-8.4-5-3.5-10.4-6.3-15.7-9.1-.7-.4-1.5-.6-2.2-.7-1.3-.2-2.7-.3-4-.4-2.1-.3-3.7 1-3.7 3.1 0 1.1-.5 1.4-1.4 1.5-.8.1-2 1.2-2.1 2-.3 2.6.5 4.7 2.4 6.5 4.7 4.3 9.2 8.9 13.7 13.4l.2.1c.1.1.2.2.3.4h-.2c-.1 0-.3-.1-.4-.2v-.1c-.7-.4-1.3-.7-2-1.2-3.1-2.1-6.2-4.2-9.4-6.3-1.5-1-3-1.7-4.8-1.8-1.7-.1-2.9.3-4.1 1.5-.8.8-1.1 1.6-.9 2.6.2 1.5 1.2 2.5 2.3 3.3 5.3 3.5 10 7.7 14.3 12.3l1.2 1.2c1.2 1 2 2.3 2.7 3.7.4.6.2.8-.5.8-4.5 0-8.7 1.2-13 2.1-1.8.4-3.5 1-4.1 2.9-.7 2.2-1 3.4 1.7 4.1 5.4 1.3 10.5 3.2 15.6 5.4.5.2.9.5 1.2.8 1.3 1.1 2.4 2.3 3.8 3.2 4 2.6 8.1 5 12.8 6.1.6.1 1.1.4 1.6.5.5.2.9.5 1 1 .3 1.9 1.5 2.9 3.2 3.4l.6.3c.6.2.8.6 1 1.1.7 2.5 1.4 5 2.2 7.5.3.8 0 1.1-.7 1.3-3.9 1.1-7.8 2.3-11.6 3.5-1.4.4-1.4.5-.7 1.7l9.5 17.1c1.3 2.4 1.4 2.4 3.8 1.2.3-.1.6-.6.8-.2.2.4.6.9.3 1.4-1.2 1.4-2 2.9-3 4.4-.3.5-.3.8 0 1.2 1.1 1.7 2.1 3.5 3.1 5.3.1.2.4.5.3.6-.4 1.3-.9 2.6-1.3 3.8-.7-2.8-1.9-5.2-3.3-7.5-1.9-3-4.3-5.7-6.5-8.5l-1.2-1.2c-2.1-2.2-4.8-3.5-7.3-5-1.1-.7-2.3-1.1-3.6-1.3-3.9-.8-7.8-1.2-11.7.1-.8.3-1.2 0-1.7-.6-1-1.3-1.7-2.9-3-3.9-3.1-2.5-6.5-4.8-10.3-6.1-2.9-1-5.9-1.7-9.1-1.8-1.6-.1-3.2.1-4.9.2-4.1.3-8.3.8-11.9 3.1-.7.5-1.6.7-2.3 1.1-3.8 2-7.5 4-10.6 7.1-3.2 3.2-6.5 6.4-9.4 9.9-3.4 4-5.9 8.6-8.2 13.3-.2.3-.2.7-.7 1-.4-2.7-.9-5.2-1.3-7.8-.1-.5.2-.5.6-.4.9.1 1.8.2 2.8.3.7.1 1.1-.1 1.3-.8.2-1.1.5-2.2.7-3.3.9-4.1 2.1-8.2 3.2-12.2.2-.8.1-1.1-.7-1.3l-12-3c-.8-.2-1.1-.5-.9-1.3.9-3.1 1.3-6.4 2.5-9.4.1-.3.3-.7.6-.9 1-.8 1.8-1.7 1.7-3.2-.1-1.1.4-1.8 1.5-2.2 1.9-.9 3.7-2 5.6-3 1.4-.8 2.6-2 3.4-3.5 3.4-6.3 6.2-13 10.3-19 .4-.5.6-1.1 1.1-1.6 2.6-2.8 5.1-5.7 8.1-8.2.9-.8 1.2-1.8 1.2-3 0-1.3-.8-2.3-1.6-3.2-.8-.9-1.6-1.7-2.9-1.5-.3 0-.6-.1-.9-.2.2-.4.5-.5.8-.7 3.6-2.3 7.1-4.6 10.6-6.9 4.3-2.8 8.6-5.6 12.9-8.3.6-.4.8-.6.2-1.2-.2-.1-.3-.3-.4-.5-.9-1-.9-1-2.1-.3C111 26 99 33.5 87 41c-1.1.7-1.1.7-1.6-.5-1.2-2.7-1.9-5.6-2.7-8.5-.2-.7 0-1 .5-1.4 3-2.4 5.8-5.1 8.6-7.8 1.1-1.1 1.8-2.4 2-3.9.2-1.8-1-2.7-2.6-2.1-.8.3-1.6.7-2.3 1.1-7.1 3.9-14.7 6.6-22.5 8.9-.5.1-.9.3-1.2-.2-.8-1-1.9-1.5-2.9-2.2-.2-.2-.4-.2-.7-.2-1.1.3-2.1.6-2.8 1.5-1.8 2.6-3.8 4.7-5.4 7.3-1.8 2.9-3.5 5.9-5.5 8.7-.4.5-.5.6-.9 0-2.2-3.9-4.5-7.8-6.7-11.7-.7-1.2-1.5-2.4-2.3-3.5-1-1.2-2.2-1.8-3.7-1.7-.3 0-.6 0-.7.4-.2 1.2-.8 2.4-.6 3.5.4 2.8.9 5.7 1.6 8.4 1.2 4.8 2.6 9.6 4 14.3 1.4 4.7 2.9 9.2 4.5 13.9.1.4.4.8-.2 1.1-.7.4-1.8.6-2 1.3-.1.7.5 1.6.8 2.4 0 .1.1.1.1.2.3.6.4 1.5.8 1.7.6.3 1.2-.5 1.7-.9.5-.3.7-.2.9.3 1.3 3.1 2.6 6.1 4 9.2.2.5.3 1 .1 1.4-.9 2.4-1.5 5-2 7.5-.1.7-.4.7-1 .6-2.9-.7-5.8-1.5-8.7-2.2-1.3-.3-1.3-.3-1.4 1v.1c-.6 7-1.3 13.9-1.9 20.9 0 .6 0 .9.7 1 2 .3 4 .6 6.1.9.4.1.7.1.6.6-.5 2.4-.8 4.8-1.3 7.1-.2.7-.1 1.2.4 1.7.7.9 1.4 1.8 2.1 2.8.5.7.8 1.5.4 2.2-.3.4-.4.8-.4 1.2.1 4.3.1 8.7.3 13 .1 2.1.1 4.2.1 6.3.1 5.6.4 11.2.6 16.8.1 2.7-.4 5.5-.3 8.2 0 .7.2 1.1.9 1.3 1.7.5 3.3 1.2 5 1.7.9.3 1.5.8 1.9 1.6.4.8.5 1.5.4 2.3 0 .8.3 1.2.9 1.6 2.6 1.9 5.2 3.8 7.7 5.7 6.8 5 13.6 10.1 20.5 15.1.6.5.8.9.4 1.5-.4.7-.6 1.4-.9 2.1-.3.6-.3 1 .3 1.4.9.6 1.7 1.3 2.5 2 .7.6.7 1.5.5 2.2-.2.5-.9.1-1.4 0-.3 0-.7-.1-1-.2-3.2-.5-6.5-1.4-9.8-1.6-5.3-.4-10.5-.9-15.8-.7-.3 0-.7-.3-.8.3-.1.5-.2.9.3 1.2.3.2.5.3.8.4 3 1 5.7 2.5 8.4 4.1 1.8 1 3.5 2.1 5.4 2.8.4.1.7.4 1.1 0-2.9-2.3-5.8-4.6-8.7-7 .4-.3.7-.2 1-.2 3.5.3 7 .8 10.4 1.6 7.5 1.8 14.9 3.8 22.2 6 2.4.7 5 1.1 7.1 2.5.5.4.8.7.8 1.4.1.2.3.4.1.5-.2.1-.4-.1-.5-.3-1.7-.2-3.4-.3-5.1-.5-4.9-.5-9.7-1.2-14.6-1-3.7.1-7.3-.2-11 .1-5.2.4-10.4 1-15.5 1.6-.3 0-.7 0-.7.3 0 .4.2.8.6.9.4.1.8.1 1.2.1 2.6.1 5.2.1 7.8.1 6.5.2 13-.1 19.5.4 2.3.2 4.7.1 7 .5 10.8 2 21.5 4.1 32.2 6.5 1.3.3 2.5.5 3.8 1.1-.6.5-1.3.7-1.7 1.4-2.3 5.3-3.8 10.9-5.6 16.4-.3.9.3 2 1.3 2.3 1.7.5 3.4-.6 3.7-2.3.2-1.1.4-2.3.6-3.4.1-.4.2-.6.6-.7 1.4-.6 2.7-1.1 4.1-1.7 2-.8 3.9-1.9 5.5-3.4 1.4-1.3 2.6-2.9 2.6-4.9 0-.6.2-1 .7-1.4 2.3-1.8 4.4-3.8 6.4-5.9 1.9-2 4.1-3.8 6.3-5.6.3-.2.5-.5.9-.4 1.9.8 3.7 1.5 5.9 2.3-3.9 2.4-7.6 4.7-11.3 6.9-.2.1-.4.2-.6.2-1.4.4-2.5 1.1-3.5 2.1-3.9 3.9-5.9 8.5-5.7 14.1.2 3.8 2.3 5.6 6 4.7 6.4-1.5 11.9-7.7 12.9-14.4.3-1.9.6-3.7-.8-5.4-.6-.7-1.2-1.4-1.9-2 .2-.1.3-.2.4-.3 8.1-4.9 17-8.1 25.9-11.2 10.9-3.7 22-6.7 33.1-9.6-.3 0-.5-.1-.8-.2-.7.1-1.4.2-2.2.2-3.1.3-6.1.6-9.1 1.4-.1 0-.1.1-.2.1-.3.1-.6.2-1 .2h-.5c.7-.7 2.6-2.8 3.2-2.6v-.1c0-.1.2-.2.2-.2.2-.3.4-.5.8-.5.6-.8 1.3-1.5 2.1-2 .5-.3 1.1-.7 1.7-.9 1.7 0 3.3-2 5.1-2.7 0-.1-.1-.1-.1-.2-2.5.4-5 .8-7.4 1.7-5.2 1.9-10.5 3.4-15.5 5.6-7.8 3.4-15.5 6.8-23 10.8-.2.1-.5.2-.8.4-.2-1.8-.4-3.5-.6-5.3-.1-.4.1-.5.4-.7 6.6-3.5 13.2-7 20.2-9.8 5.7-2.4 11.3-4.9 17-7.2l.1-.1h.1c.1.1 0 .2-.1.3l-.1.1c-1.5 2.2-2.9 4.4-3.9 6.9.4.1.6 0 .7-.2 1.2-1.3 2.4-2.5 3.5-3.7 2.2-2.5 4.6-4.8 7.4-6.7.2-.1.5-.2.4-.5-.2-.3-.5-.2-.7-.1-2.6.5-5.2 1-7.7 1.6-.9.2-.8-.1-.8-.7 0-2.1.3-4.1.4-6.1 0-.9.2-1.8.6-2.6 1-2.4 2.1-4.7 3.1-7.1.5-1.2.8-2.4 1-3.7.3-2 .6-4 .8-6.1.3-3.1 1.4-6.1 2-9.2.7-3.9 1.2-7.9 2.7-11.6l3.9-9.9c1.8-4.5 4.2-8.7 5.3-13.5.4-1.7.8-3.2 0-4.8-.4-.9-.6-1.9-.9-2.8-.2-.7-.3-1.4-.1-2.1.5-2.6.7-5.1-.7-7.5-.4-.7.1-1.1.5-1.5.9-1 1-1.4.2-2.4-.9-1.2-1.8-2.3-2.8-3.4l-2.4-2.7c-.9-.5-.8-.8-.2-1zm-67.6 150.7c-1 .8-2.1 1.3-3.4 1.4-1.5.1-2.7-.9-2.6-2.4.3-3.4 1.2-6.5 3.5-9.2 1.4-1.6 3.4-2 5.4-1.3 1.2.5 1.6 1.1 1.6 2.8-.5 3.2-1.7 6.4-4.5 8.7zm33.7-173.8c-.3-.7-.6-1.1-1.3-.9-.9.2-1.4-.2-1.8-1-.7-1.3-1.2-2.9-2.3-3.8-1.1-.8-2.8-.9-4.2-1.2-1.1-.3-2.2-.6-3.3-.8-2.4-.4-4.5-1.4-6.4-2.9-3.2-2.3-6.4-4.5-9.8-6.6-1.1-.1-2.1-.4-3.2-.6l-8.7-1.8c-.7-.1-.8-.7-.9-1.1-.1-.6.1-1.2.7-1.5.9-.6 2-.7 3-.8 4.7-.7 9.4-1.3 14.1-1.4 1.2 0 2.2.4 3.3.7.7.2 1.2.1 1.7-.3 2.3-1.5 4.6-2.9 6.8-4.4.4-.2 1-.4.7-1 0-.1-.1-.2-.2-.2-.1-.1-.3-.1-.5-.1h-.6c-2.6-.1-4.9.7-7 2.1-.8.5-2.7.2-3.2-.6-3.6-5.4-8.6-9.3-13.4-13.5-2.1-1.9-4.2-3.8-6.5-5.5-.6-.4-.8-1.5-.5-2.1.5-.8 1.2-.4 1.8-.2 1.9.9 3.8 1.8 5.5 3.1 5.9 4.2 12.2 7.8 18.6 11.4.2.1.4.2.5.3 1 .3 1.5-.1 1.3-1.1-.1-.5-.3-1-.7-1.4-5.1-6-10.5-11.8-15.8-17.6-1.1-1.2-2.4-2.3-3.6-3.3-1-.8-1.8-1.8-2.3-2.9-.4-.7-.3-1.4.3-2 .4-.5.8-.6 1.4-.3 1.8.9 3.5 1.9 5.1 3.1l8.4 6.3 8.4 6.3c.2.2.5.4.7.5l1.5 1.5.3.3c.2.2.4.5.6.6.6.4 1.2.7 1.8.1.2-.2.3-.4.3-.6V27.2c-.1-.3-.2-.5-.5-.8l-1.9-2c-1.1-1.1-2.1-2.1-3.3-3.1-3.6-3-7.4-6-11.2-8.9-1.9-1.5-4.1-2.4-6.2-3.6-.8-.4-1.3-1.1-1.8-1.7-.4-.5-.5-1-.3-1.6.2-.6.8-.5 1.3-.6.8-.1 1.4.2 2.1.5 4.9 2.4 9.6 5 14.3 7.7.4.2.8.5 1.1.7 2.6 1.7 5.1 3.5 7.5 5.5 1.2.9 2 2.3 3 3.4.4.5.1 1-.3 1.3-.3.3-.6.4-.9.6-.3.2-.8.4-.6.9.1.4.6.5 1 .6.6.1 1.2.1 1.7-.2 1.8-.7 3.2.5 4.4 1.7.3.3.4 1 1 .8.6-.2.7-.9.6-1.4-.1-1.6-.5-3.1-.9-4.7-.9-3.9-2.8-7.5-4.4-11.2-.6-1.3-1.2-2.7-1.7-4-.3-.7.1-1.4.5-1.9.3-.4.9-.1 1.3.2 1.6.7 2.5 2 3.3 3.5.8 1.6 1.9 3 2.7 4.6 1.5 2.7 3.4 5.2 4.6 8 1.8 4.1 4 7.9 5.1 12.3.9 3.9 2.2 7.7 2.6 11.7.2 1.5-.1 3 .1 4.4.4 2.9-.1 5.7-1.3 8.3-.3.7-.2 1.4.1 2.2 2.6 5.6 4.8 11.3 7 17.1.3.8.2 1.1-.6 1.3-5.1 1.5-10.1 3-15.2 4.6-.7.2-1 0-1.2-.6-1.1-3.3-2.4-6.7-3.6-10.1zm-31.7 31.9c2.1-.7 4.1-1 6.3-.3 0 0 .1 0 .2.1 2.7.8 5.5 1.5 8.1 2.7.4.2.9.4 1.2.8 1.7 1.2 3.2 2.6 4.5 4.2 2 2.6 4 5.2 5.8 8.1-.1 0-.2-.1-.3-.1-.7-.3-1.3-.7-1.9-1.1-2.3-1.4-4.6-2.6-7.1-3.7-1.1-.5-2.3-.8-3.5-1.1-3.2-.6-6.3-.7-9.5-.4-.9.1-1.8 0-2.7 0-.7 0-1-.3-1-1 0-2.5.1-5-.6-7.3-.2-.5.1-.7.5-.9zm-.6 18.2c0-.1 0-.2.1-.2s0-.1.1-.2c0-.1 0-.1.1-.2v-.2c0-.1 0-.1.1-.2V117c0-.9.3-1.2 1.1-1.2h3.3c.4 0 .9 0 1.3-.1 1.3 0 2.7.1 4 .3 2.3.2 4.4.6 5.8 1.7 1 .4 2 1 2.9 1.5l6.9 4.2c.5.3.9.7 1.2 1.1.8 1.1 1.6 2.2 2.3 3.3.1.2.3.4.2.6 0 .1-.1.1-.2.2-.2 0-.4 0-.5-.1-1-.6-2.1-1.1-3.1-1.7-3.6-2-7.4-3.4-11.4-4.5-.3-.1-.7-.2-1-.3-1.1-.3-2.2-.6-3.4-.8l-1.6-.4c-.1 0 0 .1.2.3 0 0 .1.1.1.2.1.2.3.3.4.4 0 0 .1.1.2.1 2.4 1.2 6.4 2 9.4 3.3h-.1l-.2-.1-1-.5c-.1 0-.2-.1-.3-.1h-.1.1c.1.1.2.1.3.1l1 .5s.1 0 .1.1c.2.1.5.2.7.3 1.6.9 3.1 1.9 4.6 3l2.8 2.2c4.2 3.1 6.8 7.2 8.1 12.2 0 .2.1.3.1.5l.1.2c.2.3.3.7.2 1v.2c0 .7-.6.4-1 .4-2.2-.1-4.3-.6-6.4-1.2h-.1c-.5-.2-1.2-.4-1.7-.6-2.2-.8-4.3-1.7-6.4-2.5-2.6-.9-4.7-2.7-6.9-4.3-3.7-2.6-7.3-5.4-10.5-8.5-.3-.3-.7-.7-.8-1.1-.2-.5-.4-1.1-.7-1.6l-.4-1-.3-.6v-.2c.2 0 .1-.4.3-.7zm15.8 1.5-.2-.1.2.1zm-.3-.1c-.2-.1-.4-.1-.5-.2-.1 0-.1 0-.2-.1.1 0 .1.1.2.1s.3.1.5.2zm-5-1.7-.2-.1.2.1zm-1.3-.4v-.3c.1 0 .2.1.3.1-.1.1-.3.1-.3.2zm-11.1 5.5c.1-.2.2-.4.4-.3.1 0 .2.1.2.3.8 1.6 1.9 2.9 3.1 4.2 1.3 1.3 2.7 2.4 4.1 3.6 2.8 2.5 5.7 5 8.6 7.5 1.9 1.6 4.1 2.4 6.5 3 5.4 1.4 11 1.9 16.5 2.7 1.5.2 2.8.7 3.9 1.6h-.1c.1.1.2.1.3.2-3.1-.5-6.2-.4-9.3-.5-3.4-.1-6.7.3-10.1.7-1.2.1-2.4 0-3.5-.3-3.2-.7-6.3-2-9.3-3.3-3.4-1.5-6.3-3.7-9-6.2l-.6-.6c-.9-.9-1.6-1.9-2.1-2.9v-.1c-.9-2.2-.9-4.7-.2-7.4.1-.7.4-1.5.6-2.2zm27.3 44.1h-.7c-.4 0-.8.1-1.2.1-.5 0-.7.2-.9.6l-.6 1.2s0 .1-.1.2c-.8 1.9-1.9 3.6-3.3 5-.3.3-.6.6-1 .9-.8.8-1.7 1.5-2.6 2.1-1.5 1.1-3.2 1.7-4.9 2.3l-.4.2c-.1 0-.2.1-.4.2-.1 0-.1 0-.2.1-.1 0-.2.1-.3.1-.4.2-.7.4-.5 1 .2.6.7.8 1.2.8h.4c.5-.1 1.1-.2 1.6-.4l1.5-.6c.4-.2.7-.3 1.1-.4-.3 1.3-.5 2.5-.9 3.6-.1.2-.2.4-.2.6-.3.7-.6 1.3-.9 2-.2.4-.4.9-.7 1.3-1.2 2.4-2.6 4.7-4.2 6.9-.3.4-.7.9-1.1 1.3-.8.9-1.7 1.6-2.6 2.3-.4.3-.7.5-1.1.8-.7.4-1.4.9-2.2 1.3l-1.8.9-.7.3c-.2.1-.4.2-.6.2-.2 0-.3.1-.5.2-.4.2-.9.3-1.3.5-.1 0-.3.1-.4.1-.4.2-.9.3-1.4.4-1.4.4-2.8.8-4.3 1.1-.6.1-1.1.2-1.7.3h-.2c-.6.1-1.1.2-1.7.3l-1.8.3c-2.1.3-4.1.1-6.1-.2-.1 0-.2 0-.2-.1-.1 0-.2-.1-.3-.1l-1.5-.6c-.7-.4-1.3-.7-1.9-1.1-.5-.2-.9-.5-1.4-.8-.6-.4-1.2-.7-1.7-1.1-1-.8-1.9-1.6-2.4-2.9-.3-.7-.6-1.4-1-2l-.3-.6c-.8-1.4-1.8-2.6-2.9-3.8-.4-.5-.9-1-1.3-1.5-.2-.3-.4-.5-.7-.7-.9-1-1.8-2-2.7-2.9l-.7-.7c-1-.9-2-1.8-3-2.6-.3-.2-.5-.4-.8-.6-.8-.6-1.7-1.1-2.5-1.6-.2-.1-.4-.2-.6-.4-.2-.1-.4-.3-.6-.4-2.9-1.9-5.2-4.4-6.5-7.8 0-.1-.1-.1-.1-.2-.5-1-1.1-1.3-2.3-1.3-.9 0-1.8-.2-2.6-.5-.5-.2-1-.5-1.4-.9l-.2-.4-.6-.9c-1.5-2.2-2.9-4.5-4-6.9v.1l-.1-.1v.1c-.2-.7-.5-1.4-.8-2.1-.1-.3-.3-.6-.4-.9-.1-.4-.2-.8-.2-1.1v-.5c0-.1.1-.2.1-.3 0-.1 0-.1.1-.2 0-.1.1-.2.1-.3.3-.5.7-1 1.3-1.5.2-.2.5-.4.7-.5.5-.4 1-.7 1.5-1 .7-.5 1.5-.9 2.3-1.3 2.8-1.5 5.9-2.5 9-3.3.2 0 .4-.1.6-.1.4-.1.7-.1 1.1-.2H101.5c1.3-.1 2.5-.1 3.8-.2 1.9-.1 3.8-.3 5.7-.5l5.7-.6c3.4-.4 6.7-1.2 9.9-2.5.7-.3 1.3-.6 1.9-.9l1.2-.6c.2-.1.4-.2.7-.4l4.5-2.4c.2-.2.3-.3.6-.4h.1v.1c0 .2-.1.3-.2.4-.1.1-.2.1-.2.2-1.5 1.9-3.5 3.1-5.2 4.7-.2.2-.4.3-.5.5-.6.5-1.1.9-1.7 1.4 2.2 0 4.3-.3 6.3-.8 2.8-.8 5.4-2.3 7.6-4.6.5-.5 1-1.1 1.5-1.7 1.1-1.4 2.1-3.1 2.9-5.1.7 2.4 2.4 4.1 3.9 6 .1.1.2.3.3.4.1.1.2.3.3.4.2.3.4.5.6.6.2.1.3.3.5.4.2.1.3.2.5.4.1.1.2.1.2.2 1.1.9 2.2 1.7 3.3 2.5.8.6 1.5 1.1 2.3 1.6 1.2.8 2.3 1.6 3.4 2.4 1.6 1.1 3.2 2 4.9 2.8.4.2.9.4 1.3.6 1.3.5 2.6 1 4 1.5l.2.1c.8.2 1.7.3 2.6.4.3 0 .7.1 1 .1.2 0 .4.1.6.3.2.1.5.3.7.5.8.7 1.5 1.7 1.6 2.3v.3s0 .1-.1.1c-.1.2-.3.3-.4.5-.3.5-.6 1.1-.9 1.6-.1.1-.1.2-.1.3-.3.8-.5 1.7 0 2.7 1.2-1.2 2.3-2.5 3.1-3.9l.6-1.2.3-.9c.1-.3 0-.6.1-.9.1-.3-.3-.7-.1-.9 0 0 .1-.1.2-.1h.3c.2 0 .4-.1.6-.1.5 0 1 .1 1.5.2.3.1.2.5.2.8-.1.9-.4 1.7-.8 2.5l-.3.6c-.6 1.4-1.1 2.7-2 3.9-1.5 1.5-2.9 3-5.2 3.1zm2.7 4.7c-.3 1.8-.6 3.5-.9 5.3-.1.5-.1 1-.5 1.7l-.1-.5c0 .1-.1.2-.1.3-.4-2.6-.7-5-.8-7.4 0-.6.4-.7.7-.8.6-.2 1.3-.9 1.7-.6.1.1.1.1.1.2 0 0 .1 0 .1.1.5.3-.1 1.1-.2 1.7zm-37.2 37.3c-.9.2-1.9.2-2.9.2s-1.9-.1-2.9-.3c-.5-.1-.7-.5-.7-.9 0-.3.2-.3.4-.3H137.9c.8 0 1.7-.1 2.5-.3h.4c.3 0 .6 0 .6.6 0 .5.1.9-.6 1zm-46.9-22.5c.5-2.1.3-4.2.6-6.3.1-.4.3-.4.5-.2l1.2 1.2.2.2c.2.2.2.4.1.6-.8 1.6-1.6 3.1-2.3 4.7-.1 0-.2-.1-.3-.1v-.1zm81-34.9c-.9-.1-1.8-.3-2.7-.3-1.8.1-3.2-.9-4.7-1.7h.2c-.1-.1-.3-.1-.4-.2.3 0 .5 0 .8.1.3 0 .6.1.9.2 2.5.5 4.9-.2 7.4-.5s4.7.6 6.9 1.9h-.1c.1 0 .2.1.3.2-3 .4-5.8.6-8.6.3zm-94.2-32.1c.8-1.6 1.8-3.1 2.7-4.6.5-.7 1-1.5 1.5-2.2.3-.4.5-.7.8-1.1.8-1.1 1.6-2.1 2.5-3.1.9-1 1.7-2 2.6-3 .9-1 1.8-2 2.6-3 .4-.4.8-.7 1.2-1l.4-.2c.8-.7 1.5-1.4 2.5-2.2l.1-.1c.2-.2.5-.4.7-.7 2.5-2.4 5.4-4.2 8.3-6.1.3-.2.6-.4.9-.5.4-.2.8-.3 1.2-.5.1-.1.2-.1.3-.1.6-.2 1.2-.5 1.8-.7.4-.1.8-.3 1.2-.4 1.5-.4 2.9-.8 4.3-1.2 2.7-.9 5.4-1.2 8.2-1.2h1.2c2.1.1 4.1.9 6 1.7.8.4 1.7.7 2.5 1.1l.6.3c.6.3 1.2.6 1.8 1 .4.2.8.5 1.2.7.4.3.8.5 1.1.8.8.5 1.5 1.1 2.2 1.7 2.3 2.1 3.9 4.6 4.9 7.5.7 2.1 1.2 4.3 1.4 6.5.2 2.1-.5 4.2-1 6.2-.1.3-.2.4-.3.4-.2-.1-.2-.2-.4-.4-.8-.9-1.5-1.7-2.3-2.6-2.9-3.4-6.5-5.9-10.9-7.2-3.4-1-6.9-1.5-10.4-1.6-2.8-.1-5.6.4-8.4 1l-6.6 1.2c-1.4.3-2.7.9-4 1.5-.6.3-1.2.6-1.9.8h-.2c-3.9 1.4-7.3 3.8-10.7 6-.9.6-1.7 1.5-2.5 2.3l-.1.1-.7.7c-1.6 1.5-3.1 3.1-4.9 4.5-.8 1.1-1.8 1.8-2.8 2.8.1-1.9.6-3.6 1.4-5.1zm-.7 10.1c.1-.2.3-.4.4-.6 3.5-3.4 6.8-7.1 10.7-10.1 6.4-5 13.5-9 21.5-10.7 2-.4 3.9-.7 6-.7 2.3 0 4.6-.1 6.9-.2 4.4-.2 8.5 1.1 12.2 3.4 1.4.8 2.6 1.8 3.8 3l.1.1c1.3 1.3 2.4 2.7 3.4 4.3.8 1.4.6 2.8.3 4.3-.8 4.2-3.3 7.4-6.2 10.3-2.8 2.8-6.2 4.7-9.5 6.8-4.6 3-9.8 4.2-15.1 5-6.6 1-13.3 1.1-20 2-2.4.3-4.9.5-7.3.9-2.9.5-5.3 1.9-7.1 4.3-.7.9-1.1 2-1.7 3.2 0-.1-.1-.2-.1-.4-.4-1.4-.1-2.6.4-3.7 1.2-2.6 3.1-4.4 5.6-5.7 4.3-2.3 9.2-2.7 13.9-3.9 3.8-1 7.6-1.5 11.4-2.5 5.2-1.4 10.2-3.3 14.9-5.8 2.5-1.3 5.1-2.6 6.9-5.1 1.3-1.8 1.6-3.7 1.3-5.8-.1-.4-.2-.5-.3-.6-.1 0-.3.1-.5.3-1.9 1.7-3.8 3.3-6 4.7-3.3 2.2-7 3.5-10.9 4.4-6.1 1.5-12.2 2.8-18.5 3.2-4.4.3-8.8 1.1-13 2.5-3.6 1.2-7.2 2.5-10.1 5.1-.4.3-.8.6-1.4 1 0-.2.1-.3.1-.4-.1.1-.2.1-.3.2v-.1c.1-.1.2-.1.2-.2.2-.8.5-1.5.9-2.1 2.6-3.3 4.9-6.9 7.1-10.4zm25.1 6.6 5.5-.9 1-.2c-1.1.6-2.4.9-3.6 1.1-5.9 1.5-11.8 2.3-17.8 3.4-4.3.8-8.1 2.5-11.6 5.1-.2.2-.4.3-.7.5-.3.2-.4.1-.5-.1v-.2c-.1-1.5.4-2.2 1.7-2.9 1.9-.9 3.8-1.8 5.7-2.6 2.5-1.1 5.1-1.5 7.8-1.8 4.2-.4 8.3-.9 12.5-1.4zm-.2-.2zM83.4 42.6c.1.3.1.5-.2.7-.9.6-1.8 1.1-2.7 1.7-.1.1-.2.1-.5.2-.1-.1-.2-.4-.3-.5L74 38.2c-.3-.3-.5-.6 0-.9 1.9-1.1 3.3-2.8 5.2-3.7.5-.2.7-.3.9.3 1.4 2.8 2.3 5.8 3.3 8.7zM68.1 29.3c2.7-1 5.3-2 7.9-3.1 3.8-1.5 7.3-3.7 10.9-5.6.4-.2.7-.5 1.1-.7.3-.2.6-.6 1-.4.5.3.3.8.3 1.4.1.6-.3 1.2-.9 1.7-3.6 3.4-7.4 6.6-11.3 9.7-1.5 1.2-3.4 1.8-5.1 2.7-.4.2-.6 0-.8-.3-1.3-1.6-2.5-3.2-3.7-4.9-.4-.4.3-.3.6-.5zM45.3 63.7C42.4 54.9 39.4 46 37 37c-.6-2.1-.8-4.3-1.2-6.4-.1-.6.3-1 .7-1.2.6-.3.6.4.8.6 3.9 5.5 6.6 11.6 9.9 17.5 1 1.8 2 3.5 3.1 5.2.2.3.4.6.9.4.6-.2.5-.6.4-1-.4-1.8-1.3-3.4-2-5.2-.3-.6-.3-1.1 0-1.7 1.4-3 3.4-5.6 5-8.4 1.5-2.6 3.3-4.9 4.7-7.5.7-1.3 2.4-1.6 3.5-.5.8.7 1.4 1.5 1.9 2.4 1.8 2.9 4.3 5.3 6.8 7.7 1.7 1.7 3.4 3.4 5.3 4.9.6.5.7 1.3 1 2 .1.3 0 .5-.2.6-.1.1-.3.1-.3.2-1.5 1.3-2.9 1.1-4.6.2-3.4-1.7-6.4-4-9.1-6.8l-.3-.3c-1.2-.9-1.3-.9-1.8.5-.6 1.4-.9 2.9-1.5 4.2-.2.5.1 1 .5 1.3.4.4.7 1 1.4.9.3-.1.5-.2.6-.6.2-.8.4-1.7.6-2.7 2.7 2.3 5.8 4.1 8.8 6.1-1.1.6-2 1.1-2.9 1.7-7.5 4.2-15 8.4-22.4 12.6-.8.7-1 .8-1.3 0zm2.6 5.9c-.3-.6-.2-.8.4-1.2 9-5.6 18.1-11.2 27.1-16.8.5-.3.9-.1 1.4-.2 1.6-.4 3.1-.8 4.5-1.7.1-.1.3-.1.3-.2 1-2.2 3.2-3 5.1-3.9 4.3-2 8.6-3.8 12.4-6.6.9-.7 1.8-.4 2.5.1.6.5 1.1 1.3.8 2.3-.3 1.2-.8 2.2-1.7 3-3.6 3.4-6.6 7.3-9.2 11.4-2.4 3.8-4.8 7.5-6.5 11.6-.4.8-.9 1.5-1.5 2.2-2.5 2.9-5.5 5.1-9 6.7-.8.4-1.1.9-1.1 1.7-.1.6-.3 1.2-.3 1.9-.1 1.6-.6 3-2 4-.4.3-.5.9-.6 1.3l-2.9 9.6v.2c0 .2 0 .3-.2.4-.4.1-.8 0-1.2-.2-4.7-1.1-9.3-2.3-13.9-3.5-.6-.1-1.1-.3-1.7-.4-.9-.1-1-.6-.6-1.3.6-2.9 1.3-5.9 3.1-8.3.4-.6.4-1 0-1.6-2-3.5-3.5-7.1-5.2-10.5zm-9.7 38.3c-.1 0-.3 0-.4-.1-.5-.1-.6-.4-.5-1 .6-5 1.1-10 1.6-15 0-.1 0-.2.1-.3 0-.1.1-.1.1-.2.1-.2.2-.2.4-.2.1 0 .3 0 .4.1 6.8 1.8 13.5 3.6 20.3 5.4 6.8 1.8 13.5 3.5 20.3 5.3.7.2.9.4.6 1.1l-2.9 9.6c-.1.4-.2.8-.6.8h-.2c-3.6-.5-7.2-1-10.9-1.5-2.4-.3-4.7-.7-7.1-1-7.1-1.1-14.2-2-21.2-3zm5.5 9.7c-.1-.4-.1-.7 0-.9 0-.1.1-.3.2-.4 0 .1 0 .1.1.2 0 .2-.1.6-.3 1.1zm62.1 93.8c-.3 0-.3.2-.4.2l-.2.2c-.1.1-.3.2-.4.3-.3.2-.7.5-.8.9V213.3h.1v.2c-.3.7-.4 1.3-.5 1.6 0 .1-.1.2-.1.3 0 .1-.1.1-.1.2l-.1.1c-.1.1-.2.1-.3.1h-.1c-.2 0-.3 0-.5-.1-.4-.1-.8-.3-1.4-.5h-.1s-.1 0-.1-.1c-.1-.1-.2-.1-.3-.1h-.1v-.1c-.8-.3-1.5-.4-2.1-.7-.4-.2-.8-.3-1.3-.5-.5-.1-1.1-.4-1.6-.4-1.5-.5-2.9-.8-4.3-1.3h-.5c-1-.2-1.8-.5-2.8-.6-.9-.2-1.3-.6-1.2-1.6.1-.4 0-.8 0-1.2v-.4l-.6-.9c-.1-.1-.1-.2-.2-.3-.1-.1-.4-.3-.4-.4-.3-.1-.2-.1-.2-.2-.8-.7-.6-1.7-.5-2.6v-.3c0-.2.1-.4.1-.6v-.3c.4-1.6.5-3-1.2-4-.2-.1-.3-.3-.6-.4v.1c-.8-.6-1.6-1.2-2.4-1.7-.1-.3-.2-.3-.4-.4-1.3-.7-2.3-1.5-3.2-2.4-.3-.2-.5-.3-.8-.4h.1c-.2-.3-.3-.2-.5-.4s-.4-.3-.6-.4c-1.3-1.1-3-2.1-4.3-3.3-.5-.2-.8-.5-1.2-.8-1.3-.9-2.6-1.8-3.9-2.8-.2 0-.2-.1-.4-.3-.8-.4-1.5-1-2.2-1.5-.2-.3-.4-.3-.6-.3-.6-.5-1.1-.7-1.6-1.2-.2-.1-.4-.3-.6-.4-1.5-.9-2.9-1.8-4.1-3l-.1-.1c-.1-.1-.2-.2-.2-.3-.1-.1-.2-.3-.3-.5 0-.1-.1-.3-.1-.4v.2c-.9-1-1.5-2.1-2.3-3.1l-.1-.2c0-.1-.1-.1-.1-.2v-.3c0-.2.1-.4.3-.6v-.2c.3-1.6 1.1-3.1 1.8-4.6v-.7c0-.1 0-.1-.1-.2l-.1-.1s-.1-.1-.2-.1h-.1c-.2 0-.4.1-.6.2-.2.1-.4.3-.6.5l-.2.2-.2.2-.1.1c-.5.6-1.3 1.1-1.9 1.6-.1.1-.4.3-.4.4h-.1c-.2.3-.5.3-.8.1-1.1-.5-2.2-.9-3.2-1.4-.3-.1-.4-.4-.4-.7 0-.1-.1-.2-.1-.3 0-.1-.1-.2-.1-.3v.1c-.4-1.8.2-3.1.6-4.6v-.4c.3-1.5.4-3 .8-4.4v-.7c-.2-1.6-.2-3.2-.4-4.8v-.8c-.2-3-.4-6-.5-9-.2-6.3-.7-12.5-.6-18.8 0-1-.2-1.9-.5-2.7l-.3-.6c-.3-.6-.7-1.1-1-1.7-.6-.8-.8-1.5-.5-2.5.4-1.5.7-3 .9-4.5.1-.7.3-1.1 1.1-.8.3.1.7.1 1 .1 1.3.3 2.7.3 4 .7.1 0 .2 0 .4.1 1.2 0 2.5.2 3.8.5.1 0 .3 0 .4.1l4.5.6c.4 0 .7 0 1 .2h.1c1.8.2 3.1.3 4.7.6h-.2v.1c1 .1 1.7.3 2.4.4.8.1 1.6.3 2.4.3h.2c.1 0 .2.1.2.1.5 0 .7.3.8.7.4 2.4.7 4.8 1.2 7.2 0 .2.1.3.1.5.1.4.1.8.2 1.2.2 1.2.4 2.3.7 3.5v.5c.3 1.5.5 2.9.8 4.3v.5c-.5.5-.9 1.1-1.4 1.7-.7 1-1.3 2-1.8 3.1-.3.8-.7 1.6-1.1 2.4-.3.8-.7 1.6-1 2.3 0 0 0 .1-.1.1-.1.1-.1.3-.1.3-.4 1.1-.9 2.2-1.4 3.3-.2.4-.4.7-.6 1.1-.1.2-.3.4-.3.6-.3 1-.5 1.9-1 2.8-.2.8-.4 1.6-.8 2.4-.3 1.5-.8 2.8-1.4 4.1-.1.2-.2.4-.2.6v.1c0 .1-.1.2-.1.3 0 .1 0 .2-.1.3v.1c-.1 2.6-.3 5.2-.4 7.8l.2.1c.3-.7.7-1.3 1-1.9.3-.6.6-1.3.9-1.9.2-.5.5-.9.5-1.4.8-1.3 1.4-2.5 2.2-3.7.1-.1.2-.2.3-.5.7-1 1.4-2.3 2.2-3.5.3-.4.6-.8.8-1.3.2-.5.5-.6.7-.8.2-.2.4-.5.9-.7 0 .2.1.4 0 .6v.1c0 .1 0 .2-.1.3v.1c0 .1 0 .1-.1.2v.2c0 .1-.1.1 0 .2v.2c-.2 1.5-.2 3.2-.3 4.8v.3c.2 1.5.5 3 .7 4.5 0 0 .1.3.1.5.3 1.5.6 3 .8 4.6v.2c0 .1.1.2.1.3.3 1.2 1.2 2 1.7 3.1.4.6.8 1.3 1.2 1.8 1.3 1.1 2.3 2.2 3.7 3.2.2 0 .4.3.6.3v.1c.5.1.9.5 1.5.3.1 0 .2-.1.3-.1.1-.1.2-.1.2-.2.1-.2-.1-.4-.3-.4-2.1-1.3-1.7-3.4-2-5.5h.7c.5.5.9 1 1.3 1.5l.3.3c.2.2.4.4.5.6l1.1 1.1c.4.3.8.7 1.3.9.2.1.4.3.6.3H86c1.5.7 2.8 1.4 4.2 2.2.3.1.6.2.8.4.5 1.5 1.1 3 1 4.8.1 0 .1.2.1.3v.3c.2 1.5.2 2.9 0 4.4.1.1 0 .3 0 .4v.1c0 1.5 0 2.9-.4 4.3 0 1.4-.5 2.8-.6 4.2v.2c-.1.3-.2.6.4.5 1.4-1.4 2.7-2.8 4-4.4v.1c0-.5.3-.8.6-1 .5-.5 1.1-1.4 1.6-2.1.5-.7 1.1-1.4 1.6-2.2v-.1c.1-.3.2-.4.3-.5.1 0 .1-.1.2-.1h.2c.2 0 .3.1.5.2.3.2.6.3.8.5 1.5.8 3.2 1.4 4.3 2.8.1.1.3.2.4.4.5.3 1 .8 1.4 1.4l.4.4s.1 0 .1.1c2 1.7 2.1 2.6.7 4.8-.1.1-.1.2-.2.2-.1.2-.1.4-.3.6 0 .1-.1.3-.2.4 0 .1-.1.1-.1.2-.4.6-.8 1.2-.9 1.9-.1.6-.2 1.2-.1 1.8.3 1 .5 2 .7 3 .1.6.3 1.2.3 1.8 0 1.2-.7 2.1-2 2.7zm6.7 12.3c-.3.4-.4 1.2-.9 1.2H111.3c-1-.1-2-.4-2.8-.9-.3-.2-.2-.6-.2-.9v-4.8c0-.3.1-.7-.2-.9-1.1-.7-.8-1.9-1.1-2.9-.1-.4.2-.6.4-.9 1-1.1 1.9-2.2 2.9-3.2.7-.7.9-1.5.5-2.3-.9-1.7-.8-3.3 0-5.1.6-1.4 1-2.8 1.5-4.4l.2.2c1 1.2 2 2.3 2.6 3.5 1.6 3 3.9 5.3 6.9 6.9 1.4.8 2.7 1.8 4.3 2h.2c.2 0 .4 0 .4.3 0 .2-.2.2-.3.1H126.3c-1.8.1-3.5.3-5.2.7l-2.7.6c-.8.2-1.6.4-2.4.5h-.2c-.4.1-.5.3-.5.6.1.4.2.7.7.8.9.2 1.8.2 2.7.2h.1c1.2 0 2.5-.1 3.7-.4 1.4-.2 2.7-.3 4.1-.3 1.3 0 2.7.1 4 .3-4.5.7-8.2 3.3-12.3 5-2.1.9-3.7 2.6-5.8 3.6.3 0 .2.3 0 .5zm13.1 3.3s-.1 0 0 0l-.1.1h-.1c-.1 0-.1-.1-.1-.1-2.9-.7-5.9-1.5-9-2.2 1-.8 1.8-1.3 3-.8 2.1.8 4 1.9 6 2.9.1 0 .2 0 .3.1 0-.2 0-.1 0 0zm8.8 9.6c-.5.8-1.2 1.4-1.9 1.9-1.5 1.1-3 1.9-5.1 2.5.7-2.3 1.3-4.3 2.6-6.1.8-1.2 2.7-1.5 3.9-.8.9.5 1.1 1.6.5 2.5zm11.7-13.4c-2.3 1.9-4.6 3.7-6.8 5.8-.5.5-.9.5-1.5.2-3.7-2.2-7.5-4-11.5-5.7-1.7-.7-3.6-1-5.4-1.7.2-.4.6-.4.9-.5 3.8-1.4 7.8-2.7 11.5-4.4 1-.5 2-.1 2.9 0 1.4.2 2.8.2 4.1-.5.2-.1.5-.2.8-.1 2.9 1.2 5.8 2.4 8.9 3.6-1.2 1.2-2.5 2.3-3.9 3.3zm18-12.7c-1.2 1.6-1.4 3.3-.8 5.1.7 2.2.2 3.6-1.9 4.7-.5.3-.9.4-1.3.4-.3 0-.6-.1-.9-.3-3.9-2.7-8.6-3.6-13-5.2-.6-.2-1.2-.5-1.9-.6-.8-.2-.7-.7-.6-1.2.1-.4.3-.4.5-.4.2-.1.5.1.7.2 5 1.3 10.1 2.3 15 4.1.2.1.3.1.5.1.4-.1.5-.4.4-.9-.1-1.1-.2-2.2-1.5-2.8-3.2-1.5-6.7-2.2-10.2-2.4-.5 0-1-.1-1.6-.1 2.5-1.5 5.2-2.3 7.5-4.2.3-.2.5-.5.8-.7l4.2-5.1c.2-.3.3-.6.5-.8 0 0 .1 0 .1.1l.1-.1c.4.2.4.5.5.8 1.1 2.6 2.1 5.2 3.1 7.8.2.5.2 1-.2 1.5zm53.8-106.9c.1.1.1.2.2.3v.2c0 .1-.1.1-.2.2s-.1.1-.1.2c0 0 0 .1-.1.1v.2c-1.5 1.5-1.1 3 .1 4.3.1.1.2.3.2.4 1 1.3.2 2.7 0 4 0 .1 0 .2-.2.2h-.1c-.1 0-.2 0-.3-.1h-.1c-.9-.3-1.8-.5-2.6-.8-.1 0-.1 0-.2-.1-.1 0-.1-.1-.2-.1-.4 0-.9 0-1.2-.2-1.1-.5-2.2-.3-3.1.5 0 .1 0 .1-.1.2.4.6 1.1.8 1.8 1 2.6.8 4.8 2.4 7.1 3.6.6.3.7 1 .6 1.6 0 .4-.1.7-.2 1.1l-.8 3.2c0 .3 0 .6-.2.8 0 1.8-1.2 3.1-1.8 4.6-.1.1-.1.2-.2.4-.4 1.1-.9 2.1-1.4 3.1 0 .1-.1.2-.1.3v-.1.1l-.1.1s0 .1-.1.1c-.1.5-.2 1-.6 1.4-.4 1.6-1.2 3.1-2 4.5-.1.1-.1.1-.2.4-.7 1.5-1.3 3.3-2 5-.2.6-.3 1.2-.4 1.8l-.1.2v.1s0 .1-.1.2c0 .8-.1 1.4-.4 2-.1.4-.2.9-.4 1.3v.2l-2.1 9.6c-.6 2.6-.8 5.3-1.2 7.9-.4 2.5-.5 5-1.1 7.4-.4 1.8-1.4 3.4-2.2 5-.8 1.5-1.2 3.2-2.2 4.7l-.1.2c-.1.1-.1.2-.1.3 0 0 0 .1-.1.2 0 .1 0 .2-.1.4v2c-.2 2.7-.6 5.4-.4 8.1 0 .5-.1.8-.6 1l-.6.2c-.4.2-.8.3-1.2.5l-.6.3c-.3.1-.5.2-1 .4v-.1l-.1.1c-.5.2-.9.4-1.4.6-.3.1-.7.3-1 .4-.7.5-1.4.8-2.2 1l-.4.2-4.8 2.1-.2.1c-.9.3-1.7.8-2.6 1.2-.9.4-1.8.8-2.8 1.2-1.5.7-2.9 1.3-4.4 1.9h-.2c-1.3.5-2.7 1.2-4 1.8-.5.3-1.2.6-1.9.8-1.2.5-1.4.4-1.7-.8-.8-.6-.8-1.5-1.1-2.3-.3-.8-.5-1.6-.8-2.3 0-.3-.2-.2-.2-.4-.3-.4-.3-.7-.4-1v-.2c-.1-.1-.1-.1-.1-.2s-.1-.1-.1-.2h.1c-.4-1.1-.7-2.1-1-3.1-.3-.7-.7-1.4-.8-2.1v-.7c0-.1.1-.2.1-.4v-.2c.2-.5.5-1 .8-1.5.2-.4.3-.8.5-1.2.2-.4.3-.7.5-1.2.4-.8.7-1.6 1.2-2.5 0-.2.2-.4.2-.6.5-1.5 1-3.1 1.6-4.6 0 0-.1-.1 0-.2.2-.9 1-1.2 1.5-1.8.3-.1.4-.2.5-.2.2-.3.3-.4.5-.5.3-.3.5-.7.8-1 .1-.2.3-.4.4-.5.5-.7.9-1.4 1.4-2.1.2-.2.3-.6.6-.6h.1c.4.1.3.6.2.9-.3 1.2-.2 2.3 0 3.4.1.9.3 1.8.4 2.6v.4c.3.7.4 1.3.4 2 .2.9.4 1.7.6 2.5.8 1.6 1.3 3.1 1.8 4.8h.1c.9 1.3 1.7 2.7 2.6 4.1.3.3.5.7.8.9v.2c.3 0 .4.6.8.1-.1-.3-.1-.3-.2-.3-.1-.3-.2-.5-.3-.8-.1-.2-.1-.4-.2-.5-.1-.2-.1-.3-.1-.5 0-.1 0-.2-.1-.3 0-.2-.1-.3-.1-.5-.1-.3-.1-.5-.1-.8-.1-.3-.1-.5-.1-.8-.1-.1-.1-.2-.1-.3 0-.1-.1-.2-.1-.3 0-.3-.1-.6-.1-.9l-.2-1.8c0-.3-.1-.6-.2-.9-.4-3.3-.1-6.6.4-9.9h.2c.3-1.5.6-3.2.9-4.9h.3c-.1 2.7.2 5.5.8 8.1v.2c.4 1 .8 2.1 1.1 3.1.1.2.2.5.2.7l.3.6c.1.1.2.3.3.4.1.1.2.3.2.4.3.2.4.4.6.6.2.2.3.4.4.6.5.5 1.1 1 1.7 1.6-.1-.5-.1-1-.2-1.5 0-.5-.1-.9-.2-1.4l-.1-.1c0-.4-.1-.8-.1-1.1-.2-1.2-.3-2.3-.4-3.4v-.6c-.2-1.5-.2-2.9-.2-4.3v-.2c0-.1-.1-.2-.1-.4-.2-1.2-.1-2.4.1-3.5v-1.3c0-1.7.1-3.3.6-5v-.2c.1-.8.3-1.7.4-2.5.1-.8.3-1.7.4-2.5.1-.4.2-.5.4-.5.1 0 .3.1.4.2.2.1.4.2.5.3.3.2.5.3.8.5.3.2.5.4.7.6l.1.1c0 .1.2.1.2.1 1.8.9 2.7 2.4 3.9 3.7.2.2.4.3.6.5.3.3.5.7.6 1.1.8 1 1.4 2.2 1.8 3.4 0 .1.1.2.1.3 0 .1.1.1.1.3.2.3.3.6.5.9.1.3.2.6.4.9.1.2.1.3.2.4 0 .1.1.2.2.3.1.1.2.2.4.3.3-.9-.4-1.8-.1-2.7h.1c0-.3-.1-.3-.1-.4-.3-1.6-.5-3.2-1.1-4.8v-.4c-.6-1.5-.9-3-1.8-4.4-.2-.2-.3-.4-.4-.7-.3-.3-.4-.6-.6-.9-.1-.2-.3-.4-.4-.7v.2s-.1 0-.1-.1c-.7-1-1.5-2-2.3-2.9l-.1-.1c-.1-.1-.2-.1-.3-.4-.6-.3-1.2-1-1.8-1.5-.1-.1-.2-.1-.2-.2-.1-.1 0-.1-.3-.2-1.3-.9-2.2-1.9-3.3-2.7-.2-.3-.5-.1-.6-.5 3.2-.2 6.4.2 9.7.4v-.1c1.6.3 3.1.6 4.6 1.2 0 0 .1.1.2.1 1 .2 2 .7 2.9 1.1.2.1.5.4.7.1.2-.3-.1-.5-.3-.7-.4-.5-.7-1.1-1.1-1.6-.1-.1-.2-.3-.2-.4-.8-.7-1.3-1.6-2-2.3-.2-.2-.4-.4-.6-.7-.8-.5-1.5-1.1-2.2-1.8-.1-.1-.3-.2-.4-.2-.3 0-.7-.4-1-.6-.3-.2-.7-.4-1-.7-.1-.1-.3-.1-.4-.2-1.5-.6-3.1-1.1-4.6-1.7h-.4c-.3 0-.6-.1-.8-.3-.1-.1-.2-.2-.3-.4 0 0 0-.1-.1-.1-.1-.2-.1-.4-.1-.7.1-.8 0-1.6-.1-2.3 0-.2-.1-.4-.1-.7 0-.2-.1-.4-.2-.6 0-.2-.1-.4-.2-.7l-.3-.9s-.1 0-.1-.1c-.3-1.5-.9-3.1-1.3-4.6-.1-.2-.1-.4-.2-.6-.4-.8-.6-1.2-.6-1.8V131.1c.1-.3.1-.6.2-.9.1-.4.2-.8.4-1.1v-.2c.3-1.8 1-3.3 1.5-4.9 0 0 .1 0 .1-.1l.1-.1s.1 0 .1-.1c.5-.7.6-1.3.6-1.9 0-.4-.1-.7-.3-1.1-.2-.5-.4-.9-.6-1.3 0-.1-.1-.1-.2-.1v-.1c-1-1-1.6-2.4-2.2-3.7 0-.1-.1-.3-.2-.4-.1-.1-.1-.1-.1-.2v-.1c0-.1-.1-.1-.1-.2v-.1c0-.2.1-.3.1-.5.1-.1.1-.2.2-.3.1-.1.1-.2.2-.2l.1-.1c.7-1 1.3-2 2.1-3 .6-.8.8-1.6.5-2.6-.4-1.4-.4-1.5 1.1-2 .3-.1 3.3-1.3 4.5-1.6.2-.1.7-.3.8-.3.1 0 .1-.1.2-.1.2-.1.4-.2.6-.2l4.8-1.8h.2c1.5-.8 3.1-1.2 4.6-1.8.2-.1.4-.2.6-.2.3-.2 1-.4 1.3-.6 1.3-.4 2.3-1 3.4-1.2 1.7-1.3 3-.7 4.1.8.2.1.3.2.5.3.2.2.3.4.6.7a45 45 0 0 0 3.4 3.8zm-35.3 1.4c-.1 0-.3.1-.4.1-.4 0-.6-.1-.8-.6l-6.9-12.3c-.3-.5-.4-.8.4-1 14.9-4.3 29.7-8.7 44.6-13 .2-.1.3-.1.6-.2v.1c-.2 2.7-.5 5.2-.7 7.8l-.5 5.6c-.1.7-.3 1.1-1 1.4-11.8 3.9-23.6 8-35.3 12.1zm-73.2 56.5c4.2.4 8.3 1.2 12.4 1.8.6.1 1.1.1 1.6.4 1.3.7 1.9 1.8 2.4 3 .7 1.9 1 3.9 1.1 5.9.1 1.6-.2 2.9-1.5 4-1 .8-1.7 1.7-2.1 2.9 1.6 0 3 .3 4 1.6.7.9 1.5 1.6 2.3 2.3 1.9 1.7 4.8 1.3 6.1-.9.6-1 1.2-2 1.8-2.9.9-1.3 1.8-2.8 3.4-3.3 1-.3.6-.8.2-1.2-.7-.8-1.9-.9-2.9-.2-1.7 1-2.8 2.5-4 3.9-.4.4-.7.9-1.2 1.2-.6.4-1.1.5-1.7-.1-.6-.6-1.2-1.2-1.9-1.8-.6-.5-.7-.9-.3-1.5.7-1.4 1-2.8.9-4.3-.3-3.3-.8-6.5-3.1-9.1-.3-.3-.3-.4.1-.7 2.6-1.8 3.9-4.2 4.3-7.3.1-.8-.1-1.4-.7-1.6-.6-.2-1 .4-1.3.9-.6 1.1-1.4 2.1-2.2 3.1-1.1 1.5-2.7 1.9-4.4 1.6-6-.9-12-1.5-18-1.9-.3 0-.6-.1-.9.1-1.9 1.4-3.8 2.8-5.1 4.9.1 0 .2.1.2.1.2 0 .4-.1.6-.1 3.4-.8 6.6-1.1 9.9-.8zm55.9 2.3c-1.5.7-2.9 1.5-4.3 2.3-.4.2-.7.4-1.2.5-2.5.5-5 .8-7.6.8-1.5 0-2.7-.6-3.8-1.4-.7-.5-1.4-1.1-1.5-2.1.4-.1.7 0 1.1.1 1.3.2 2.6.7 4 .6 3.3-.2 6.3-1.2 9.4-2.2 1-.4 2-.7 3-1.1.5-.2.6-.3.2-.7-.5-.5-1-.4-1.5-.4-6.6 1-13.1.7-19.6-.5-1.9-.4-3.9-.5-4.6-2.8-.2-.6-.4-1.3-.5-1.9-.1-.7-.6-1.3-1-1.8-.3-.3-.6-.5-1-.4-.4.1-.4.5-.4.8 0 1.1.1 2.1.2 3.2.1 1.2.5 2.3 1.2 3.2 1.3 1.8 3.1 3 5.3 3.5 1.6.4 1.6.4 1.8 2.1.1.7.2 1.4.9 1.8 1.2.7 2.4 1.4 3.8 1.5.9.1 1.8.1 2.5.7 1 .8 2.2.9 3.3 1 .9.1 1.8.1 2.7.3.7.1 1.2-.1 1.7-.5 2.5-2.1 5-4.1 7.3-6.5-.4-.2-.8-.3-1.4-.1zm-20.6 20.3c-.2-.4-.5-.4-.8-.2-2 1.1-4.2 1.2-6.4 1.4-.9.1-2.1-.2-2.8.5-1.7 1.6-3.1 1-4.5-.2-.1-.1-.2-.1-.3-.2-2.2-1.2-4.3-1.6-6.5-.1-.8.6-1.8.9-2.8.7-.8-.2-1.4-.2-2 .4-.3.3-.7.5-1.1.7-1 .7-1 .8-.1 1.5.2.2.5.3.7.3 2.1.6 4 .2 5.9-.8 1.9-1 3.7-1 5.4.3 1.6 1.2 3.3 1.2 5 .5 2.2-.9 4.5-1.8 6.8-2.2.4-.1.7-.2 1 .1 1 .9 2 .3 2.9-.1.4-.2.4-.5.4-.8.1-.7-.5-1.1-.8-1.8zm-9.1 6.6c-2.5.1-5 .5-7.4 1.3-1.9.7-4.1 1.1-5.1 3.3-.6 1.3-.5 2.7-.9 4 .2 1 .2 2.1.8 2.9.2.3.3.7.7.6.5 0 .6-.4.7-.7.5-1 .6-2 .9-3 .5-1.6 1.2-2.9 2.9-3.7 1.8-.8 3.6-1.5 5.4-2.2.4-.1.7-.2 1.1-.1 2.2.3 4.6.2 6.6 1.5.2.1.4.2.7.1.8-.2.8-.4.4-1-1.8-2.1-4.2-3.1-6.8-3zm-17.5-22.8 4.5-.6c.4-.1 1 .1 1.1-.4.1-.5-.5-.8-.8-1.1-.2-.2-.5-.2-.7-.3-1.5-.6-3-.4-4.6-.2-3.1.6-6.2.8-9.3 0-.8-.2-1.7-.2-2.7-.3-1.2.3-2.5.6-3.7 1.1-.9.4-.9.9-.2 1.5.5.4.9.5 1.5.3 1.9-.7 3.6-.3 5.2 1s3.4 1.6 5.5.9c1.1-.4 2.1-1 3.1-1.6.3-.1.6-.3 1.1-.3zm-26.9 2.8c.1-1.4-.2-2.6-1.3-3.3-.8-.5-1.2-1.3-1.5-2.1-.4-1.1-.5-2.3-1.4-3.2-.3-.3-.4-.8-.9-.6-.5.2-1 .5-1.2 1.2-.5 2.3.6 4.6 2.9 5.8 1.1.6 1.9 1.3 2.4 2.4.2.4.2 1.1.8 1 .5-.2 0-.9.2-1.2z"/><path d="M43.9 116.4v-.2c-.1.1-.1.3-.2.4-.1.3-.1.5 0 .9.2-.4.3-.8.2-1.1" style="fill:#2e2e2e"/><path d="M180.3 168.3c.9-1.2 1.5-2.6 2-3.9l.3-.6c.4-.8.7-1.6.8-2.5v-.1c0-.3.1-.7-.2-.8-.5-.1-1-.2-1.5-.2h-.6c-.1 0-.2 0-.3.1-.1 0-.1.1-.2.1l-.1.1c-.2.2.2.6.1.9-.1.3 0 .6-.1.9l-.3.9-.6 1.2c-.8 1.5-1.9 2.7-3.1 3.9-.5-1-.4-1.9 0-2.7 0-.1.1-.2.1-.3.3-.6.6-1.1.9-1.6.1-.2.3-.3.4-.5 0 0 0-.1.1-.1v-.3c0-.6-.8-1.6-1.6-2.3-.2-.2-.5-.4-.7-.5-.2-.1-.5-.2-.6-.3-.3-.1-.6-.1-1-.1-.9-.1-1.8-.2-2.6-.4l-.2-.1c-1.3-.4-2.7-.9-4-1.5-.4-.2-.9-.4-1.3-.6-1.7-.8-3.4-1.7-4.9-2.8-1.2-.8-2.3-1.6-3.4-2.4-.8-.5-1.5-1.1-2.3-1.6-1.1-.8-2.3-1.7-3.3-2.5-.1-.1-.2-.1-.2-.2-.2-.1-.3-.2-.5-.4-.2-.1-.3-.2-.5-.4s-.5-.4-.6-.6c-.1-.1-.2-.3-.3-.4-.1-.1-.2-.3-.3-.4-1.5-1.9-3.2-3.6-3.9-6-.9 1.9-1.8 3.6-2.9 5.1-.5.6-1 1.2-1.5 1.7-2.2 2.3-4.8 3.8-7.6 4.6-2 .6-4.1.8-6.3.8.6-.5 1.2-1 1.7-1.4.2-.2.4-.3.5-.5 1.7-1.6 3.7-2.8 5.2-4.7l.2-.2c.1-.1.2-.2.2-.4v-.1h-.1c-.2.1-.4.2-.6.4-1.5.9-3 1.6-4.5 2.4-.2.1-.4.2-.7.4l-1.2.6c-.7.3-1.3.6-1.9.9-3.1 1.3-6.4 2.1-9.9 2.5l-5.7.6c-1.9.2-3.8.3-5.7.5-1.3.1-2.5.2-3.8.2H99.5c-.4 0-.8 0-1.1.1-.4 0-.7.1-1.1.2-.2 0-.4.1-.6.1-3.1.8-6.1 1.9-9 3.3-.8.4-1.5.8-2.3 1.3-.5.3-1 .6-1.5 1-.3.2-.5.4-.7.5-.6.5-1.1.9-1.3 1.5-.1.1-.1.2-.1.3v.2c0 .1-.1.2-.1.3v.5c0 .6.2 1.2.5 2 1.3 3.1 2.9 6.1 4.8 9 .3.4.6.8.9 1.1l1.4.9c.8.4 1.7.5 2.6.5 1.3 0 2 .4 2.4 1.6 1.3 3.3 3.6 5.9 6.5 7.8.2.1.4.3.6.4.2.1.4.3.6.4.9.5 1.7 1.1 2.5 1.6.3.2.5.4.8.6 1.1.8 2.1 1.7 3 2.6l.7.7c.9.9 1.8 1.9 2.7 2.9.2.3.4.5.7.7.4.5.9 1 1.3 1.5 1.1 1.2 2.1 2.5 2.9 3.8l.3.6c.4.7.7 1.3 1 2 .5 1.3 1.4 2.2 2.4 2.9.5.4 1.1.8 1.7 1.1.5.3.9.5 1.4.8.7.3 1.3.7 1.9 1.1.5.3 1 .5 1.5.6l.3.1h.2c2 .3 4 .4 6.1.2l1.8-.3c.6-.1 1.1-.2 1.7-.3h.2c.6-.1 1.1-.2 1.7-.3 1.4-.3 2.9-.7 4.3-1.1.5-.1.9-.3 1.4-.4.1-.1.3-.1.4-.1.4-.1.9-.3 1.3-.5.2-.1.3-.1.5-.2s.4-.2.6-.2l.7-.3 1.8-.9c.7-.4 1.5-.8 2.2-1.3.4-.3.7-.5 1.1-.8 1-.7 1.8-1.5 2.6-2.3.4-.4.7-.8 1.1-1.3 1.7-2.1 3-4.5 4.2-6.9.2-.4.4-.9.7-1.3.3-.7.6-1.3.9-2 .1-.2.2-.4.2-.6.4-1.1.6-2.3.9-3.6-.4.2-.7.3-1.1.4-.5.2-1 .5-1.5.6-.5.2-1 .3-1.6.4h-.4c-.6 0-1-.2-1.2-.8-.2-.6.1-.8.5-1 .1-.1.2-.1.3-.1.1 0 .1 0 .2-.1s.3-.1.4-.2l.4-.2c1.7-.7 3.4-1.3 4.9-2.3.9-.7 1.8-1.4 2.6-2.1.3-.3.7-.6 1-.9 1.4-1.5 2.5-3.1 3.3-5 0-.1.1-.1.1-.2l.6-1.2c.2-.4.5-.6.9-.6s.8-.1 1.2-.1h.7c2.6.2 4-1.3 5.3-3.1zm-89.4 3.5c-.6.1-.6-.6-.8-1-.5-1.1-1.3-1.9-2.4-2.4-2.4-1.2-3.4-3.4-2.9-5.8.2-.7.7-1 1.2-1.2.5-.2.6.4.9.6.9.9 1 2.1 1.4 3.2.3.9.6 1.6 1.5 2.1 1.1.7 1.4 1.9 1.3 3.3-.1.4.4 1.1-.2 1.2zm8.2-9.5c-.1 0-.1-.1-.2-.1 1.2-2.1 3.1-3.5 5.1-4.9.3-.2.6-.1.9-.1 6 .4 12 1 18 1.9 1.7.3 3.2-.1 4.4-1.6.8-1 1.5-2 2.2-3.1.3-.5.7-1.2 1.3-.9.7.2.8.9.7 1.6-.4 3.1-1.7 5.6-4.3 7.3-.4.3-.4.4-.1.7 2.3 2.6 2.8 5.8 3.1 9.1.1 1.5-.2 3-.9 4.3-.3.7-.2 1.1.3 1.5.7.6 1.3 1.2 1.9 1.8.6.6 1.1.5 1.7.1.5-.3.8-.8 1.2-1.2 1.2-1.4 2.3-2.9 4-3.9 1.1-.7 2.3-.6 2.9.2.3.4.8.9-.2 1.2-1.6.6-2.5 2-3.4 3.3-.7 1-1.2 2-1.8 2.9-1.4 2.2-4.2 2.6-6.1.9-.8-.7-1.7-1.4-2.3-2.3-1-1.4-2.4-1.6-4-1.6.4-1.2 1.2-2.1 2.1-2.9 1.3-1 1.6-2.4 1.5-4-.1-2-.4-4-1.1-5.9-.5-1.2-1.1-2.4-2.4-3-.5-.3-1.1-.3-1.6-.4-4.1-.6-8.2-1.4-12.4-1.8-3.3-.3-6.5 0-9.7.7-.4.1-.6.2-.8.2zm14.7 7.6c-2 .7-3.9.4-5.5-.9s-3.3-1.7-5.2-1c-.6.2-1 0-1.5-.3-.8-.6-.7-1.1.2-1.5 1.2-.6 2.6-.8 3.7-1.1 1 .1 1.9.1 2.7.3 3.1.7 6.2.6 9.3 0 1.5-.3 3.1-.4 4.6.2.3.1.6.1.7.3.4.3.9.6.8 1.1-.1.5-.7.3-1.1.4l-4.5.6c-.5.1-.8.2-1.2.4-.9.5-1.9 1.1-3 1.5zm28.1 25c-.3.1-.5 0-.7-.1-2-1.3-4.3-1.2-6.6-1.5-.4-.1-.7 0-1.1.1-1.8.7-3.6 1.4-5.4 2.2-1.7.7-2.5 2-2.9 3.7-.3 1-.4 2.1-.9 3-.2.3-.3.7-.7.7-.4 0-.5-.4-.7-.6-.6-.9-.6-1.9-.8-2.9.4-1.3.3-2.7.9-4 1-2.2 3.2-2.7 5.1-3.3 2.4-.8 4.9-1.2 7.4-1.3 2.6-.1 5 .9 6.7 3.1.5.4.4.7-.3.9zm3.4-8.1c-1 .4-1.9 1-2.9.1-.3-.3-.7-.2-1-.1-2.4.4-4.6 1.3-6.8 2.2-1.7.7-3.4.7-5-.5-1.7-1.3-3.5-1.4-5.4-.3-1.8 1-3.8 1.5-5.9.8-.3-.1-.5-.2-.7-.3-.9-.8-.9-.9.1-1.5.4-.2.7-.5 1.1-.7.6-.6 1.2-.6 2-.4 1 .2 2-.1 2.8-.7 2.2-1.5 4.4-1.1 6.5.1.1.1.2.1.3.2 1.5 1.2 2.8 1.8 4.5.2.7-.7 1.8-.4 2.8-.5 2.2-.3 4.4-.3 6.4-1.4.4-.2.6-.1.8.2.4.6 1 1.1 1 1.9-.2.3-.2.6-.6.7zm14-16.4c-.5.4-1 .7-1.7.5-.9-.2-1.8-.2-2.7-.3-1.2-.1-2.4-.3-3.3-1-.8-.6-1.7-.6-2.5-.7-1.5-.1-2.6-.9-3.8-1.5-.7-.4-.8-1.1-.9-1.8-.2-1.7-.2-1.7-1.8-2.1-2.2-.5-4-1.7-5.3-3.5-.7-.9-1.1-2.1-1.2-3.2-.1-1.1-.2-2.1-.2-3.2 0-.3 0-.7.4-.8.4-.1.7.1 1 .4.4.6.9 1.1 1 1.8.1.7.3 1.3.5 1.9.7 2.3 2.8 2.5 4.6 2.8 6.5 1.2 13 1.5 19.6.5.6-.1 1.1-.2 1.5.4.4.4.3.6-.2.7-1 .4-2 .7-3 1.1-3.1 1.1-6.1 2-9.4 2.2-1.4.1-2.7-.4-4-.6-.4-.1-.7-.2-1.1-.1.2 1 .8 1.7 1.5 2.1 1.2.7 2.3 1.4 3.8 1.4 2.6 0 5.1-.3 7.6-.8.4-.1.8-.3 1.2-.5 1.4-.9 2.9-1.6 4.3-2.3.6-.3 1-.2 1.3.1-2.2 2.3-4.7 4.4-7.2 6.5zM79.4 33.5c-2 .9-3.4 2.6-5.2 3.7-.5.3-.3.6 0 .9l5.7 6.5c.2.2.3.4.3.5.3-.1.4-.2.5-.2.9-.6 1.8-1.1 2.7-1.7.3-.2.3-.4.2-.7-1.1-2.9-1.9-5.9-3.1-8.7-.5-.5-.7-.5-1.1-.3zm-8 1.4c.2.3.4.5.8.3 1.7-.9 3.6-1.5 5.1-2.7 3.9-3.1 7.6-6.3 11.3-9.7.6-.5 1-1.1.9-1.7 0-.6.2-1.1-.3-1.4-.5-.3-.7.2-1 .4-.4.2-.7.5-1.1.7-3.6 1.9-7.1 4.1-10.9 5.6-2.6 1-5.2 2.1-7.9 3.1-.3.1-.9.1-.4.7 1 1.5 2.3 3.1 3.5 4.7zm.3 14.9c-3-2-6.1-3.8-8.8-6.1-.3 1-.5 1.9-.6 2.7-.1.4-.3.5-.6.6-.7.1-1-.5-1.4-.9-.4-.3-.7-.9-.5-1.3.6-1.4 1-2.8 1.5-4.2.6-1.4.6-1.4 1.8-.5l.3.3c2.6 2.7 5.6 5 9.1 6.8 1.7.9 3.1 1.1 4.6-.2.1-.1.2-.1.3-.2.2-.1.3-.3.2-.6-.3-.7-.4-1.5-1-2-1.8-1.6-3.5-3.2-5.3-4.9-2.4-2.4-5-4.8-6.8-7.7-.6-.9-1.2-1.7-1.9-2.4-1.1-1.1-2.8-.9-3.5.5-1.4 2.6-3.3 4.9-4.7 7.5-1.6 2.8-3.6 5.4-5 8.4-.3.6-.3 1.1 0 1.7.7 1.7 1.6 3.3 2 5.2.1.4.2.8-.4 1-.5.2-.7-.1-.9-.4-1-1.7-2.1-3.4-3.1-5.2-3.2-5.9-5.9-12-9.9-17.5-.2-.3-.2-.9-.8-.6-.4.2-.8.5-.7 1.2.4 2.1.6 4.3 1.2 6.4 2.4 9 5.4 17.9 8.3 26.7.3.8.5.7 1.1.4 7.5-4.2 14.9-8.4 22.4-12.6 1.1-1 2.1-1.5 3.1-2.1zM53.1 81.5c-1.8 2.5-2.5 5.4-3.1 8.3-.4.7-.4 1.2.6 1.3.6.1 1.2.3 1.7.4 4.6 1.3 9.3 2.4 13.9 3.5.4.2.8.3 1.2.2.2-.1.2-.2.2-.4v-.2l2.9-9.6c.2-.5.2-1 .6-1.3 1.4-1 1.9-2.4 2-4 0-.6.3-1.2.3-1.9.1-.8.4-1.3 1.1-1.7 3.4-1.6 6.4-3.8 9-6.7.6-.7 1.2-1.3 1.5-2.2 1.8-4.1 4.1-7.8 6.5-11.6 2.6-4.2 5.6-8.1 9.2-11.4.9-.9 1.4-1.9 1.7-3 .3-1-.2-1.8-.8-2.3-.7-.5-1.6-.7-2.5-.1-3.8 2.9-8.1 4.7-12.4 6.6-1.9.9-4.1 1.6-5.1 3.9-.1.1-.2.2-.3.2-1.4.9-2.9 1.4-4.5 1.7-.5.1-.9-.1-1.4.2-9 5.6-18 11.2-27.1 16.8-.5.3-.6.6-.4 1.2 1.7 3.5 3.2 7 5.2 10.3.4.8.4 1.2 0 1.8zm14.4 13.3v.2-.2zM187 83.5c5-1.6 10.1-3.1 15.2-4.6.8-.2.9-.5.6-1.3-2.2-5.8-4.4-11.5-7-17.1-.4-.7-.5-1.4-.1-2.2 1.2-2.7 1.6-5.4 1.3-8.3-.2-1.5.1-2.9-.1-4.4-.5-4-1.7-7.8-2.6-11.7-1-4.4-3.3-8.2-5.1-12.3-1.2-2.8-3.1-5.3-4.6-8-.9-1.6-1.9-3-2.7-4.6-.8-1.5-1.7-2.8-3.3-3.5-.4-.2-1-.6-1.3-.2-.4.5-.8 1.2-.5 1.9.6 1.3 1.2 2.7 1.7 4 1.6 3.7 3.4 7.3 4.4 11.2.4 1.5.8 3.1.9 4.7.1.6 0 1.2-.6 1.4-.6.2-.7-.5-1-.8-1.1-1.2-2.6-2.5-4.4-1.7-.5.2-1.1.3-1.7.2-.4-.1-.9-.2-1-.6-.1-.5.3-.7.6-.9.3-.2.7-.4.9-.6.4-.4.7-.8.3-1.3-1-1.2-1.8-2.5-3-3.4-2.4-1.9-4.9-3.8-7.5-5.5-.4-.2-.8-.5-1.1-.7-4.6-2.8-9.4-5.3-14.3-7.7-.5-.3-1.2-.5-2-.5-.5 0-1 0-1.3.6-.3.6-.1 1.1.3 1.6.5.6 1.1 1.2 1.8 1.7 2.1 1.2 4.3 2.2 6.2 3.6 3.8 2.9 7.5 5.8 11.2 8.8 1.2 1 2.2 2 3.3 3.1l1.9 2c.2.2.4.5.5.8V27.5c0 .2-.1.4-.3.6-.6.6-1.2.3-1.8 0-.3-.2-.4-.4-.6-.6l-.3-.3-1.5-1.5c-.2-.2-.4-.4-.7-.5l-8.4-6.3-8.4-6.3c-1.6-1.2-3.3-2.2-5.1-3.1-.6-.3-1-.2-1.4.3-.5.6-.6 1.3-.3 2 .6 1.1 1.4 2.1 2.3 2.9 1.3 1.1 2.6 2.1 3.6 3.3 5.3 5.9 10.7 11.6 15.8 17.6.4.4.6.9.7 1.4.2 1-.4 1.4-1.3 1.1-.2-.1-.4-.2-.5-.3-6.3-3.6-12.6-7.1-18.6-11.4-1.7-1.2-3.6-2.2-5.5-3.1-.6-.3-1.3-.6-1.8.2-.4.6-.1 1.6.5 2.1 2.3 1.7 4.3 3.6 6.5 5.5 4.8 4.2 9.9 8.1 13.4 13.5.5.8 2.4 1.1 3.2.6 2.1-1.4 4.4-2.2 7-2.1h.6c.2 0 .3 0 .5.1l.2.2c.3.6-.4.8-.7 1l-6.8 4.4c-.6.4-1.1.5-1.7.3-1.1-.3-2.1-.7-3.3-.7-4.7.1-9.4.6-14.1 1.4-1 .2-2.1.3-3 .8-.6.4-.8.9-.7 1.5.1.5.2 1 .9 1.1L150 55c1 .3 2.1.6 3.2.6 3.3 2.1 6.6 4.2 9.8 6.6 2 1.4 4 2.5 6.4 2.9 1.1.2 2.2.5 3.3.8 1.4.4 3.1.4 4.2 1.2 1.1.8 1.6 2.5 2.3 3.8.4.8.9 1.2 1.8 1 .8-.2 1.1.2 1.3.9 1.2 3.4 2.4 6.7 3.6 10.1.1.6.4.8 1.1.6z" style="fill:#f6e5cc"/></svg>