<svg version="1.1" id="Layer_1" xmlns="http://www.w3.org/2000/svg" x="0" y="0" viewBox="0 0 256 256" style="enable-background:new 0 0 256 256" xml:space="preserve"><style>.st1,.st5{fill-rule:evenodd;clip-rule:evenodd;fill:#fb70a9}.st5{fill:#fff}</style><linearGradient id="SVGID_1_" gradientUnits="userSpaceOnUse" x1="17.587" y1="17.587" x2="238.412" y2="238.412"><stop offset="0" style="stop-color:#774ea0"/><stop offset="1" style="stop-color:#d74546"/></linearGradient><path d="M60 0h136c33.1 0 60 26.9 60 60v136c0 33.1-26.9 60-60 60H60c-33.1 0-60-26.9-60-60V60C0 26.9 26.9 0 60 0z" style="fill:url(#SVGID_1_)"/><g id="Group-3" transform="translate(115 136)"><g id="Jelly"><path id="Body-Copy-2" class="st1" d="M111.5 33c-4.1 6.1-7.2 13.7-15.4 13.7-13.9 0-14.7-21.5-28.6-21.5-13.9 0-13.2 21.5-27.1 21.5S25.7 25.3 11.8 25.3-1.4 46.7-15.3 46.7-30 25.2-43.9 25.2-57 46.7-71 46.7c-4.4 0-7.4-2.1-10-5-10-17.3-15.7-37.6-15.7-59.3 0-63.6 49.1-115.1 109.7-115.1S122.7-81.2 122.7-17.6c0 18.1-4 35.3-11.2 50.6z"/><g id="Legs" transform="translate(12 27)"><g id="Combined-Shape_00000178162561815779860050000017300292629193283202_"><path id="path-100_00000053516625700226167620000004676231265865841041_" d="M-42.8-5.3v47.7c0 8.6-6.9 15.5-15.5 15.5S-73.8 51-73.8 42.4v-57.6c2.9-5.3 6.2-9.9 12.1-9.9 9.8 0 13.1 12.1 18.9 19.8zm58.5 2.4v75.4C15.7 82 8 89.7-1.5 89.7S-18.7 82-18.7 72.5v-85.3c3.2-6.2 6.6-12.3 13.4-12.3 10.9 0 13.8 15.2 21 22.2zm55.1-1.3v54.7C70.8 59 63.9 66 55.3 66s-15.5-7-15.5-15.5v-67.3c2.7-4.6 5.9-8.3 11.3-8.3 10.2 0 13.4 13.4 19.7 20.9z" style="fill-rule:evenodd;clip-rule:evenodd;fill:#4e56a6"/></g><g id="Combined-Shape_00000067219342369492827110000002373842459652671119_"><path id="path-300_00000162332235114112795570000003804219594964363907_" d="M-42.8 9.3c-2.7-3.4-6-5.9-10.7-5.9-11.2 0-13.2 14.1-20.3 20.4v-60.7c0-8.6 6.9-15.5 15.5-15.5s15.5 6.9 15.5 15.5V9.3zm58.5 1.1c-2.9-3.9-6.3-7-11.5-7-12.4 0-13.6 17.4-22.9 22.2V-1.2c0-9.5 7.7-17.2 17.2-17.2s17.2 7.7 17.2 17.2v11.6zm55.1-3.1c-2.4-2.3-5.2-3.9-9-3.9-12 0-13.5 16.4-22 21.8v-54.5c0-8.6 6.9-15.5 15.5-15.5s15.5 6.9 15.5 15.5V7.3z" style="fill-rule:evenodd;clip-rule:evenodd;fill-opacity:.2985"/></g></g><path id="Body-Copy-4" class="st1" d="M111.5 33c-4.1 6.1-7.2 13.7-15.4 13.7-13.9 0-14.7-21.5-28.6-21.5-13.9 0-13.2 21.5-27.1 21.5S25.7 25.3 11.8 25.3-1.4 46.7-15.3 46.7-30 25.2-43.9 25.2-57 46.7-71 46.7c-4.4 0-7.4-2.1-10-5-10-17.3-15.7-37.6-15.7-59.3 0-63.6 49.1-115.1 109.7-115.1S122.7-81.2 122.7-17.6c0 18.1-4 35.3-11.2 50.6z"/><path id="Combined-Shape_00000142168770922773357200000012790303828220948623_" d="M87.8 44.5C116.5 1.7 117.3-45.7 90-97.8c20.2 20.7 32.7 49.1 32.7 80.4 0 18.1-4.2 35.2-11.6 50.5-4.2 6.1-7.4 13.7-16 13.7-2.9-.1-5.3-.9-7.3-2.3z" style="fill-rule:evenodd;clip-rule:evenodd;fill:#e24ca6"/><g id="Eyes-Copy-2" transform="translate(0 6)"><path id="Oval" class="st5" d="M7.1 5.1c38.1 0 54.2-22.1 54.2-53.6S37-108.9 7.1-108.9-47.1-80-47.1-48.5-31 5.1 7.1 5.1z"/><g id="Pupil" transform="translate(18.82 3.462)"><ellipse id="Oval_00000065042203557010031440000015171834131567707028_" cx="-26.3" cy="-72.6" rx="20.3" ry="22.4" style="fill-rule:evenodd;clip-rule:evenodd;fill:#030776"/><ellipse id="Oval_00000128444411515259488030000003667136209159092401_" class="st5" cx="-29.7" cy="-77.8" rx="10.2" ry="10.4"/></g></g></g></g></svg>