<?xml version="1.0" encoding="utf-8"?>
<!-- Generator: Adobe Illustrator 28.0.0, SVG Export Plug-In . SVG Version: 6.00 Build 0)  -->
<svg version="1.1" id="Layer_1" xmlns="http://www.w3.org/2000/svg" xmlns:xlink="http://www.w3.org/1999/xlink" x="0px" y="0px"
	 viewBox="0 0 256 256" style="enable-background:new 0 0 256 256;" xml:space="preserve">
<style type="text/css">
	.st0{fill:url(#SVGID_1_);}
	.st1{fill-rule:evenodd;clip-rule:evenodd;fill:#FB70A9;}
	.st2{fill-rule:evenodd;clip-rule:evenodd;fill:#4E56A6;}
	.st3{fill-rule:evenodd;clip-rule:evenodd;fill-opacity:0.2985;}
	.st4{fill-rule:evenodd;clip-rule:evenodd;fill:#E24CA6;}
	.st5{fill-rule:evenodd;clip-rule:evenodd;fill:#FFFFFF;}
	.st6{fill-rule:evenodd;clip-rule:evenodd;fill:#030776;}
</style>
<linearGradient id="SVGID_1_" gradientUnits="userSpaceOnUse" x1="17.5875" y1="17.5875" x2="238.4125" y2="238.4125">
	<stop  offset="2.442910e-07" style="stop-color:#774EA0"/>
	<stop  offset="1" style="stop-color:#D74546"/>
</linearGradient>
<path class="st0" d="M60,0h136c33.1,0,60,26.9,60,60v136c0,33.1-26.9,60-60,60H60c-33.1,0-60-26.9-60-60V60C0,26.9,26.9,0,60,0z"/>
<g id="Group-3" transform="translate(115.000000, 136.000000)">
	<g id="Jelly">
		<path id="Body-Copy-2" class="st1" d="M111.5,33c-4.1,6.1-7.2,13.7-15.4,13.7c-13.9,0-14.7-21.5-28.6-21.5
			c-13.9,0-13.2,21.5-27.1,21.5S25.7,25.3,11.8,25.3S-1.4,46.7-15.3,46.7s-14.7-21.5-28.6-21.5S-57,46.7-71,46.7
			c-4.4,0-7.4-2.1-10-5C-91,24.4-96.7,4.1-96.7-17.6c0-63.6,49.1-115.1,109.7-115.1S122.7-81.2,122.7-17.6
			C122.7,0.5,118.7,17.7,111.5,33z"/>
		<g id="Legs" transform="translate(12.000000, 27.000000)">
			<g id="Combined-Shape_00000178162561815779860050000017300292629193283202_">
				<path id="path-100_00000053516625700226167620000004676231265865841041_" class="st2" d="M-42.8-5.3v47.7
					c0,8.6-6.9,15.5-15.5,15.5s-15.5-6.9-15.5-15.5v-57.6c2.9-5.3,6.2-9.9,12.1-9.9C-51.9-25.1-48.6-13-42.8-5.3z M15.7-2.9v75.4
					C15.7,82,8,89.7-1.5,89.7S-18.7,82-18.7,72.5v-85.3c3.2-6.2,6.6-12.3,13.4-12.3C5.6-25.1,8.5-9.9,15.7-2.9z M70.8-4.2v54.7
					C70.8,59,63.9,66,55.3,66S39.8,59,39.8,50.5v-67.3c2.7-4.6,5.9-8.3,11.3-8.3C61.3-25.1,64.5-11.7,70.8-4.2z"/>
			</g>
			<g id="Combined-Shape_00000067219342369492827110000002373842459652671119_">
				<path id="path-300_00000162332235114112795570000003804219594964363907_" class="st3" d="M-42.8,9.3c-2.7-3.4-6-5.9-10.7-5.9
					c-11.2,0-13.2,14.1-20.3,20.4v-60.7c0-8.6,6.9-15.5,15.5-15.5s15.5,6.9,15.5,15.5V9.3z M15.7,10.4C12.8,6.5,9.4,3.4,4.2,3.4
					c-12.4,0-13.6,17.4-22.9,22.2V-1.2c0-9.5,7.7-17.2,17.2-17.2s17.2,7.7,17.2,17.2V10.4z M70.8,7.3c-2.4-2.3-5.2-3.9-9-3.9
					c-12,0-13.5,16.4-22,21.8v-54.5c0-8.6,6.9-15.5,15.5-15.5s15.5,6.9,15.5,15.5V7.3z"/>
			</g>
		</g>
		<path id="Body-Copy-4" class="st1" d="M111.5,33c-4.1,6.1-7.2,13.7-15.4,13.7c-13.9,0-14.7-21.5-28.6-21.5
			c-13.9,0-13.2,21.5-27.1,21.5S25.7,25.3,11.8,25.3S-1.4,46.7-15.3,46.7s-14.7-21.5-28.6-21.5S-57,46.7-71,46.7
			c-4.4,0-7.4-2.1-10-5C-91,24.4-96.7,4.1-96.7-17.6c0-63.6,49.1-115.1,109.7-115.1S122.7-81.2,122.7-17.6
			C122.7,0.5,118.7,17.7,111.5,33z"/>
		<path id="Combined-Shape_00000142168770922773357200000012790303828220948623_" class="st4" d="M87.8,44.5
			C116.5,1.7,117.3-45.7,90-97.8c20.2,20.7,32.7,49.1,32.7,80.4c0,18.1-4.2,35.2-11.6,50.5c-4.2,6.1-7.4,13.7-16,13.7
			C92.2,46.7,89.8,45.9,87.8,44.5z"/>
		<g id="Eyes-Copy-2" transform="translate(0.000000, 6.000000)">
			<path id="Oval" class="st5" d="M7.1,5.1c38.1,0,54.2-22.1,54.2-53.6s-24.3-60.4-54.2-60.4s-54.2,28.9-54.2,60.4S-31,5.1,7.1,5.1z
				"/>
			<g id="Pupil" transform="translate(18.820513, 3.461538)">
				
					<ellipse id="Oval_00000065042203557010031440000015171834131567707028_" class="st6" cx="-26.3" cy="-72.6" rx="20.3" ry="22.4"/>
				
					<ellipse id="Oval_00000128444411515259488030000003667136209159092401_" class="st5" cx="-29.7" cy="-77.8" rx="10.2" ry="10.4"/>
			</g>
		</g>
	</g>
</g>
</svg>
