<svg version="1.1" id="Layer_1" xmlns="http://www.w3.org/2000/svg" x="0" y="0" viewBox="0 0 256 256" style="enable-background:new 0 0 256 256" xml:space="preserve"><style>.st1{fill:#fff}</style><path d="M60 0h136c33.1 0 60 26.9 60 60v136c0 33.1-26.9 60-60 60H60c-33.1 0-60-26.9-60-60V60C0 26.9 26.9 0 60 0z" style="fill:#242938"/><path class="st1" d="M51.2 113.6v48M51.2 161.6c-5.3 0-9.6-4.3-9.6-9.6v-28.8c0-5.3 4.3-9.6 9.6-9.6s9.6 4.3 9.6 9.6V152c0 5.3-4.3 9.6-9.6 9.6z"/><path class="st1" d="M89.6 75.2v67.2"><animate accumulate="none" additive="replace" attributeName="y2" begin="indefinite" calcMode="spline" dur="3s" fill="remove" keySplines="0.6 0 1 1; 0 0 1 1; 0 0 1 1; 0 0 0.4 1" keyTimes="0;0.3;0.5;0.7;1" restart="always" values="8;10;12;10;8;"/></path><path class="st1" d="M89.6 142.4c-5.3 0-9.6-4.3-9.6-9.6v-48c0-5.3 4.3-9.6 9.6-9.6s9.6 4.3 9.6 9.6v48c0 5.3-4.3 9.6-9.6 9.6z"/><path class="st1" d="M128 113.6v48"><animate accumulate="none" additive="replace" attributeName="y2" begin="indefinite" calcMode="spline" dur="3s" fill="remove" keySplines="0.6 0 1 1; 0 0 1 1; 0 0 1 1; 0 0 0.4 1" keyTimes="0;0.3;0.5;0.7;1" restart="always" values="10;8;10;12;10;"/></path><path class="st1" d="M128 161.6c-5.3 0-9.6-4.3-9.6-9.6v-28.8c0-5.3 4.3-9.6 9.6-9.6s9.6 4.3 9.6 9.6V152c0 5.3-4.3 9.6-9.6 9.6z"/><g><path class="st1" d="M166.4 75.2v105.6"><animate accumulate="none" additive="replace" attributeName="y2" begin="indefinite" calcMode="spline" dur="3s" fill="remove" keySplines="0.6 0 1 1; 0 0 1 1; 0 0 1 1; 0 0 0.4 1" keyTimes="0;0.3;0.5;0.7;1" restart="always" values="12;10;8;10;12;"/></path><path class="st1" d="M166.4 180.8c-5.3 0-9.6-4.3-9.6-9.6V84.8c0-5.3 4.3-9.6 9.6-9.6s9.6 4.3 9.6 9.6v86.4c0 5.3-4.3 9.6-9.6 9.6z"/></g><g><path class="st1" d="M204.8 113.6v48"><animate accumulate="none" additive="replace" attributeName="y2" begin="indefinite" calcMode="spline" dur="3s" fill="remove" keySplines="0.6 0 1 1; 0 0 1 1; 0 0 1 1; 0 0 0.4 1" keyTimes="0;0.3;0.5;0.7;1" restart="always" values="10;12;10;8;10;"/></path><path class="st1" d="M204.8 161.6c-5.3 0-9.6-4.3-9.6-9.6v-28.8c0-5.3 4.3-9.6 9.6-9.6s9.6 4.3 9.6 9.6V152c0 5.3-4.3 9.6-9.6 9.6z"/></g></svg>