<svg xmlns="http://www.w3.org/2000/svg" viewBox="0 0 256 256" style="enable-background:new 0 0 256 256" xml:space="preserve"><linearGradient id="a" gradientUnits="userSpaceOnUse" x1="0" y1="2" x2="256" y2="258" gradientTransform="matrix(1 0 0 -1 0 258)"><stop offset="0" style="stop-color:#d40129"/><stop offset="1" style="stop-color:#f4ed24"/></linearGradient><path d="M60 0h136c33.1 0 60 26.9 60 60v136c0 33.1-26.9 60-60 60H60c-33.1 0-60-26.9-60-60V60C0 26.9 26.9 0 60 0z" style="fill:url(#a)"/><g transform="matrix(.569 0 0 .569 199.451 -82.735)"><linearGradient id="b" gradientUnits="userSpaceOnUse" x1="91869.25" y1="46580.477" x2="92118.898" y2="46432.961" gradientTransform="matrix(.038 0 0 .038 -3684.775 -1360.07)"><stop offset="0" style="stop-color:#909ca9"/><stop offset="1" style="stop-color:#ededee"/></linearGradient><path style="fill:url(#b)" d="m-95.6 310-46.1 15.1-40.1 17.7-11.2 3c-2.9 2.7-5.9 5.5-9.1 8.3-3.6 3.1-6.9 5.9-9.4 7.9-2.8 2.2-7 6.4-9.1 9.1-3.2 4-5.7 8.2-6.8 11.4-1.9 5.9-1 11.8 2.7 17.3 4.7 7 14.2 14.1 25.2 18.9 5.6 2.5 15.1 5.6 22.2 7.4 11.8 3 34.7 6.2 47.3 6.7 2.5.1 6 .1 6.1 0 .3-.2 2.2-3.9 4.5-8.5 7.7-15.8 13.3-30.6 16.3-43.3 1.8-7.7 3.2-17.9 4.2-30 .2-3.4.3-14.7.1-18.5-.3-6.3-.9-11.4-1.7-16.3-.1-.7-.2-1.4-.1-1.4.1-.1.6-.2 6.2-1.9l-1.2-2.9zm-10.6 6.2c.4 0 1.5 10.7 1.8 17.5.1 1.4 0 2.4 0 2.4-.3 0-5.9-3.3-9.9-5.8-3.5-2.2-10.1-6.6-11.2-7.4-.3-.2-.3-.3 2.5-1.3 5-1.7 16.5-5.4 16.8-5.4zm-23.4 7.7c.3 0 1.1.5 3 1.6 7.2 4.5 16.9 9.9 21.1 11.7 1.3.6 1.4.3-1.5 2.4-6.3 4.3-14.3 8.6-23.9 12.9-1.7.8-3.1 1.4-3.2 1.4-.1 0 .1-.9.4-1.9 2.3-8.7 3.7-17.5 3.7-24.5 0-3.5 0-3.5.4-3.6-.1 0-.1 0 0 0zm-4.9 1.8c.2.2.1 8-.2 10.1-.6 5.1-1.6 9.8-3.2 15.2-.4 1.3-.7 2.4-.8 2.4-.1.2-4.9-4.5-6.5-6.3-2.7-3.1-4.8-6.3-6.4-9.3-.8-1.6-2.1-4.6-2-4.7.6-.4 19-7.5 19.1-7.4zm-22.8 9h.1c.1.1.3.6.5 1.3 1.1 3 3.6 7.5 5.8 10.4 2.4 3.1 5.5 6.5 8.1 8.7.8.7 1.6 1.4 1.7 1.5.2.2.3.2-5.4 2.3-6.6 2.5-13.8 5-22 7.7-2 .6-3.9 1.3-5.9 1.9-.3.1-.2-.1.7-1.5 4.1-6.4 10.3-18.9 13.8-27.7.6-1.5 1.2-3.1 1.3-3.4.1-.5.3-.7.8-.9.2-.2.4-.3.5-.3zm-6.9 2.9c.1.1-1.7 3.8-3.4 7.2-3.4 6.6-7.1 13.1-12 20.9-.8 1.4-1.6 2.6-1.7 2.8-.2.2-.2.2-.8-.9-1.2-2.3-2.2-5.3-2.7-8.1-.5-2.7-.4-7.5.2-10.4.5-2.2.4-2.1 1.5-2.6 4.3-2.3 18.7-9 18.9-8.9zm60.1 2.4v1.5c0 7.8-.8 18.4-2.1 26.2-.2 1.4-.4 2.5-.4 2.5s-1-.3-2.2-.6c-5.2-1.6-10.9-4-16-6.9-3.4-1.8-8.3-4.9-8.2-5 0 0 1.5-.8 3.2-1.7 6.8-3.6 13.4-7.4 19.1-11.2 2.1-1.4 5.3-3.7 6-4.4l.6-.4zm-86.5 10.4c.1 0 .1.3-.1 1.5-.1.9-.3 2.6-.4 3.7-.3 5.1.6 8.9 3.1 14 .7 1.4 1.3 2.6 1.2 2.6-.2.2-23.3 7-30.6 9-2.2.6-4 1.1-4.2 1.1-.2.1-.3 0-.2-.6.8-5.1 4.7-11.8 10.1-17.5 3.6-3.8 6.5-6 11.5-8.8 3.7-1.8 9.2-4.9 9.6-5zm54.4 9.7s.9.4 1.9 1c7.5 4.3 17.8 8.3 26.7 10.4l.8.2-1.1.6c-4.6 2.6-19.9 8.9-35.4 14.7-2.3.8-4.5 1.7-4.9 1.8-.4.2-.8.3-.8.2 0 0 .6-1.3 1.4-2.8 4.4-8.2 8.7-18.1 11-25 .2-.5.4-1.1.4-1.1zm-5.5 1.8s-.2.8-.6 1.6c-3 7.4-7 15.4-12.1 24.4-1.3 2.3-2.4 4.1-2.4 4.1s-1.1-.6-2.3-1.4c-7.4-4.5-13.9-10.1-18.2-15.5l-.6-.8 3.2-.9c11.4-3.1 21-6.4 30.6-10.6 1.2-.5 2.3-.9 2.4-.9zm34.4 12c0 .8-1.7 8-3.2 13.2-1.2 4.4-2.3 7.8-4.2 13.8-.8 2.6-1.6 4.8-1.6 4.8s-.2 0-.5-.1c-10.4-1.9-19.6-4.5-28.3-8-2.4-1-5.9-2.5-6.1-2.7-.1-.1 2-1 4.7-2.2 15.9-6.9 32.3-14.8 38-18.2.6-.4 1.1-.6 1.2-.6zm-79.5 2.7c.1.1-4.4 6.4-10.6 15.1-2.2 3-4.7 6.6-5.6 7.9-.9 1.3-2.4 3.4-3.2 4.7l-1.5 2.3-1.6-1.3c-1.8-1.5-5.1-4.8-6.5-6.6-3-3.7-5-7.7-5.8-11.3-.4-1.7-.4-2.5 0-2.6.5-.1 9.8-2.3 18.5-4.4 4.8-1.1 10.5-2.4 12.5-2.9 2.1-.5 3.8-.9 3.8-.9zm4.5 1.7 1.1 1.3c5 5.6 10.1 9.8 16.3 13.4 1.1.6 2 1.2 1.9 1.2-.2.2-21.5 7.7-31.4 11.2-5.5 2-10.1 3.5-10.1 3.5s-.3-.2-.7-.5l-.6-.5 1-1.5c3.3-4.7 7.4-9.9 16.3-20.7l6.2-7.4zm27.8 19.9s1.6.5 3.4 1.2c4.5 1.7 8.1 2.8 12.9 4 5.9 1.5 14.5 3 19.6 3.4.8.1 1.2.1 1 .2-.2.1-5.4 1.8-9.1 3-6 1.9-24.3 7.3-39.2 11.6-2.8.8-5.1 1.5-5.3 1.5-.3.1-1.5-.2-1.5-.4 0-.1.8-1.1 1.8-2.3 5-6 10-12.7 14.1-19 1.3-1.7 2.3-3.1 2.3-3.2zm-6.2.2s-2.4 4-6.8 10.8c-1.8 2.9-3.9 6.2-4.6 7.3-.7 1.1-1.7 2.9-2.3 3.8l-1 1.8-.5-.1c-1.3-.3-10.1-3.5-12.4-4.4-2.9-1.2-5.9-2.5-8.1-3.7-2.8-1.5-6.3-3.7-6-3.8.1 0 4.8-1.3 10.6-2.9 15.3-4.1 23.7-6.6 29.3-8.3.9-.3 1.8-.5 1.8-.5zm43.4 10.2c.2.3-5.5 16-7.5 21-.5 1.1-.6 1.4-.9 1.4-.6 0-8.8-1.2-13.8-1.9-8.7-1.3-23.2-3.9-26.9-4.7l-.8-.2 5.2-1.2c11.2-2.5 16.5-3.9 22-5.5 6.9-2.1 13.7-4.7 20.5-7.9 1.1-.6 2-1 2.2-1z"/><linearGradient id="c" gradientUnits="userSpaceOnUse" x1="91879.094" y1="41694.223" x2="92079.977" y2="41694.223" gradientTransform="matrix(.038 0 0 .038 -3684.775 -1360.07)"><stop offset="0" style="stop-color:#939fab"/><stop offset="1" style="stop-color:#dcdee1"/></linearGradient><path style="fill:url(#c)" d="M-143.2 202.5c-.8-.1-13.1 4.4-21.1 7.6-10.8 4.4-19.1 8.6-24.3 12.2-1.9 1.4-4.3 3.8-4.7 4.7-.1.3-.2.8-.2 1.2l4.7 4.4 11.1 3.6 26.5 4.7 30.3 5.2.3-2.6h-.3l-4-.6-.8-1.4c-4.1-7.2-8.6-16.2-11.3-22.3-2.1-4.7-4-10.1-5.1-14-.6-2.5-.7-2.7-1.1-2.7zm-.5 1.8c.1 0 .2 1 .3 2.2.6 4.9 1.7 9.6 3.4 14.7 1.3 3.8 1.3 3.6-.2 3.2-3.6-1-19.5-3.7-31-5.3-1.8-.2-3.4-.5-3.4-.5-.1-.1 8.3-4.6 12.1-6.3 4.7-2.4 17.8-7.8 18.8-8zm-33.6 15.6 1.4.5c7.4 2.5 26 6.1 36.2 6.9 1.1.1 2.1.2 2.2.2 0 0-.9.6-2.2 1.1-4.9 2.5-10.4 5.5-14.1 7.8-1.1.7-2.1 1.3-2.3 1.3-.1 0-.9-.1-1.6-.2l-1.4-.2-3.5-3.4c-6.1-6-10.9-10.6-12.8-12.3l-1.9-1.7zm-1.4 1.1 4.9 6.1c2.7 3.4 5.4 6.7 6 7.4.6.7 1.1 1.3 1 1.4-.1.1-7.1-1.3-10.8-2.1-3.8-.9-5.4-1.3-7.7-2l-1.9-.6v-.5c0-2.3 3-5.8 8-9.4l.5-.3zm41.7 8.3c.1 0 .3.3.7 1.3 1.2 2.6 4.9 9.7 5.8 11 .3.5.8.5-4.1-.3-11.8-1.9-15.6-2.5-15.6-2.6 0 0 .3-.3.8-.5 3.7-2 7.4-4.6 10.6-7.4.8-.7 1.5-1.3 1.7-1.4 0-.1.1-.1.1-.1z"/><radialGradient id="d" cx="-137079.578" cy="-29820.832" r="266.705" gradientTransform="matrix(-.0365 -.00548 .01109 -.07298 -4797.268 -2642.002)" gradientUnits="userSpaceOnUse"><stop offset="0" style="stop-color:#ee352c"/><stop offset="1" style="stop-color:#a91d22"/></radialGradient><path style="fill:url(#d)" d="M-193 226.5s-.8 1.2 0 3c.5 1.1 1.8 2.5 3.3 3.9 0 0 15.5 15.1 17.4 17.3 8.6 9.9 12.3 19.7 12.7 33.1.2 8.6-1.4 16.2-5.5 25.1-7.2 15.8-22.5 33.3-46.1 52.7l3.5-1.2c2.2-1.7 5.3-3.5 12.4-7.4 16.4-9 34.9-17.3 57.5-25.8 32.6-12.3 86.3-26.6 116.8-31.3l3.2-.5-.5-.8c-2.8-4.3-4.7-7-7-9.9-6.7-8.3-14.8-15-24.7-20.6-13.7-7.6-31.3-13.6-53.7-18-4.2-.8-13.5-2.4-21-3.6-16-2.5-26.3-4.2-37.6-6.1-4.1-.7-10.2-1.7-14.2-2.6-2.1-.5-6.1-1.4-9.2-2.5-2.9-.8-6.6-1.8-7.3-4.8zm9 8.7s.6.2 1.3.4c1.3.5 3 1 5.1 1.5 1.5.4 3.1.8 4.6 1.2 2.1.5 3.8 1 3.9 1 .2.2 3.8 11.5 4.9 15.8.5 1.6.8 3 .8 3s-.4-.6-.9-1.4c-4.1-7.2-10.5-14.5-18-20.3-1-.5-1.7-1.1-1.7-1.2zm17.1 4.8c.2 0 .9.1 1.9.3 5.9 1.3 16.6 3.3 23.4 4.5 1.2.2 2.1.4 2.1.5 0 .1-.4.3-.9.6-1.1.6-5.8 3.3-7.3 4.4-3.9 2.6-7.4 5.4-9.9 7.9-1 1-1.9 1.8-1.9 1.8s-.2-.6-.4-1.3c-1.3-4.8-3.9-12-6.2-17.1-.5-.9-.8-1.6-.8-1.6zm30.2 5.7c.2.1.6 1.3 1.3 3.9 1.3 5.1 1.9 10.7 1.7 16-.1 1.5-.1 2.8-.2 3l-.1.3-1.8-.6c-3.7-1.2-9.8-3-15-4.4-3-.8-5.4-1.5-5.4-1.6 0-.2 4.3-4.5 6.2-6.2 3.4-3.1 13-10.5 13.3-10.4zm2.4.4c.1-.1 14.4 2.4 20.9 3.6 4.8.9 11.9 2.4 12.3 2.6.2.1-.5.5-2.9 1.5-9.2 4.1-16 7.9-22.8 12.4l-3.3 2.2s-.1-1-.1-2.2c0-6.6-1.3-13.3-3.8-19-.1-.6-.3-1.1-.3-1.1zm37 7.3c.1.1-.3 2.9-.8 4.6-1.3 5.2-4.6 12.9-8.8 20.1-.7 1.3-1.4 2.3-1.5 2.4-.1 0-1-.5-2.1-1.1-4-2.4-8.6-4.6-13.7-6.7-1.4-.6-2.6-1.1-2.6-1.1-.2-.2 11-7.6 16.9-11.2 4.8-2.9 12.5-7.1 12.6-7zm2.7.4c.3 0 6.7 1.7 10 2.7 8.2 2.4 17.6 5.9 23.7 8.7l2.5 1.2-1.8.4c-15 3.5-27.8 7.4-40.2 12.4-1 .4-1.9.8-2 .8-.1 0 .3-.8.7-1.8 3.7-7.9 6.1-16.2 6.7-23.2.2-.7.3-1.2.4-1.2zm-63.2 14.5c.1-.1 4.9 1 7.6 1.8 4 1.1 12.4 3.9 12.4 4.1 0 0-.9.8-2.1 1.8-4.6 3.8-9 7.8-14.2 12.9-1.6 1.5-2.9 2.7-3 2.7-.1 0-.1-.2-.1-.5.8-5.9.6-13.4-.5-21 0-.9-.1-1.8-.1-1.8zm101.8.1c.1.1-2.2 3.7-3.7 5.7-2.1 3-5.2 7-12.1 15.7-3.7 4.6-7.8 9.8-9.1 11.5-1.4 1.7-2.5 3.2-2.6 3.2 0 0-.5-.6-1-1.4-3.9-5.9-8.6-11-14.1-15.6-1-.9-2.2-1.8-2.6-2.1-.4-.3-.7-.6-.7-.6 0-.1 5.9-2.6 10.4-4.5 7.9-3.2 18.6-7 26.7-9.5 4.3-1.2 8.8-2.5 8.8-2.4zm2.7.7c.1 0 1 .4 2 1 8.5 4.8 16.8 11.1 23.3 17.5 1.8 1.8 6.4 6.6 6.3 6.6 0 0-1.6.1-3.5.3-14.7 1.1-33.5 4.2-51.5 8.6-1.2.3-2.3.5-2.4.5-.1 0 1.3-1.4 3-3 10.6-10.2 15.4-16.7 21.2-28.2.9-1.7 1.5-3.2 1.6-3.3zm-77.6 8c.5.1 5 2.2 8.4 3.9 3.1 1.6 7.8 4.1 8.1 4.3 0 0-1.6.9-3.7 1.9-6.6 3.3-12.2 6.4-18 9.9-1.7 1-3.1 1.8-3.1 1.8-.1 0-.1-.1.8-1.8 3.1-5.7 5.6-12.5 7.1-19.2.2-.5.3-.8.4-.8zm-4.5.8c.1.1-1.1 4.4-1.8 6.7-1.4 4.4-3.8 10-6.2 14.1-.6 1-1.4 2.4-1.8 3.2l-.9 1.4-2-1.9c-2.3-2.2-4.1-3.6-6.5-4.8-.9-.5-1.7-.9-1.7-1 0-.3 6-5.7 10.5-9.6 3.4-2.7 10.3-8.2 10.4-8.1zm27.7 11.4 1.7 1.1c3.9 2.5 8.5 5.9 12 8.9 2 1.6 5.8 5.1 6.6 5.9l.4.5-2.8.8c-16 4.4-28.3 8.4-42.7 13.7-1.6.6-3 1.1-3.1 1.1-.2 0-.4.2 3.2-3.1 9.2-8.5 17.4-17.8 23.4-26.9l1.3-2zm-7.3 1.8c.1.1-4.7 6.8-7.6 10.6-3.4 4.5-9.5 12.1-13.7 17.1-1.7 2.1-3.2 3.8-3.3 3.8-.1 0-.1-.5-.1-1.3 0-4.2-1.1-8.7-3-12.5-.8-1.6-.9-2-.8-2.2.7-.6 10.8-6.4 17.2-9.8 4.4-2.3 11.2-5.8 11.3-5.7zm-44.1 10.8c.1 0 .9.4 1.8.9 2.2 1.2 4.2 2.6 6 4 .1.1-.8.8-2 1.7-3.3 2.4-8.3 6.2-11.3 8.5-3.1 2.4-3.2 2.5-2.8 2 2.3-3.5 3.5-5.5 4.7-8.1 1.1-2.3 2.2-4.9 2.9-7.3.3-.9.7-1.7.7-1.7zm11.8 9.2c.2 0 .4.3 1.3 1.7 2 3 3.5 6.9 3.9 10.1l.1.7-4.8 1.8c-8.5 3.3-16.4 6.6-21.7 9-1.5.7-4.1 2-5.8 2.8-1.7.9-3.1 1.5-3.1 1.5s1.1-.8 2.4-1.8c10.4-7.6 19.4-15.9 26.2-24.2.7-.8 1.4-1.6 1.5-1.6zm-5.4 1.3c.1.1-3.8 4.6-6.6 7.4-6.7 6.9-13.4 12.2-21.6 17.5-1 .7-2 1.3-2.1 1.3-.2.1.1-.2 3.7-4.1 2.3-2.5 4-4.6 6-7.1 1.3-1.7 1.6-2 3.5-3.3 5.1-3.8 16.9-11.8 17.1-11.7z"/></g><path d="M53.2 177.2h-1.1c-7.4.4-12.4 3.6-15.3 10-2.5 5.7-2.2 13.3 0 19 2.6 5.6 6.8 8.6 13.9 9.8 1.5.2 2.5 1.1 5.4 4.4l3.6 4.2h6.4l-4.3-4.3c-2.4-2.4-4.3-4.4-4.3-4.6 0-.2.9-.6 2-.9 3.6-1.1 6.6-3.9 8.7-8.2 1.7-3.4 1.9-4.5 2.2-8.8.7-12.8-6-20.7-17.2-20.6zm5.7 33.3c-3.1 1.5-7.7 1.8-10.7.7-3.1-1.1-6.1-4.3-7.4-7.9-1.5-4-1.3-11.2.4-14.5 2.7-5.2 6.4-7.6 11.6-7.6 7.8 0 12.3 4.8 12.9 13.8.6 7.5-2 13.1-6.8 15.5zM170.3 188c-2.7 0-4.8 1.1-6.2 3.3L163 193v-4.4h-4.7v26.6h4.7v-8.5c0-7.8.1-8.7 1.2-10.8 1.5-2.9 4.1-4.4 6.6-3.7l1.7.5V188h-2.2zm-27.5-.2c-.9 0-1.9.1-2.9.3-6.3 1.6-9.8 7.6-9.6 13.8 0 5.2 1 7.7 3.5 10.5 5.1 4.2 9.7 4.5 16 2.3l2.2-1v-4.2l-2.2 1.2c-5 2.2-8.8 2.2-11.9-.4-1.9-2-2.8-4.3-3.2-7.1h18.9v-3.6c0-7.3-4.4-11.9-10.8-11.8zm-7.7 11.7s.7-4.6 3.3-6.4c1.2-.9 2.7-1.3 4.1-1.3 1.4 0 2.8.5 4 1.3 2.4 1.8 2.8 6.3 2.8 6.3l-14.2.1zm-112.8-4.8c-5.1-3.1-7.3-5.3-7.1-7.9.8-7.2 9.7-6.2 14.7-3.5v-4.9s-2.7-1.2-6.7-1.2c-6-.1-9.9 1.9-11.7 5.9-2.7 5.9-.3 10.4 8.3 15.4 4.8 2.8 6.9 5.2 6.9 7.9 0 5.5-6.6 7.4-13.4 3.9l-2.6-1.3c-.2 1.6-.1 5.3-.1 5.3s2.1.9 5.2 1.5c7.8 1.6 14.9-2.1 15.5-8 .6-5.7-1.4-8.6-9-13.1zm189.4-7c-.9 0-1.9.1-2.9.3-6.3 1.6-9.8 7.6-9.5 13.8 0 5.2 1 7.7 3.5 10.4 5.1 4.2 9.7 4.5 16 2.3l2.2-1v-4.2l-2.2 1.2c-5.1 2.2-8.9 2.2-11.9-.4-2-2-2.8-4.3-3.2-7.1h18.8v-3.6c0-7.2-4.4-11.8-10.8-11.7zm-7.6 11.7s.7-4.6 3.3-6.4c1.2-.9 2.7-1.3 4.1-1.3 1.4 0 2.8.5 4 1.3 2.4 1.8 2.8 6.3 2.8 6.3l-14.2.1zm-85.8-4.7c-5.1-3.1-7.3-5.3-7-7.9.8-7.2 9.7-6.2 14.7-3.5v-4.9s-2.7-1.2-6.7-1.2c-6-.1-9.9 1.9-11.7 5.9-2.7 5.9-.3 10.4 8.3 15.4 4.8 2.8 6.9 5.2 6.9 7.8 0 5.5-6.6 7.4-13.4 3.9l-2.6-1.3c-.2 1.6-.1 5.3-.1 5.3s2.1.8 5.2 1.5c7.8 1.6 14.9-2.1 15.5-8 .5-5.5-1.5-8.4-9.1-13zm120.9-6.7c-2.7 0-4.8 1.1-6.2 3.3l-1.1 1.7v-4.4h-4.7v26.6h4.7v-8.5c0-7.8.1-8.7 1.2-10.8 1.5-2.9 4.1-4.4 6.6-3.7l1.7.5V188h-2.2zm-158.1 6.6v-17h-4.7v37.6h19.8v-4.4H81.1v-16.2zm109.1 5.3-3.9 10.1-3.7-10.2-3.8-11.3H174c3.1 8.9 6.5 17.9 10 26.7h4.5l5.3-13.2 5.3-13.5h-4.6c-.2 0-2.2 5.4-4.3 11.4zm-98.3-32.5c.8 0 1.4-.2 1.9-.8.5-.5.8-1.1.8-1.9 0-.8-.3-1.4-.8-1.9s-1.1-.7-1.9-.7c-.8 0-1.4.2-1.9.8-.5.5-.8 1.2-.8 1.9 0 .8.2 1.4.8 1.9.5.4 1.2.7 1.9.7zm-1.6-4.3c.5-.5 1-.7 1.7-.7s1.2.2 1.7.7c.5.5.7 1 .7 1.7s-.2 1.2-.7 1.7c-.5.5-1 .7-1.7.7s-1.2-.2-1.7-.7c-.5-.5-.7-1-.7-1.7s.2-1.3.7-1.7zm1.1 1.9h.3c.2 0 .4.2.6.6l.4.8h.6l-.5-.9c-.2-.4-.4-.6-.6-.6.3-.1.5-.2.6-.3.2-.2.2-.4.2-.6 0-.3-.1-.5-.3-.6-.2-.2-.5-.3-1-.3h-1v3.4h.5l.2-1.5zm0-1.6h.4c.3 0 .5.1.6.2.1.1.1.2.1.4 0 .4-.2.6-.7.6h-.5l.1-1.2zm-78 1.3c0-1.2 0-2.1-.1-2.6.1.6.3 1.1.4 1.4l4.5 10.1h.8l4.5-10.2c.1-.3.2-.7.4-1.3-.1 1-.1 1.9-.1 2.6v8.9h1.6v-13.3h-1.9l-4.2 9.2c-.2.4-.4.9-.6 1.6h-.1c-.1-.4-.3-.9-.6-1.6l-4.1-9.3h-2.1v13.3h1.5l.1-8.8zm15.5 0h1.3v8.3h-1.3v-8.3zm.6-3c.3 0 .5-.1.7-.3.2-.2.3-.4.3-.7 0-.3-.1-.5-.3-.7-.2-.2-.4-.3-.7-.3-.3 0-.5.1-.7.3-.2.2-.3.4-.3.7 0 .3.1.5.3.7.2.2.5.3.7.3zm10.2 11.4v-1.5c-.7.5-1.5.8-2.3.8-1 0-1.8-.3-2.3-1-.6-.6-.9-1.5-.9-2.6 0-1.2.3-2.1.9-2.8.6-.7 1.4-1 2.4-1 .8 0 1.6.2 2.3.7v-1.6c-.6-.3-1.4-.5-2.2-.5-1.5 0-2.7.5-3.6 1.4-.9.9-1.3 2.2-1.3 3.8 0 1.4.4 2.5 1.2 3.4.9.9 1.9 1.4 3.3 1.4 1 .2 1.8 0 2.5-.5zm3.9-4.4c0-1.1.2-2 .7-2.6.4-.5.9-.8 1.6-.8.5 0 .9.1 1.1.3V164c-.2-.1-.5-.1-.9-.1-.5 0-1 .2-1.5.5-.5.4-.8.9-1 1.6v-1.9H42v9.5h1.5l.1-4.9zm8.7 5.1c1.4 0 2.6-.5 3.4-1.4.9-.9 1.3-2.1 1.3-3.6 0-1.6-.4-2.7-1.2-3.6-.8-.9-1.9-1.3-3.3-1.3s-2.6.4-3.4 1.2c-.9.9-1.4 2.2-1.4 3.8 0 1.4.4 2.6 1.2 3.5.8.9 2 1.4 3.4 1.4zm-2.2-7.7c.6-.6 1.3-.9 2.3-.9 1 0 1.7.3 2.3.9.5.6.8 1.5.8 2.8 0 1.2-.2 2.1-.8 2.7-.5.6-1.3 1-2.3 1-1 0-1.7-.3-2.3-1-.6-.6-.9-1.5-.9-2.7 0-1.2.3-2.2.9-2.8zm13.6 6.9c.6-.5.9-1.1.9-1.9 0-.7-.2-1.3-.7-1.7-.4-.4-.9-.7-1.8-1-.7-.3-1.2-.6-1.4-.8-.2-.2-.4-.5-.4-1 0-.4.2-.7.5-.9.3-.2.7-.4 1.2-.4.8 0 1.5.2 2.2.7v-1.5c-.6-.3-1.3-.5-2-.5-1 0-1.8.3-2.4.8-.6.5-.9 1.2-.9 2 0 .7.2 1.3.6 1.7.3.4.9.7 1.7 1.1.8.3 1.3.6 1.6.9.3.2.4.5.4.9 0 .9-.6 1.3-1.8 1.3-.9 0-1.7-.3-2.5-.9v1.6c.7.4 1.5.6 2.3.6 1-.2 1.8-.5 2.5-1zm7.2-9.2c-1.4 0-2.6.4-3.4 1.2-.9.9-1.4 2.2-1.4 3.8 0 1.4.4 2.6 1.2 3.5.9.9 2 1.4 3.4 1.4 1.5 0 2.6-.5 3.4-1.4.9-.9 1.3-2.1 1.3-3.6 0-1.6-.4-2.7-1.2-3.6-.8-.8-1.9-1.3-3.3-1.3zm2.9 5c0 1.2-.2 2.1-.8 2.7-.5.6-1.3 1-2.3 1-1 0-1.7-.3-2.3-1-.6-.6-.9-1.5-.9-2.7 0-1.2.3-2.2.9-2.8.6-.6 1.3-.9 2.3-.9.9 0 1.7.3 2.2.9.7.7.9 1.6.9 2.8zm4.2 4.8h1.5v-8.2h2.2v-1.3h-2.2v-1.5c0-1.3.5-2 1.6-2 .4 0 .7.1 1 .2v-1.4c-.3-.1-.6-.1-1.1-.1-.8 0-1.5.2-2 .8-.6.6-1 1.4-1 2.5v1.6h-1.6v1.3H78v8.1zm6.2-2.6c0 1.9.8 2.8 2.5 2.8.6 0 1.1-.1 1.4-.3v-1.3c-.3.2-.6.3-1 .3-.5 0-.9-.1-1.1-.4-.2-.3-.3-.7-.3-1.4v-5.3h2.4v-1.3h-2.4v-2.8c-.5.2-1 .3-1.5.5v2.3h-1.6v1.3h1.6v5.6zm163.1 17.5c-.5-.5-1.1-.7-1.9-.7-.8 0-1.4.2-1.9.8-.5.5-.8 1.1-.8 1.9 0 .8.2 1.4.8 1.9.5.5 1.2.7 1.9.7.8 0 1.4-.2 1.9-.8.5-.5.8-1.1.8-1.9 0-.8-.3-1.5-.8-1.9zm-.3 3.5c-.5.5-1 .7-1.7.7s-1.2-.2-1.7-.7c-.5-.5-.7-1-.7-1.7s.2-1.2.7-1.7c.5-.5 1-.7 1.7-.7s1.2.2 1.7.7c.5.5.7 1 .7 1.7s-.2 1.3-.7 1.7zm-1.3-1.5c.3-.1.5-.2.6-.3.2-.2.2-.4.2-.6 0-.3-.1-.5-.3-.6-.2-.2-.5-.3-1-.3h-1v3.4h.5v-1.4h.3c.2 0 .4.2.6.6l.4.8h.6l-.5-.9c-.1-.5-.2-.7-.4-.7zm-.4-.3h-.5V189h.4c.3 0 .5.1.6.1.1.1.1.2.1.4.1.5-.1.7-.6.7zm-109.8-26.5h.4v-3.4h1.1v-.4h-2.7v.4h1.1l.1 3.4zm2.6-2.6v-.8c0 .2.1.3.1.4l1.3 2.9h.2l1.3-2.9c0-.1.1-.2.1-.4v3.3h.5v-3.8h-.6l-1.2 2.6c0 .1-.1.3-.2.5 0-.1-.1-.2-.2-.5l-1.2-2.7h-.6v3.8h.4l.1-2.4z" style="fill:#fff"/></svg>